<svg width="24" height="24" viewBox="0 0 24 24" fill="none" xmlns="http://www.w3.org/2000/svg">
<g clip-path="url(#clip0_1150_5269)">
<path d="M20 5H4C2.9 5 2.01 5.9 2.01 7L2 17C2 18.1 2.9 19 4 19H20C21.1 19 22 18.1 22 17V7C22 5.9 21.1 5 20 5ZM11 8H13V10H11V8ZM11 11H13V13H11V11ZM8 8H10V10H8V8ZM8 11H10V13H8V11ZM7 13H5V11H7V13ZM7 10H5V8H7V10ZM16 17H8V15H16V17ZM16 13H14V11H16V13ZM16 10H14V8H16V10ZM19 13H17V11H19V13ZM19 10H17V8H19V10Z" fill="#16CEB9" fill-opacity="0.64"/>
</g>
<defs>
<clipPath id="clip0_1150_5269">
<rect width="24" height="24" fill="white"/>
</clipPath>
</defs>
</svg>