<svg width="160" height="24" viewBox="0 0 160 24" fill="none" xmlns="http://www.w3.org/2000/svg">
<path fill-rule="evenodd" clip-rule="evenodd" d="M8.13584 15.7165C8.4381 16.3777 8.8281 16.975 9.29367 17.4985C8.26715 18.0508 7.19136 18.2971 6.01861 18.2971C2.53098 18.2971 0 15.9989 0 12.3309C0 8.63681 2.66013 6.33862 6.01861 6.33862C7.21373 6.33862 8.15625 6.59809 9.10583 7.10566C8.66303 7.64935 8.29776 8.26624 8.02023 8.94536C7.4473 8.71591 6.85769 8.61149 6.25041 8.61149C4.18401 8.61149 2.5824 9.9289 2.5824 12.3309C2.5824 14.6038 4.13259 16.0504 6.35424 16.0504C6.99076 16.0504 7.57841 15.9351 8.13584 15.7165ZM15.1499 6.33862C18.585 6.33862 21.0647 8.76675 21.0647 12.3309C21.0647 15.8698 18.585 18.2971 15.1499 18.2971C11.741 18.2971 9.26146 15.8698 9.26146 12.3309C9.26146 8.76675 11.741 6.33862 15.1499 6.33862ZM15.1499 8.53396C13.2388 8.53396 11.8439 10.0066 11.8439 12.3309C11.8439 14.6301 13.2388 16.1018 15.1499 16.1018C17.1135 16.1018 18.4823 14.6301 18.4823 12.3309C18.4823 10.0066 17.1135 8.53396 15.1499 8.53396ZM22.6923 18.0389V6.59664H25.2486V18.0389H22.6923ZM22.3559 3.08389C22.3559 2.20595 23.1057 1.50858 23.9575 1.50858C24.8102 1.50858 25.5591 2.20595 25.5591 3.08389C25.5591 3.98813 24.8102 4.7118 23.9575 4.7118C23.1057 4.7118 22.3559 3.98813 22.3559 3.08389ZM27.4794 7.32037C29.081 6.70053 31.0445 6.3386 32.7227 6.3386C35.6417 6.3386 37.5014 7.44932 37.5014 10.6779V18.039H34.9704V10.9107C34.9704 9.25761 33.9372 8.6629 32.5162 8.6629C31.612 8.6629 30.7089 8.79205 30.0366 8.99873V18.039H27.4794V7.32037ZM39.6427 0.475342H42.199V6.90711C42.7413 6.6229 43.8006 6.3387 44.8075 6.3387C48.1137 6.3387 50.5933 8.45632 50.5933 12.1243C50.5933 15.8175 48.1399 18.297 43.9044 18.297C42.2514 18.297 40.805 17.9614 39.6427 17.5482V0.475342ZM42.199 15.8699C42.6899 16.0241 43.336 16.1017 43.981 16.1017C46.3316 16.1017 48.0109 14.8106 48.0109 12.1757C48.0109 9.9541 46.4354 8.63689 44.4981 8.63689C43.4911 8.63689 42.716 8.89578 42.199 9.17999V15.8699ZM57.9796 10.3675C57.9796 9.12764 57.0492 8.56021 55.7842 8.56021C54.4668 8.56021 53.4336 8.94726 52.4782 9.48957V7.26792C53.4851 6.70049 54.7764 6.33856 56.1976 6.33856C58.7023 6.33856 60.4845 7.37176 60.4845 10.2384V17.8062C59.3998 18.0904 57.8506 18.2717 56.5593 18.2717C53.5889 18.2717 51.4189 17.3677 51.4189 14.7843C51.4189 12.46 53.4075 11.324 56.7136 11.324H57.9796V10.3675ZM57.9796 13.0284H56.895C55.112 13.0284 53.9498 13.5444 53.9498 14.7068C53.9498 15.895 55.0352 16.3598 56.5846 16.3598C56.9727 16.3598 57.515 16.3084 57.9796 16.2307V13.0284ZM62.3441 14.9395C63.4034 15.7399 64.6684 16.2308 65.8306 16.2308C66.9676 16.2308 67.7166 15.8436 67.7166 14.9395C67.7166 14.0092 67.0451 13.6735 65.5727 13.2865C63.1968 12.7442 62.1889 11.7887 62.1889 9.79985C62.1889 7.47456 63.9457 6.33871 66.27 6.33871C67.5613 6.33871 68.5945 6.62292 69.55 7.21666V9.56706C68.5431 8.84437 67.5613 8.40491 66.3478 8.40491C65.237 8.40491 64.6433 8.94722 64.6433 9.69621C64.6433 10.445 65.1332 10.833 66.4506 11.194C69.0601 11.7624 70.1961 12.7442 70.1961 14.8106C70.1961 17.2124 68.3625 18.297 65.883 18.297C64.5395 18.297 63.1968 17.9361 62.3441 17.3677V14.9395ZM73.6958 12.8994V12.9508C73.8511 14.9909 75.607 16.1016 77.389 16.1016C78.9645 16.1016 80.1013 15.7399 81.2373 14.9909V17.2387C80.2041 17.9614 78.6803 18.297 77.2086 18.297C73.6444 18.297 71.2163 16.0241 71.2163 12.4085C71.2163 8.76681 73.592 6.33868 76.7438 6.33868C80.0752 6.33868 81.6507 8.4826 81.6507 11.6073V12.8994H73.6958ZM79.2487 11.2464C79.1973 9.46339 78.3193 8.4826 76.6663 8.4826C75.1936 8.4826 74.1092 9.51579 73.7734 11.2464H79.2487Z" fill="white"/>
<path d="M91.604 0.415842C91.604 0.186179 91.4178 0 91.1881 0C90.9585 0 90.7723 0.186179 90.7723 0.415842V23.5842C90.7723 23.8138 90.9585 24 91.1881 24C91.4178 24 91.604 23.8138 91.604 23.5842V0.415842Z" fill="white"/>
<path d="M105.945 18.0595H104.521L100.113 6.62646H101.403L105.252 16.8661L109.102 6.62646H110.353L105.945 18.0595ZM117.356 13.9213H111.004V13.9598C111.004 16.0193 112.486 17.2319 114.122 17.2319C115.316 17.2319 116.143 16.9239 116.99 16.2887V17.4436C116.24 18.0018 115.162 18.252 114.122 18.252C111.697 18.252 109.849 16.5967 109.849 13.8635C109.849 11.3421 111.582 9.4751 113.834 9.4751C115.951 9.4751 117.356 10.7454 117.356 13.1321V13.9213ZM111.081 12.9589H116.201C116.124 11.2074 115.181 10.4952 113.776 10.4952C112.467 10.4952 111.408 11.3806 111.081 12.9589ZM118.642 18.0595V10.1103C119.759 9.70607 121.029 9.4751 122.165 9.4751C124.282 9.4751 125.571 10.3027 125.571 12.4007V18.0595H124.417V12.6317C124.417 10.9187 123.204 10.553 122.068 10.553C121.183 10.553 120.394 10.7069 119.797 10.8609V18.0595H118.642ZM126.28 10.6492V9.66757H127.57V7.62734H128.725V9.66757H131.092V10.6492H128.725V15.769C128.725 16.8469 129.148 17.2703 129.937 17.2703C130.476 17.2703 130.919 17.0971 131.496 16.8084V17.8285C130.996 18.0787 130.419 18.252 129.687 18.252C128.475 18.252 127.57 17.6168 127.57 15.8845V10.6492H126.28ZM139.135 9.66757V17.9633C138.114 18.1557 137.075 18.252 136.209 18.252C133.784 18.252 132.398 17.4243 132.398 15.3263V9.66757H133.553V15.2686C133.553 16.8469 134.804 17.2511 136.132 17.2511C136.709 17.2511 137.364 17.2126 137.98 17.1356V9.66757H139.135ZM142.249 11.0534V18.0595H141.095V10.4375C141.98 9.8793 143.058 9.53284 144.213 9.53284C144.675 9.53284 145.137 9.59058 145.618 9.70607V10.8417C145.117 10.6684 144.521 10.63 144.136 10.63C143.308 10.63 142.692 10.8032 142.249 11.0534ZM153.102 13.9213H146.75V13.9598C146.75 16.0193 148.232 17.2319 149.868 17.2319C151.062 17.2319 151.889 16.9239 152.736 16.2887V17.4436C151.986 18.0018 150.908 18.252 149.868 18.252C147.443 18.252 145.595 16.5967 145.595 13.8635C145.595 11.3421 147.328 9.4751 149.58 9.4751C151.697 9.4751 153.102 10.7454 153.102 13.1321V13.9213ZM146.827 12.9589H151.947C151.87 11.2074 150.927 10.4952 149.522 10.4952C148.213 10.4952 147.154 11.3806 146.827 12.9589ZM153.984 17.5783V16.2695C154.696 16.9046 155.428 17.2703 156.352 17.2703C157.41 17.2703 158.084 16.8661 158.084 15.923C158.084 14.9221 157.352 14.6527 156.024 14.21C154.542 13.7096 153.907 13.0936 153.907 11.7463C153.907 10.2642 155.023 9.4751 156.544 9.4751C157.372 9.4751 158.18 9.64833 158.834 10.1103V11.3614C158.18 10.8224 157.506 10.4567 156.544 10.4567C155.62 10.4567 155.023 10.9572 155.023 11.7463C155.023 12.5162 155.485 12.9204 156.775 13.3246C158.238 13.7673 159.219 14.3255 159.219 15.846C159.219 17.5013 157.93 18.252 156.352 18.252C155.408 18.252 154.504 17.9825 153.984 17.5783Z" fill="#202A36"/>
<path d="M105.945 18.0595H104.521L100.113 6.62646H101.403L105.252 16.8661L109.102 6.62646H110.353L105.945 18.0595ZM117.356 13.9213H111.004V13.9598C111.004 16.0193 112.486 17.2319 114.122 17.2319C115.316 17.2319 116.143 16.9239 116.99 16.2887V17.4436C116.24 18.0018 115.162 18.252 114.122 18.252C111.697 18.252 109.849 16.5967 109.849 13.8635C109.849 11.3421 111.582 9.4751 113.834 9.4751C115.951 9.4751 117.356 10.7454 117.356 13.1321V13.9213ZM111.081 12.9589H116.201C116.124 11.2074 115.181 10.4952 113.776 10.4952C112.467 10.4952 111.408 11.3806 111.081 12.9589ZM118.642 18.0595V10.1103C119.759 9.70607 121.029 9.4751 122.165 9.4751C124.282 9.4751 125.571 10.3027 125.571 12.4007V18.0595H124.417V12.6317C124.417 10.9187 123.204 10.553 122.068 10.553C121.183 10.553 120.394 10.7069 119.797 10.8609V18.0595H118.642ZM126.28 10.6492V9.66757H127.57V7.62734H128.725V9.66757H131.092V10.6492H128.725V15.769C128.725 16.8469 129.148 17.2703 129.937 17.2703C130.476 17.2703 130.919 17.0971 131.496 16.8084V17.8285C130.996 18.0787 130.419 18.252 129.687 18.252C128.475 18.252 127.57 17.6168 127.57 15.8845V10.6492H126.28ZM139.135 9.66757V17.9633C138.114 18.1557 137.075 18.252 136.209 18.252C133.784 18.252 132.398 17.4243 132.398 15.3263V9.66757H133.553V15.2686C133.553 16.8469 134.804 17.2511 136.132 17.2511C136.709 17.2511 137.364 17.2126 137.98 17.1356V9.66757H139.135ZM142.249 11.0534V18.0595H141.095V10.4375C141.98 9.8793 143.058 9.53284 144.213 9.53284C144.675 9.53284 145.137 9.59058 145.618 9.70607V10.8417C145.117 10.6684 144.521 10.63 144.136 10.63C143.308 10.63 142.692 10.8032 142.249 11.0534ZM153.102 13.9213H146.75V13.9598C146.75 16.0193 148.232 17.2319 149.868 17.2319C151.062 17.2319 151.889 16.9239 152.736 16.2887V17.4436C151.986 18.0018 150.908 18.252 149.868 18.252C147.443 18.252 145.595 16.5967 145.595 13.8635C145.595 11.3421 147.328 9.4751 149.58 9.4751C151.697 9.4751 153.102 10.7454 153.102 13.1321V13.9213ZM146.827 12.9589H151.947C151.87 11.2074 150.927 10.4952 149.522 10.4952C148.213 10.4952 147.154 11.3806 146.827 12.9589ZM153.984 17.5783V16.2695C154.696 16.9046 155.428 17.2703 156.352 17.2703C157.41 17.2703 158.084 16.8661 158.084 15.923C158.084 14.9221 157.352 14.6527 156.024 14.21C154.542 13.7096 153.907 13.0936 153.907 11.7463C153.907 10.2642 155.023 9.4751 156.544 9.4751C157.372 9.4751 158.18 9.64833 158.834 10.1103V11.3614C158.18 10.8224 157.506 10.4567 156.544 10.4567C155.62 10.4567 155.023 10.9572 155.023 11.7463C155.023 12.5162 155.485 12.9204 156.775 13.3246C158.238 13.7673 159.219 14.3255 159.219 15.846C159.219 17.5013 157.93 18.252 156.352 18.252C155.408 18.252 154.504 17.9825 153.984 17.5783Z" fill="white"/>
</svg>
