<svg width="118" height="28" viewBox="0 0 118 28" fill="none" xmlns="http://www.w3.org/2000/svg">
<g clip-path="url(#clip0_395_2666)">
<path d="M24.117 8.70043L9.40167 0.204376L7.56225 1.26715V3.39065L5.72284 2.32788L3.88342 3.39065V5.51416L2.04401 4.45138L0.20459 5.51416V22.5063L2.04401 23.569L3.88342 22.5063V24.6298L5.72284 25.6926L7.56225 24.6298V26.7533L9.40167 27.8161L24.117 19.32V17.1965L22.2776 16.1337L24.117 15.0709V12.9474L22.2776 11.8847L24.117 10.8219V8.70043ZM3.88342 20.3828L2.04401 21.4455V6.57693L3.88342 7.6397V20.3828ZM9.40167 21.4435V19.32L16.7593 15.073L18.5988 16.1358L9.40167 21.4435ZM14.9199 14.0102L9.40167 17.1965V10.8239L14.9199 14.0102ZM16.7593 12.9474L9.40167 8.70043V6.57693L18.5988 11.8867L16.7593 12.9474ZM5.72284 4.45138L7.56225 5.51416V7.63766L5.72284 6.57489V4.45138ZM5.72284 8.70043L7.56225 9.76321V18.2593L5.72284 19.322V8.70043ZM5.72284 21.4435L7.56225 20.3807V22.5042L5.72284 23.567V21.4435ZM22.2776 18.2572L9.40167 25.6905V23.567L20.4382 17.1945L22.2776 18.2572ZM22.2776 14.0102L20.4382 15.073L18.5988 14.0102L20.4382 12.9474L22.2776 14.0102ZM20.4382 10.8239L9.40167 4.45138V2.32788L22.2776 9.76116L20.4382 10.8239Z" fill="white"/>
<path d="M31.7588 21.4435H29.6353V6.57693H36.1141C39.0878 6.57693 40.8925 8.38161 40.8925 11.0365C40.8925 13.6914 39.0878 15.4961 36.1141 15.4961H31.7608V21.4435H31.7588ZM38.769 11.0365C38.769 9.55066 37.9188 8.38161 36.1141 8.38161H31.7608V13.6914H36.1141C37.9188 13.6914 38.769 12.5223 38.769 11.0365ZM41.6793 13.2663C41.8919 11.5025 43.3777 10.08 46.3739 10.08C48.2011 10.08 49.7503 10.5685 50.5372 11.8847C50.8764 12.459 51.0685 13.2234 51.0685 14.1145V21.4415H49.0288V20.0599C48.3912 20.9101 47.1179 21.7582 45.3112 21.7582C43.0589 21.7582 41.148 20.5892 41.148 18.1469C41.148 16.2359 42.4437 14.8768 45.2049 14.6418L49.0288 14.3229V14.1104C49.0288 12.6245 48.3912 11.668 46.3739 11.668C44.7593 11.668 43.8887 12.3057 43.7824 13.2601H41.6793V13.2663ZM49.0268 16.6651V15.8149L45.4154 16.1337C43.9275 16.2604 43.1856 16.9839 43.1856 18.1509C43.1856 19.6388 44.2484 20.1682 45.5217 20.1682C47.4347 20.1702 49.0268 18.8949 49.0268 16.6651ZM57.3532 12.0993C55.8674 12.0993 54.9109 12.9495 54.9109 14.8604V21.4455H52.8712V10.3988H54.9109V11.6742C55.4423 10.7177 56.2904 10.1863 57.8846 10.1863H58.4589V12.0972H57.3532V12.0993ZM59.0741 13.2663C59.2866 11.5025 60.7725 10.08 63.7687 10.08C65.5958 10.08 67.145 10.5685 67.9319 11.8847C68.2712 12.459 68.4633 13.2234 68.4633 14.1145V21.4415H66.4236V20.0599C65.7859 20.9101 64.5126 21.7582 62.7059 21.7582C60.4536 21.7582 58.5427 20.5892 58.5427 18.1469C58.5427 16.2359 59.8385 14.8768 62.5996 14.6418L66.4236 14.3229V14.1104C66.4236 12.6245 65.7859 11.668 63.7687 11.668C62.1541 11.668 61.2834 12.3057 61.1772 13.2601H59.0741V13.2663ZM66.4236 16.6651V15.8149L62.8122 16.1337C61.3243 16.2604 60.5824 16.9839 60.5824 18.1509C60.5824 19.6388 61.6452 20.1682 62.9185 20.1682C64.8294 20.1702 66.4236 18.8949 66.4236 16.6651ZM78.4881 19.9577C77.8504 21.0204 76.5772 21.7623 74.8767 21.7623C71.5637 21.7623 69.7591 19.1074 69.7591 15.9212C69.7591 12.7349 71.5637 10.08 74.8767 10.08C76.5751 10.08 77.8504 10.8239 78.4881 11.8847V6.57693H80.5258V21.4455H78.4861V19.9577H78.4881ZM75.1956 11.7804C72.9658 11.7804 71.7967 13.5851 71.7967 15.9212C71.7967 18.2572 72.9658 20.0639 75.1956 20.0639C77.4253 20.0639 78.5944 18.153 78.5944 15.9212C78.5944 13.6914 77.4253 11.7804 75.1956 11.7804ZM88.3862 19.7451V21.4435H81.844V19.7451H84.0963V12.0993H81.844V10.4009H86.1339V19.7472H88.3862V19.7451ZM86.1339 8.70044H84.0942V6.57693H86.1339V8.70044ZM96.9661 19.7451C96.541 20.3828 95.3739 21.3372 93.461 21.3372C90.3605 21.3372 88.3433 18.7886 88.3433 15.7086C88.3433 12.6286 90.3605 10.08 93.461 10.08C95.3719 10.08 96.541 11.0365 96.9661 11.6721V10.3968H99.0058V20.2724C99.0058 23.7775 96.9885 25.5822 93.7798 25.5822C91.315 25.5822 89.5103 24.3069 89.0852 22.3959H91.2087C91.4008 23.1603 92.1856 23.988 93.7777 23.988C96.1138 23.988 96.964 22.5022 96.964 20.2704V19.7451H96.9661ZM93.6756 11.7804C91.6583 11.7804 90.383 13.5851 90.383 15.7107C90.383 17.8342 91.6563 19.6409 93.6756 19.6409C95.799 19.6409 97.0744 17.8362 97.0744 15.7107C97.0723 13.5851 95.799 11.7804 93.6756 11.7804ZM102.913 11.6742C103.551 10.5051 104.824 10.082 106.1 10.082C107.586 10.082 108.967 10.7197 109.605 11.993C110.243 10.8239 111.41 10.082 113.323 10.082C115.659 10.082 117.359 11.4636 117.359 14.2228V21.4435H115.319V14.5416C115.319 12.7369 114.575 11.7804 112.897 11.7804C111.516 11.7804 110.136 12.6307 110.136 14.8604V21.4455H108.097V14.5437C108.097 12.739 107.353 11.7825 105.675 11.7825C104.293 11.7825 102.913 12.6327 102.913 14.8625V21.4476H100.874V10.3988H102.913V11.6742Z" fill="white"/>
</g>
<defs>
<clipPath id="clip0_395_2666">
<rect width="117.518" height="28" fill="white"/>
</clipPath>
</defs>
</svg>
