<svg width="131" height="12" viewBox="0 0 131 12" fill="none" xmlns="http://www.w3.org/2000/svg">
<path d="M2.34375 1.84375V4.96875H6.25V4.1875H7.03125V2.625H6.25V1.84375H2.34375ZM3.125 6.53125H2.34375V11.2188H0.78125V0.28125H7.03125V1.0625H7.8125V1.84375H8.59375V4.96875H7.8125V5.75H7.03125V6.53125H5.46875V7.3125H6.25V8.09375H7.03125V8.875H7.8125V9.65625H8.59375V11.2188H7.03125V10.4375H6.25V9.65625H5.46875V8.875H4.6875V8.09375H3.90625V7.3125H3.125V6.53125ZM15.625 1.84375H12.5V2.625H11.7188V8.875H12.5V9.65625H15.625V8.875H16.4062V2.625H15.625V1.84375ZM11.7188 1.0625V0.28125H16.4062V1.0625H17.1875V1.84375H17.9688V9.65625H17.1875V10.4375H16.4062V11.2188H11.7188V10.4375H10.9375V9.65625H10.1562V1.84375H10.9375V1.0625H11.7188ZM21.0938 4.96875H25V4.1875H25.7812V2.625H25V1.84375H21.0938V4.96875ZM19.5312 11.2188V0.28125H25.7812V1.0625H26.5625V1.84375H27.3438V4.96875H26.5625V6.53125H27.3438V9.65625H26.5625V10.4375H25.7812V11.2188H19.5312ZM21.0938 9.65625H25V8.875H25.7812V7.3125H25V6.53125H21.0938V9.65625ZM34.375 1.84375H31.25V2.625H30.4688V8.875H31.25V9.65625H34.375V8.875H35.1562V2.625H34.375V1.84375ZM30.4688 1.0625V0.28125H35.1562V1.0625H35.9375V1.84375H36.7188V9.65625H35.9375V10.4375H35.1562V11.2188H30.4688V10.4375H29.6875V9.65625H28.9062V1.84375H29.6875V1.0625H30.4688ZM41.4062 1.84375H38.2812V0.28125H46.0938V1.84375H42.9688V11.2188H41.4062V1.84375ZM57.8125 8.09375H57.0312V0.28125H58.5938V7.3125H59.375V8.09375H60.1562V8.875H61.7188V8.09375H62.5V7.3125H63.2812V0.28125H64.8438V8.09375H64.0625V8.875H63.2812V9.65625H62.5V10.4375H61.7188V11.2188H60.1562V10.4375H59.375V9.65625H58.5938V8.875H57.8125V8.09375ZM74.2188 0.28125V1.84375H67.9688V4.96875H72.6562V6.53125H67.9688V9.65625H74.2188V11.2188H66.4062V0.28125H74.2188ZM77.3438 4.96875V11.2188H75.7812V0.28125H77.3438V2.625H78.125V3.40625H78.9062V4.1875H79.6875V4.96875H80.4688V5.75H81.25V6.53125H82.0312V0.28125H83.5938V11.2188H82.0312V8.875H81.25V8.09375H80.4688V7.3125H79.6875V6.53125H78.9062V5.75H78.125V4.96875H77.3438ZM88.2812 1.84375H85.1562V0.28125H92.9688V1.84375H89.8438V11.2188H88.2812V1.84375ZM95.3125 9.65625H94.5312V0.28125H96.0938V8.875H96.875V9.65625H100V8.875H100.781V0.28125H102.344V9.65625H101.562V10.4375H100.781V11.2188H96.0938V10.4375H95.3125V9.65625ZM105.469 1.84375V4.96875H109.375V4.1875H110.156V2.625H109.375V1.84375H105.469ZM106.25 6.53125H105.469V11.2188H103.906V0.28125H110.156V1.0625H110.938V1.84375H111.719V4.96875H110.938V5.75H110.156V6.53125H108.594V7.3125H109.375V8.09375H110.156V8.875H110.938V9.65625H111.719V11.2188H110.156V10.4375H109.375V9.65625H108.594V8.875H107.812V8.09375H107.031V7.3125H106.25V6.53125ZM121.094 0.28125V1.84375H114.844V4.96875H119.531V6.53125H114.844V9.65625H121.094V11.2188H113.281V0.28125H121.094ZM129.688 1.84375H130.469V3.40625H128.906V2.625H128.125V1.84375H125V2.625H124.219V4.1875H125V4.96875H128.906V5.75H129.688V6.53125H130.469V9.65625H129.688V10.4375H128.906V11.2188H124.219V10.4375H123.438V9.65625H122.656V8.09375H124.219V8.875H125V9.65625H128.125V8.875H128.906V7.3125H128.125V6.53125H124.219V5.75H123.438V4.96875H122.656V1.84375H123.438V1.0625H124.219V0.28125H128.906V1.0625H129.688V1.84375Z" fill="white"/>
</svg>
