<svg width="90" height="90" viewBox="0 0 90 90" fill="none" xmlns="http://www.w3.org/2000/svg">
<rect x="23.5137" y="25.4343" width="6.998" height="12.8763" fill="#4FC2A0"/>
<path d="M53.8323 35.2294C54.2863 31.4448 53.9342 27.607 52.7991 23.9683C51.664 20.3295 49.7716 16.9722 47.2464 14.1169C44.7212 11.2617 41.6203 8.97323 38.1476 7.40194C34.6748 5.83064 30.9088 5.01211 27.0972 5.00013C23.2855 4.98816 19.5144 5.78302 16.0319 7.33246C12.5493 8.8819 9.43409 11.1508 6.891 13.9902C4.3479 16.8295 2.4345 20.1748 1.27657 23.8064C0.118643 27.438 -0.257601 31.2735 0.172573 35.0608L27.0123 32.0123L53.8323 35.2294Z" fill="#4FC2A0"/>
</svg>
