<svg width="458" height="458" viewBox="0 0 458 458" fill="none" xmlns="http://www.w3.org/2000/svg">
<path d="M229 0.25C183.758 0.25 139.531 13.666 101.913 38.8013C64.2957 63.9367 34.9762 99.6626 17.6627 141.461C0.349116 183.26 -4.1809 229.254 4.64547 273.627C13.4718 318 35.2582 358.759 67.2494 390.751C99.2407 422.742 140 444.528 184.373 453.355C228.746 462.181 274.74 457.651 316.539 440.337C358.338 423.024 394.063 393.704 419.199 356.087C444.334 318.469 457.75 274.242 457.75 229C457.75 168.332 433.65 110.148 390.751 67.2493C347.852 24.3504 289.668 0.25 229 0.25V0.25ZM244.25 316.84V334.072C244.25 338.117 242.643 341.996 239.783 344.856C236.924 347.716 233.045 349.322 229 349.322C224.956 349.322 221.077 347.716 218.217 344.856C215.357 341.996 213.75 338.117 213.75 334.072V316.993C206.178 314.742 199.199 310.839 193.319 305.564C187.438 300.29 182.801 293.776 179.743 286.493C178.914 284.202 178.647 281.747 178.962 279.332C179.278 276.917 180.167 274.612 181.555 272.612C182.944 270.611 184.792 268.972 186.944 267.831C189.096 266.691 191.49 266.083 193.925 266.058C196.936 265.974 199.904 266.784 202.455 268.385C205.006 269.986 207.026 272.307 208.26 275.055C209.894 279.216 212.75 282.784 216.453 285.288C220.155 287.793 224.53 289.117 229 289.085C231.957 289.105 234.888 288.54 237.626 287.423C240.363 286.305 242.853 284.657 244.95 282.573C247.048 280.49 248.713 278.011 249.849 275.282C250.985 272.552 251.57 269.624 251.57 266.667C251.651 263.638 251.129 260.623 250.035 257.797C248.941 254.971 247.296 252.39 245.196 250.205C243.097 248.02 240.583 246.274 237.803 245.068C235.023 243.863 232.03 243.222 229 243.183C219.95 243.063 211.075 240.669 203.191 236.222C195.308 231.775 188.669 225.417 183.886 217.733C179.102 210.049 176.327 201.285 175.817 192.249C175.306 183.212 177.075 174.192 180.963 166.017C184.05 159.297 188.594 153.347 194.265 148.6C199.936 143.852 206.591 140.425 213.75 138.567V121.03C213.75 116.985 215.357 113.107 218.217 110.247C221.077 107.387 224.956 105.78 229 105.78C233.045 105.78 236.924 107.387 239.783 110.247C242.643 113.107 244.25 116.985 244.25 121.03V139.025C252.554 141.43 260.145 145.828 266.363 151.835C271.553 157.016 275.65 163.187 278.41 169.983C279.061 172.207 279.196 174.55 278.806 176.834C278.415 179.118 277.509 181.283 276.157 183.165C274.804 185.047 273.041 186.595 271 187.694C268.96 188.792 266.696 189.41 264.38 189.502C261.377 189.643 258.4 188.892 255.823 187.346C253.245 185.799 251.182 183.525 249.893 180.81C248.646 178.1 246.944 175.624 244.86 173.49C240.777 169.472 235.335 167.132 229.61 166.933V166.933C223.663 167.012 217.984 169.42 213.793 173.64C209.602 177.86 207.232 183.555 207.193 189.502C207.216 195.384 209.46 201.04 213.475 205.339C217.49 209.637 222.981 212.26 228.848 212.683C241.676 212.97 254.011 217.681 263.765 226.018C273.519 234.355 280.093 245.806 282.375 258.433C284.083 271.122 281.171 284.003 274.173 294.725C267.174 305.447 256.554 313.296 244.25 316.84V316.84Z" fill="#30D340"/>
</svg>
