<svg width="292" height="120" viewBox="0 0 292 120" fill="none" xmlns="http://www.w3.org/2000/svg">
<path d="M166.154 38.7397H145.846V60L167.129 44.7175C166.863 42.6462 166.523 40.6449 166.154 38.7397Z" stroke="white" stroke-opacity="0.4" stroke-width="2" stroke-linecap="round" stroke-linejoin="round"/>
<path d="M125.539 38.74H145.846V17.4796H137.779C132.554 17.4796 127.979 26.0901 125.539 38.74Z" stroke="white" stroke-opacity="0.4" stroke-width="2" stroke-linecap="round" stroke-linejoin="round"/>
<path d="M175.455 38.7397H166.154C166.523 40.6449 166.848 42.6425 167.114 44.7175L175.455 38.7397Z" stroke="white" stroke-opacity="0.4" stroke-width="2" stroke-linecap="round" stroke-linejoin="round"/>
<path d="M166.154 38.74C163.699 26.0901 159.139 17.4796 153.899 17.4796H145.846V38.74H166.154Z" stroke="white" stroke-opacity="0.4" stroke-width="2" stroke-linecap="round" stroke-linejoin="round"/>
<path d="M123.604 60.0005H145.847L123.785 53.2842C123.667 55.4738 123.604 57.7187 123.604 60.0005Z" stroke="white" stroke-opacity="0.4" stroke-width="2" stroke-linecap="round" stroke-linejoin="round"/>
<path d="M116.238 38.7397L124.564 44.7175C124.83 42.6425 125.151 40.656 125.524 38.7397H116.238Z" stroke="white" stroke-opacity="0.4" stroke-width="2" stroke-linecap="round" stroke-linejoin="round"/>
<path d="M166.154 38.74H175.44L183.722 32.7953C178.52 23.4538 170.707 17.4796 161.967 17.4796H153.914C159.139 17.4796 163.713 26.0901 166.154 38.74Z" stroke="white" stroke-opacity="0.4" stroke-width="2" stroke-linecap="round" stroke-linejoin="round"/>
<path d="M175.455 38.7399L167.129 44.7177L145.846 60.0002L167.542 48.3768L185.527 38.7399L186.34 38.3042L200.747 30.5872L227.83 16.0765V1.1337L194.396 25.1411L183.737 32.7952L175.455 38.7399Z" stroke="white" stroke-opacity="0.4" stroke-width="2" stroke-linecap="round" stroke-linejoin="round"/>
<path d="M123.8 66.7126L145.847 60H123.604C123.604 62.2634 123.671 64.5083 123.8 66.7126Z" stroke="white" stroke-opacity="0.4" stroke-width="2" stroke-linecap="round" stroke-linejoin="round"/>
<path d="M183.736 32.795L194.396 25.1408C187.262 20.1422 178.759 17.4667 170.049 17.4793H161.981C170.721 17.4793 178.534 23.4461 183.736 32.795Z" stroke="white" stroke-opacity="0.4" stroke-width="2" stroke-linecap="round" stroke-linejoin="round"/>
<path d="M125.538 38.7397C125.169 40.6449 124.844 42.6425 124.578 44.7175L145.846 60V38.7397H125.538Z" stroke="white" stroke-opacity="0.4" stroke-width="2" stroke-linecap="round" stroke-linejoin="round"/>
<path d="M190.331 59.9999C190.337 55.5886 189.87 51.1894 188.939 46.8775L167.893 53.2836C168.011 55.4732 168.074 57.7144 168.074 59.9999H190.331Z" stroke="white" stroke-opacity="0.4" stroke-width="2" stroke-linecap="round" stroke-linejoin="round"/>
<path d="M168.089 60H145.846L167.893 66.7126C168.019 64.5083 168.089 62.2634 168.089 60Z" stroke="white" stroke-opacity="0.4" stroke-width="2" stroke-linecap="round" stroke-linejoin="round"/>
<path d="M167.908 53.2842L145.846 60.0005H168.089C168.089 57.7187 168.026 55.4738 167.908 53.2842Z" stroke="white" stroke-opacity="0.4" stroke-width="2" stroke-linecap="round" stroke-linejoin="round"/>
<path d="M290.105 1.1337H227.83V16.0765H290.105V1.1337Z" stroke="white" stroke-opacity="0.4" stroke-width="2" stroke-linecap="round" stroke-linejoin="round"/>
<path d="M167.893 66.7126L188.899 73.1077C189.853 68.8039 190.334 64.4084 190.331 60H168.089C168.089 62.2634 168.019 64.5083 167.893 66.7126Z" stroke="white" stroke-opacity="0.4" stroke-width="2" stroke-linecap="round" stroke-linejoin="round"/>
<path d="M166.076 81.2603C166.446 79.3329 166.815 77.3206 167.077 75.2455L145.846 60V81.2603H166.076Z" stroke="white" stroke-opacity="0.4" stroke-width="2" stroke-linecap="round" stroke-linejoin="round"/>
<path d="M125.616 81.2603H145.846V60L124.616 75.2455C124.896 77.3206 125.232 79.3329 125.616 81.2603Z" stroke="white" stroke-opacity="0.4" stroke-width="2" stroke-linecap="round" stroke-linejoin="round"/>
<path d="M123.785 53.2836L102.739 46.8775C101.813 51.1899 101.351 55.5892 101.362 59.9999H123.604C123.604 57.7181 123.667 55.4732 123.785 53.2836Z" stroke="white" stroke-opacity="0.4" stroke-width="2" stroke-linecap="round" stroke-linejoin="round"/>
<path d="M116.238 81.26H125.617C125.247 79.3326 124.897 77.3203 124.616 75.2452L116.238 81.26Z" stroke="white" stroke-opacity="0.4" stroke-width="2" stroke-linecap="round" stroke-linejoin="round"/>
<path d="M101.362 60C101.359 64.4084 101.84 68.8039 102.794 73.1077L123.8 66.7126C123.671 64.4972 123.604 62.2818 123.604 60H101.362Z" stroke="white" stroke-opacity="0.4" stroke-width="2" stroke-linecap="round" stroke-linejoin="round"/>
<path d="M175.455 81.26L167.077 75.2452C166.796 77.3203 166.46 79.3326 166.076 81.26H175.455Z" stroke="white" stroke-opacity="0.4" stroke-width="2" stroke-linecap="round" stroke-linejoin="round"/>
<path d="M90.9449 30.5872L105.352 38.3042L106.165 38.7399L124.15 48.3768L145.846 60.0002L124.563 44.7177L116.237 38.7399L107.955 32.7952L97.2957 25.1411L63.8618 1.1337V16.0765L90.9449 30.5872Z" stroke="white" stroke-opacity="0.4" stroke-width="2" stroke-linecap="round" stroke-linejoin="round"/>
<path d="M200.747 89.4129L186.262 81.6517L185.527 81.2603L167.505 71.6049L145.846 60L167.077 75.2455L175.455 81.2603L183.648 87.1421L194.396 94.8591L227.83 118.866V103.924L200.747 89.4129Z" stroke="white" stroke-opacity="0.4" stroke-width="2" stroke-linecap="round" stroke-linejoin="round"/>
<path d="M161.981 102.521H170.049C178.759 102.534 187.262 99.858 194.396 94.8594L183.647 87.1425C178.449 96.4471 170.673 102.521 161.981 102.521Z" stroke="white" stroke-opacity="0.4" stroke-width="2" stroke-linecap="round" stroke-linejoin="round"/>
<path d="M290.105 103.924H227.83V118.866H290.105V103.924Z" stroke="white" stroke-opacity="0.4" stroke-width="2" stroke-linecap="round" stroke-linejoin="round"/>
<path d="M183.648 87.1419L175.455 81.2601H166.077C163.599 93.6588 159.08 102.52 153.914 102.52H161.982C170.673 102.52 178.449 96.4465 183.648 87.1419Z" stroke="white" stroke-opacity="0.4" stroke-width="2" stroke-linecap="round" stroke-linejoin="round"/>
<path d="M166.076 81.2601H145.846V102.52H153.914C159.079 102.52 163.599 93.6588 166.076 81.2601Z" stroke="white" stroke-opacity="0.4" stroke-width="2" stroke-linecap="round" stroke-linejoin="round"/>
<path d="M125.616 81.2601C128.094 93.6588 132.632 102.52 137.779 102.52H145.846V81.2601H125.616Z" stroke="white" stroke-opacity="0.4" stroke-width="2" stroke-linecap="round" stroke-linejoin="round"/>
<path d="M167.893 66.7126L145.846 60L167.505 71.6049L185.527 81.2603L186.262 81.6517L200.747 89.4129L227.83 103.924H290.108L208.117 78.96L188.898 73.1077L167.893 66.7126Z" stroke="white" stroke-opacity="0.4" stroke-width="2" stroke-linecap="round" stroke-linejoin="round"/>
<path d="M227.83 16.076L200.747 30.5868L186.34 38.3037L185.527 38.7394L167.542 48.3763L145.846 59.9997L167.908 53.2834L188.939 46.8772L208.117 41.0397L290.108 16.076H227.83Z" stroke="white" stroke-opacity="0.4" stroke-width="2" stroke-linecap="round" stroke-linejoin="round"/>
<path d="M188.899 73.1077L208.099 78.96C211.043 73.0737 212.575 66.5817 212.57 60H190.332C190.334 64.4084 189.854 68.8039 188.899 73.1077Z" stroke="white" stroke-opacity="0.4" stroke-width="2" stroke-linecap="round" stroke-linejoin="round"/>
<path d="M190.331 59.9999H212.57C212.58 53.4197 211.055 46.9278 208.117 41.0399L188.939 46.8775C189.871 51.1894 190.337 55.5886 190.331 59.9999V59.9999Z" stroke="white" stroke-opacity="0.4" stroke-width="2" stroke-linecap="round" stroke-linejoin="round"/>
<path d="M102.753 46.8775L83.575 41.0399C80.6369 46.9278 79.1123 53.4197 79.1221 59.9999H101.361C101.355 55.5886 101.822 51.1894 102.753 46.8775V46.8775Z" stroke="white" stroke-opacity="0.4" stroke-width="2" stroke-linecap="round" stroke-linejoin="round"/>
<path d="M107.956 32.7953L116.237 38.74H125.538C127.994 26.0901 132.554 17.4796 137.793 17.4796H129.711C120.971 17.4796 113.154 23.4464 107.956 32.7953Z" stroke="white" stroke-opacity="0.4" stroke-width="2" stroke-linecap="round" stroke-linejoin="round"/>
<path d="M123.785 53.2834L145.846 59.9997L124.15 48.3763L106.165 38.7394L105.353 38.3037L90.9452 30.5868L63.8621 16.076H1.58398L83.5753 41.0397L102.753 46.8772L123.785 53.2834Z" stroke="white" stroke-opacity="0.4" stroke-width="2" stroke-linecap="round" stroke-linejoin="round"/>
<path d="M101.361 60H79.1221C79.1123 66.5802 80.6369 73.0721 83.575 78.96L102.775 73.1077C101.827 68.8032 101.352 64.4078 101.361 60Z" stroke="white" stroke-opacity="0.4" stroke-width="2" stroke-linecap="round" stroke-linejoin="round"/>
<path d="M129.711 17.4793H121.643C112.933 17.4667 104.43 20.1422 97.2964 25.1408L107.956 32.795C113.155 23.4461 120.971 17.4793 129.711 17.4793Z" stroke="white" stroke-opacity="0.4" stroke-width="2" stroke-linecap="round" stroke-linejoin="round"/>
<path d="M63.8584 1.1337H1.58398V16.0765H63.8584V1.1337Z" stroke="white" stroke-opacity="0.4" stroke-width="2" stroke-linecap="round" stroke-linejoin="round"/>
<path d="M90.9452 89.4129L105.43 81.6517L106.165 81.2603L124.187 71.6049L145.846 60L123.799 66.7126L102.794 73.1077L83.5753 78.96L1.58398 103.924H63.8621L90.9452 89.4129Z" stroke="white" stroke-opacity="0.4" stroke-width="2" stroke-linecap="round" stroke-linejoin="round"/>
<path d="M125.616 81.2601H116.238L108.044 87.1419C113.243 96.4465 121.019 102.52 129.711 102.52H137.779C132.613 102.52 128.094 93.6588 125.616 81.2601Z" stroke="white" stroke-opacity="0.4" stroke-width="2" stroke-linecap="round" stroke-linejoin="round"/>
<path d="M108.045 87.1425L97.2964 94.8594C104.43 99.858 112.933 102.534 121.643 102.521H129.711C121.019 102.521 113.243 96.4471 108.045 87.1425Z" stroke="white" stroke-opacity="0.4" stroke-width="2" stroke-linecap="round" stroke-linejoin="round"/>
<path d="M116.237 81.2603L124.615 75.2455L145.846 60L124.187 71.6049L106.165 81.2603L105.43 81.6517L90.9449 89.4129L63.8618 103.924V118.866L97.2957 94.8591L108.044 87.1421L116.237 81.2603Z" stroke="white" stroke-opacity="0.4" stroke-width="2" stroke-linecap="round" stroke-linejoin="round"/>
<path d="M63.8584 103.924H1.58398V118.866H63.8584V103.924Z" stroke="white" stroke-opacity="0.4" stroke-width="2" stroke-linecap="round" stroke-linejoin="round"/>
</svg>
