<svg width="48" height="48" viewBox="0 0 48 48" fill="none" xmlns="http://www.w3.org/2000/svg">
<g clip-path="url(#clip0_429_3251)">
<path d="M23.9968 48C19.2495 48.0007 14.6087 46.5937 10.6611 43.9568C6.7135 41.3199 3.63654 37.5715 1.81933 33.1858C0.00210937 28.8001 -0.47374 23.974 0.451956 19.3179C1.37765 14.6617 3.66331 10.3847 7.01989 7.02757C10.3765 3.67048 14.6532 1.38415 19.3092 0.457734C23.9652 -0.468685 28.7914 0.00641393 33.1773 1.82295C37.5633 3.63948 41.3121 6.71586 43.9496 10.663C46.5872 14.6102 47.9949 19.2509 47.9949 23.9981C47.988 30.3611 45.4576 36.4614 40.9587 40.9611C36.4597 45.4607 30.3597 47.9921 23.9968 48ZM23.9968 1.11897C19.4707 1.11823 15.046 2.45976 11.2824 4.97388C7.51871 7.488 4.58518 11.0618 2.85276 15.2432C1.12035 19.4247 0.666874 24.026 1.5497 28.4652C2.43252 32.9044 4.61198 36.9821 7.81243 40.1825C11.0129 43.383 15.0906 45.5624 19.5298 46.4453C23.969 47.3281 28.5703 46.8746 32.7517 45.1422C36.9332 43.4098 40.507 40.4762 43.0211 36.7126C45.5352 32.9489 46.8767 28.5243 46.876 23.9981C46.8691 17.9323 44.4564 12.1169 40.1672 7.82775C35.878 3.53858 30.0626 1.12588 23.9968 1.11897Z" fill="white"/>
<path d="M34.8387 34.8894H12.8584V36.0084H34.8387V34.8894Z" fill="white"/>
<path d="M32.8767 28.4181H20.5345L20.1242 29.537H34.8387L24.3166 11.738H23.414L12.8584 29.537H14.1564L23.8653 13.174L32.8767 28.4181Z" fill="white"/>
</g>
<defs>
<clipPath id="clip0_429_3251">
<rect width="47.9963" height="48" fill="white"/>
</clipPath>
</defs>
</svg>
