<svg width="116" height="116" viewBox="0 0 116 116" fill="none" xmlns="http://www.w3.org/2000/svg">
<rect width="116" height="116" rx="58" fill="white"/>
<g clip-path="url(#clip0_51_165)">
<path d="M78.6819 57.0363V59.0903H72.2289V61.7913H78.9073V64H69.9886C70.0027 61.6928 70.0027 59.3857 70.0027 57.0363H78.6819ZM30.6647 52.0281C30.7915 52.0281 30.862 52.0563 30.9183 52.1829C32.6514 56.0656 34.3984 59.9484 36.1315 63.8171C36.1456 63.8593 36.1596 63.9015 36.1878 63.9719H35.3002C34.8493 63.9719 34.4125 63.9578 33.9617 63.9719C33.7926 63.9719 33.7081 63.9297 33.6376 63.7608C32.6091 61.4115 31.5805 59.0481 30.552 56.6987C30.242 55.9953 29.932 55.2778 29.608 54.5322C29.5657 54.6307 29.5375 54.687 29.4953 54.7573C28.1709 57.7538 26.8605 60.7503 25.5502 63.7468C25.4798 63.9015 25.4093 63.9578 25.2262 63.9578C24.6288 63.9465 24.0404 63.9533 23.4466 63.942L23 63.9297C23.0423 63.8593 23.0845 63.789 23.1268 63.7187C24.8457 59.8922 26.5647 56.0656 28.2836 52.2392C28.354 52.0844 28.4245 52.0281 28.6076 52.0281C29.298 52.0422 29.9884 52.0422 30.6647 52.0281ZM41.1192 52.0703C41.26 52.0703 41.3305 52.1125 41.401 52.2251C42.5563 53.8148 43.7116 55.3904 44.867 56.9801C44.9092 57.0363 44.9515 57.1067 45.022 57.177C45.0783 57.1067 45.1206 57.0504 45.1629 56.9941C46.3182 55.4045 47.4736 53.8288 48.6289 52.2392C48.7275 52.1125 48.8121 52.0703 48.967 52.0703C49.6715 52.0844 50.3901 52.0703 51.0946 52.0703H51.32V63.9719H49.0938V55.4185C49.0798 55.4045 49.0657 55.4045 49.0516 55.3904C49.0093 55.4467 48.967 55.5029 48.9248 55.5592C47.7271 57.1489 46.5295 58.7385 45.3319 60.3282C45.1206 60.6096 44.8106 60.6096 44.6134 60.3142C43.458 58.7245 42.2886 57.1489 41.1333 55.5592C41.091 55.5029 41.0487 55.4326 40.9924 55.3763C40.9783 55.3904 40.9642 55.3904 40.9501 55.4045V63.9719H38.7099V52.0844C38.7662 52.0844 38.8366 52.0703 38.893 52.0703H41.1192ZM88.967 52C89.6576 52 90.32 52.1407 90.9398 52.4361C92.363 53.0973 93.2222 54.5322 93.1376 56.1219C93.1094 56.6284 93.0392 57.1207 92.8562 57.585C92.405 58.7105 91.5458 59.3576 90.4046 59.667C90.32 59.6811 90.2492 59.7093 90.137 59.7374C90.2492 59.864 90.3338 59.9766 90.4328 60.075C91.5032 61.2708 92.5604 62.4666 93.6308 63.6764C93.6872 63.7468 93.7298 63.8453 93.8 63.9578H91.2356C91.1372 63.9578 91.0244 63.9015 90.9542 63.8312C89.8832 62.6073 88.8122 61.3974 87.7556 60.1595C87.629 60.0188 87.5018 59.9625 87.3188 59.9625C86.699 59.9766 86.0648 59.9625 85.4306 59.9625V63.9437C84.656 63.9297 83.9234 63.9297 83.1626 63.9297V57.9086H83.4158C85.1774 57.9086 86.9384 57.9226 88.7138 57.9226C89.0234 57.9226 89.348 57.8945 89.6438 57.8101C90.503 57.5569 90.9818 56.7409 90.8834 55.7421C90.7988 54.898 90.137 54.2227 89.2634 54.1243C89.0798 54.0961 88.883 54.0961 88.6994 54.0961H83.1764V52.0141C83.219 52.0141 83.2754 52 83.3174 52H88.967ZM61.4363 52C62.1549 52 62.8593 52.1266 63.5215 52.422C64.6628 52.9426 65.2546 53.8429 65.3673 55.0809C65.48 56.3048 65.0151 57.2052 63.8738 57.7538C63.902 57.7819 63.9301 57.796 63.9442 57.8101C65.1841 58.2462 65.8182 59.653 65.7477 60.6518C65.6632 62.0305 65.0573 63.0293 63.747 63.5358C63.3666 63.6764 62.958 63.789 62.5635 63.8453C62.1267 63.9156 61.6758 63.9437 61.239 63.9437H55.6173V56.8675H55.8709C57.773 56.8394 59.6751 56.8253 61.5631 56.7831C61.8308 56.7691 62.1126 56.7128 62.3662 56.6143C63.0848 56.347 63.3525 55.6436 63.0143 54.9543C62.7607 54.4338 62.2957 54.1805 61.7463 54.0821C61.5631 54.0539 61.3659 54.0399 61.1827 54.0399C59.4074 54.0258 57.6462 54.0258 55.8709 54.0117H55.6173V52.0141C55.6737 52.0141 55.716 52 55.7723 52H61.4363ZM61.2813 58.7808H58.0266C57.9562 58.7808 57.8998 58.7948 57.8294 58.7948V61.8335C59.1115 61.8335 60.3514 61.8476 61.6054 61.8335C62.0281 61.8335 62.4226 61.721 62.803 61.524C63.127 61.3552 63.3666 61.116 63.4652 60.7644C63.6202 60.2298 63.4229 59.7093 62.9298 59.3294C62.4507 58.9637 61.8871 58.7808 61.2813 58.7808ZM78.9214 52.0703V54.2227H70.0027V52.0703H78.9214Z" fill="black"/>
</g>
<defs>
<clipPath id="clip0_51_165">
<rect width="70.8" height="12" fill="white" transform="translate(23 52)"/>
</clipPath>
</defs>
</svg>