<svg width="116" height="116" viewBox="0 0 116 116" fill="none" xmlns="http://www.w3.org/2000/svg">
<rect width="116" height="116" rx="58" fill="#95A290"/>
<g clip-path="url(#clip0_46_53)">
<path d="M24.9494 52.1814H28.7013L34.5907 63.8186H32.1705L30.2743 60.0675H23.276L21.3797 63.8186H19L24.9494 52.1814ZM29.3266 58.1958L26.7848 53.1325L24.2236 58.1958H29.3266Z" fill="black"/>
<path d="M35.6414 58.897V52.1814H37.8599V58.8169C37.8599 61.0954 38.9696 62.108 42.1156 62.108C44.6169 62.108 46.4523 61.3207 47.4608 59.4658C47.0776 62.4101 45.5443 64.0034 41.6717 64.0034C37.5553 64 35.6414 62.5274 35.6414 58.897ZM47.4557 52.1814H49.654V63.8186H47.4557V52.1814Z" fill="black"/>
<path d="M52.7418 52.1814H61.0118C64.5013 52.1814 65.8523 53.1097 65.8523 55.0456C65.8523 56.9207 64.4177 57.8084 61.9401 57.8084V57.8287H62.4236C63.9164 57.8287 65.2084 58.6354 65.4084 60.4709L65.7679 63.8186H63.5924L63.351 61.3781C63.2093 59.9679 62.5443 59.546 60.8093 59.546H54.9198V63.8219H52.7418V52.1814ZM54.9198 53.9764V57.7274H60.4894C62.7882 57.7274 63.6759 57.1224 63.6759 55.8321C63.6759 54.5207 62.7679 53.9755 60.4692 53.9755L54.9198 53.9764Z" fill="black"/>
<path d="M67.6059 57.9899C67.6059 54.2583 70.3907 51.9983 75.3105 51.9983C80.2523 51.9983 83.0354 54.2566 83.0354 57.9899C83.0354 61.7232 80.2506 64 75.3105 64C70.3899 64 67.6059 61.7207 67.6059 57.9899ZM80.7561 57.9899C80.7561 55.449 78.8405 53.8954 75.3105 53.8954C71.8017 53.8954 69.8852 55.449 69.8852 57.9899C69.8852 60.5713 71.8017 62.1047 75.3105 62.1047C78.8405 62.1047 80.7561 60.5713 80.7561 57.9899Z" fill="black"/>
<path d="M85.1528 63.2945V61.297C86.7063 61.8219 88.8034 62.1848 91.3646 62.1848C94.7131 62.1848 95.584 61.5595 95.584 60.5308C95.584 59.7038 95.0599 59.2405 92.9021 59.0591L89.5739 58.7764C85.9637 58.4743 84.8954 57.3418 84.8954 55.5494C84.8954 53.4321 86.6498 52 91.6717 52C94.3545 52 96.3511 52.2819 97.5207 52.6051V54.5207C96.0861 54.1578 93.9705 53.9156 91.6312 53.9156C88.0819 53.9156 87.1536 54.6422 87.1536 55.5291C87.1536 56.3561 87.6785 56.719 89.7958 56.9207L93.0633 57.2236C96.6532 57.546 97.8836 58.3932 97.8836 60.3089C97.8836 62.5873 96.2701 64 91.1874 64C88.7629 64 86.5443 63.7173 85.1528 63.2945Z" fill="black"/>
</g>
<defs>
<clipPath id="clip0_46_53">
<rect width="78.8793" height="12" fill="white" transform="translate(19 52)"/>
</clipPath>
</defs>
</svg>