<svg width="48" height="48" viewBox="0 0 48 48" fill="none" xmlns="http://www.w3.org/2000/svg">
<g clip-path="url(#clip0_643_4008)">
<path d="M0 24C0 10.7452 10.7452 0 24 0C37.2548 0 48 10.7452 48 24C48 37.2548 37.2548 48 24 48C10.7452 48 0 37.2548 0 24Z" fill="#EDEDED"/>
<path d="M20.3884 26.2016C20.319 26.5589 20.2651 26.9219 20.2178 27.2869L17.9238 26.9451C17.9774 26.5334 18.0457 26.1265 18.1246 25.7239L20.3884 26.2016Z" fill="#141D29"/>
<path d="M20.9641 24.0315C20.8537 24.3624 20.7571 24.6985 20.6662 25.038L18.3943 24.5585C18.5201 24.0768 18.6595 23.6011 18.8204 23.1354L20.9641 24.0315Z" fill="#141D29"/>
<path d="M21.3475 35.9524C21.4163 36.1308 21.4966 36.3097 21.5769 36.4886C21.597 36.5356 21.6233 36.5789 21.644 36.6257L19.2743 36.9864C19.1009 36.5708 18.9407 36.1477 18.7937 35.717L21.1399 35.36C21.2121 35.5558 21.2663 35.76 21.3475 35.9524Z" fill="#141D29"/>
<path d="M17.8028 28.1463V28.1377L20.1034 28.4818C20.0816 28.8615 20.089 29.2357 20.0919 29.6107L17.7781 29.4542C17.7793 29.0186 17.7733 28.5856 17.8028 28.1463Z" fill="#141D29"/>
<path d="M22.9565 39H22.9336C21.9363 38.9307 20.9479 38.7669 19.9815 38.5108C19.9153 38.3829 19.8608 38.2481 19.7969 38.1188L22.1967 37.7535C22.4306 38.1781 22.6839 38.5936 22.9565 39Z" fill="#141D29"/>
<path d="M20.4721 33.0652C20.555 33.4491 20.6287 33.8362 20.7373 34.2105L18.4583 34.5577C18.3378 34.1141 18.232 33.6668 18.1428 33.2126L20.4721 33.0652Z" fill="#141D29"/>
<path d="M20.2514 31.8795L17.9287 32.0263C17.8688 31.5744 17.8413 31.1145 17.814 30.6545L20.1387 30.8119C20.1665 31.1704 20.2006 31.5268 20.2514 31.8795Z" fill="#141D29"/>
<path d="M9.03461 23.0291C9.22042 20.2817 10.1503 17.765 11.5981 15.6387L13.6443 16.7344C12.3425 18.575 11.5023 20.7752 11.3391 23.1862C11.2249 24.8535 11.442 26.5269 11.9779 28.1098C12.5138 29.6927 13.358 31.1538 14.4615 32.4088C13.845 27.634 14.7494 22.7862 17.0463 18.5549L19.0753 19.6414C17.6639 22.2414 16.83 25.1153 16.6305 28.0669C16.4728 30.393 16.7007 32.6646 17.2851 34.798C17.5608 35.8754 17.9309 36.9263 18.3911 37.9387C17.293 37.4976 16.2519 36.9261 15.2902 36.2366C11.1966 33.3101 8.6713 28.3955 9.03461 23.0291Z" fill="#141D29"/>
<path d="M21.4076 28.3903C21.4363 27.9528 21.4899 27.5166 21.5539 27.0816C21.7407 25.8503 22.0777 24.6466 22.5575 23.4973C22.1406 23.3345 21.7531 23.1046 21.4105 22.8166C21.3976 22.8472 21.3818 22.8756 21.3683 22.906L19.2464 22.0191C19.4758 21.4666 19.7367 20.9295 20.0135 20.405C19.9471 20.0695 19.9231 19.7269 19.9421 19.3854C19.9495 19.2781 19.9796 19.1789 19.9951 19.0742L12.6429 15.0652C12.2984 14.8774 11.9942 14.6234 11.7478 14.318C11.5014 14.0126 11.3176 13.6616 11.2069 13.2851L10.6357 11.341L20.9551 16.9672C21.1587 16.7342 21.3876 16.5247 21.6376 16.3424L11.8699 11.1127C11.1441 10.7242 10.5674 10.1065 10.2297 9.35582L9.19849 7.065L25.5216 15.8045C26.5421 16.1878 27.3698 16.9588 27.8244 17.9496L32.1374 19.2202L32.2753 19.2609L33.492 19.6191L34.5782 21.667L34.1366 24.0249L35.8318 21.5426L34.5094 13.4084C37.1543 16.0298 38.8521 19.5955 38.9906 23.4712C39.257 30.9427 34.091 37.1238 27.3201 38.6593C26.4393 38.8693 25.5396 38.9905 24.6347 39.0209C24.6327 39.0183 24.6309 39.0152 24.6286 39.0126C24.6109 39.0126 24.5934 39.0166 24.5753 39.0172C24.0225 38.2898 23.5372 37.5134 23.1255 36.6977C22.8284 36.1277 22.5706 35.5382 22.3539 34.933C21.5783 32.8439 21.2557 30.6137 21.4076 28.3903ZM23.9522 21.4932C24.3139 21.5177 24.6747 21.4344 24.989 21.2538C25.3033 21.0732 25.5571 20.8034 25.7181 20.4786C25.8791 20.1539 25.9402 19.7886 25.8936 19.4291C25.8471 19.0696 25.6949 18.732 25.4565 18.4589C25.2181 18.1859 24.904 17.9897 24.554 17.8951C24.2041 17.8005 23.8339 17.8119 23.4904 17.9277C23.1469 18.0435 22.8454 18.2585 22.6242 18.5457C22.4029 18.8328 22.2717 19.1791 22.2472 19.5408C22.215 20.0256 22.3764 20.5035 22.6961 20.8695C23.0157 21.2355 23.4674 21.4598 23.9522 21.4932ZM24.7465 33.8099C25.2993 33.9019 25.8379 34.082 26.3709 34.2973C27.0304 34.5651 27.69 34.8267 28.3954 34.9692C29.019 35.0951 29.6284 35.0641 30.1915 34.7584C30.8711 34.3897 31.2473 33.8738 31.075 33.1306C30.9385 32.5439 31.1255 32.1103 31.6746 31.7742C32.0336 31.5543 32.351 31.2842 31.9957 30.8349C31.8108 30.6012 32.0686 30.5576 32.2091 30.4945C32.694 30.2777 32.7221 29.9652 32.5228 29.5462C32.1213 28.7043 32.2633 28.4141 33.2004 28.0265C34.6711 27.4163 34.7201 27.2287 33.693 26.0405C33.2847 25.5682 32.848 25.1146 32.5371 24.5815C32.395 24.3445 32.2787 24.0929 32.1902 23.8311C32.0978 23.5443 32.1208 23.3075 32.2541 23.1142C32.2564 23.0896 32.2885 22.9158 32.3206 22.7449L31.43 23.0219L30.7662 23.8787L28.463 21.8571L32.345 22.6176C32.3682 22.4946 32.3886 22.3896 32.3886 22.3896C32.4772 21.9061 32.5747 21.4605 32.6381 21.0132L28.2035 19.7802C28.2021 19.8355 28.2127 19.888 28.209 19.9437C28.163 20.6137 27.9545 21.2624 27.6017 21.8339C27.2488 22.4053 26.7621 22.8822 26.1837 23.2235C25.923 24.1029 25.7154 25.1447 25.7137 26.3278C25.7108 28.7365 26.5398 30.5696 27.1623 31.6438C27.1623 31.6438 24.6722 29.4421 24.3577 28.0804L24.538 30.6384C24.538 30.6384 23.0183 27.1559 23.1204 24.7168C22.2366 28.3387 23.2402 31.7318 24.7465 33.8099Z" fill="#141D29"/>
<path d="M17.6549 10.8913L17.6945 10.8859C17.5388 10.8148 17.3767 10.7597 17.2253 10.6786C19.8373 9.3481 22.8642 8.74507 26.0285 9.17462C28.9665 9.57291 31.6338 10.863 33.7821 12.734L32.1958 17.715L17.6549 10.8913Z" fill="#141D29"/>
</g>
<defs>
<clipPath id="clip0_643_4008">
<rect width="48" height="48" fill="white"/>
</clipPath>
</defs>
</svg>
