<svg width="48" height="48" viewBox="0 0 48 48" fill="none" xmlns="http://www.w3.org/2000/svg">
<g clip-path="url(#clip0_429_3596)">
<path d="M33.3542 14.0481C31.2163 11.9318 28.4131 10.6189 25.4186 10.3313C22.4242 10.0437 19.4223 10.7991 16.9207 12.4697C14.4229 14.1372 12.5811 16.6197 11.7095 19.4937C10.8399 22.3646 10.9961 25.4485 12.1511 28.2169C13.3089 30.989 15.392 33.2739 18.0455 34.6824C20.7036 36.0944 23.7678 36.5448 26.7198 35.9576C29.6692 35.3724 32.3253 33.7847 34.2374 31.464C36.1452 29.1479 37.1888 26.2408 37.1894 23.2401C37.1796 19.7891 35.8005 16.4831 33.355 14.0481H33.3542ZM32.1598 31.2256C30.0166 33.3464 27.1229 34.5354 24.1078 34.5344C21.091 34.5344 18.1959 33.3448 16.0567 31.2256C14.466 29.641 13.382 27.6195 12.9423 25.4177C12.5034 23.2178 12.7289 20.937 13.5903 18.8657C14.4537 16.7916 15.9132 15.0203 17.7839 13.7761C19.6573 12.5293 21.8575 11.8641 24.1078 11.8641C26.3582 11.8641 28.5584 12.5293 30.4318 13.7761C32.3025 15.0203 33.762 16.7916 34.6254 18.8657C35.487 20.9377 35.7134 23.2177 35.2734 25.4177C34.834 27.6194 33.7502 29.6409 32.1598 31.2256Z" fill="white"/>
<path d="M22.6824 32.3008C21.2811 32.0848 19.956 31.5216 18.828 30.6624C17.3442 29.4627 16.2198 27.8772 15.5784 26.0801C15.3459 25.469 15.1585 24.8417 15.0177 24.2033C14.9657 23.9697 14.9297 23.7793 14.9097 23.6521C14.9097 23.5881 14.8897 23.5369 14.8857 23.5057V23.4617L13.8665 23.5809C14.1033 25.1809 14.6209 26.7257 15.3953 28.1473C16.0858 29.44 17.0347 30.5768 18.1832 31.4872C19.6188 32.5768 21.3305 33.2432 23.1248 33.4112L23.6896 33.4712V13.5913H22.6664L22.6824 32.3008ZM33.776 23.7513V22.7273H25.6048V13.6041H24.5776V33.464L25.1384 33.412C26.4642 33.2291 27.742 32.7914 28.9016 32.1232C30.0548 31.4786 31.0805 30.6287 31.928 29.6152C33.0217 28.2894 33.8188 26.7446 34.2656 25.0849L33.2776 24.8073C32.8665 26.3204 32.1394 27.7293 31.144 28.9409C29.7142 30.6311 27.7675 31.8035 25.6048 32.2768V23.7521H33.776V23.7513Z" fill="white"/>
<path d="M46.3312 23.7041H44.7744C44.7825 28.4631 43.135 33.0768 40.1144 36.7544C37.0875 40.4394 32.8782 42.9628 28.2016 43.896C23.5216 44.8316 18.662 44.1211 14.4457 41.8848C10.2358 39.6535 6.93057 36.0307 5.09369 31.6344C3.26103 27.2441 3.01382 22.3528 4.39449 17.8001C5.77806 13.2421 8.70132 9.30599 12.6649 6.66411C16.6346 4.01772 21.3969 2.82457 26.1453 3.28672C30.8938 3.74887 35.3367 5.83792 38.7216 9.20011C40.6415 11.0975 42.1657 13.3572 43.2056 15.8481C44.2441 18.3368 44.7771 21.0073 44.7736 23.7041H47.884C47.8939 18.2267 45.9984 12.9164 42.5224 8.68331C39.039 4.44173 34.1945 1.53696 28.812 0.462531C23.4258 -0.614572 17.8328 0.202752 12.9801 2.77612C8.13478 5.34394 4.33048 9.51327 2.21609 14.5729C0.106202 19.6253 -0.179194 25.2546 1.4089 30.4944C3.00097 35.7398 6.36475 40.2697 10.9257 43.3104C15.494 46.3571 20.9748 47.7314 26.4401 47.2006C31.9054 46.6698 37.0194 44.2665 40.916 40.3976C43.1249 38.2128 44.8787 35.6118 46.076 32.7448C47.2715 29.8807 47.886 26.8077 47.884 23.7041H46.332H46.3312Z" fill="#EE322F"/>
</g>
<defs>
<clipPath id="clip0_429_3596">
<rect width="47.9999" height="48" fill="white"/>
</clipPath>
</defs>
</svg>
