<svg width="48" height="48" viewBox="0 0 48 48" fill="none" xmlns="http://www.w3.org/2000/svg">
<g clip-path="url(#clip0_429_3626)">
<path d="M4.91148 21.8487C4.87588 21.7849 4.82761 21.7286 4.76947 21.6831C4.71133 21.6376 4.64448 21.6038 4.57279 21.5836C4.50111 21.5635 4.42602 21.5573 4.35188 21.5656C4.27774 21.5738 4.20602 21.5963 4.14089 21.6318L2.51858 22.5073L0.973335 21.5095C0.911019 21.4694 0.841184 21.4415 0.767816 21.4277C0.694448 21.4138 0.618984 21.4141 0.545732 21.4285C0.472481 21.443 0.402877 21.4713 0.340895 21.512C0.278913 21.5526 0.225766 21.6047 0.184488 21.6653C0.143211 21.7259 0.114612 21.7938 0.100323 21.8651C0.0860353 21.9365 0.0863379 22.0098 0.101214 22.0811C0.11609 22.1523 0.145249 22.22 0.187025 22.2803C0.2288 22.3405 0.282376 22.3922 0.344691 22.4323L1.39919 23.1107L0.291966 23.7062C0.160198 23.7773 0.0628838 23.8964 0.0214309 24.0373C-0.020022 24.1782 -0.00221783 24.3294 0.0709268 24.4575C0.144071 24.5856 0.266565 24.6802 0.41146 24.7206C0.556355 24.7609 0.711782 24.7436 0.84355 24.6724L2.46586 23.7969L4.0111 24.7947C4.10364 24.8544 4.21235 24.8859 4.3234 24.8854C4.44483 24.8851 4.56295 24.8469 4.66043 24.7765C4.75791 24.7061 4.82961 24.6071 4.865 24.4942C4.90039 24.3812 4.89761 24.2602 4.85707 24.1489C4.81653 24.0376 4.74036 23.9419 4.63975 23.8758L3.58525 23.1935L4.69247 22.598C4.82344 22.5266 4.92 22.4077 4.96104 22.2673C5.00209 22.1269 4.98427 21.9763 4.91148 21.8487Z" fill="white"/>
<path d="M15.6675 39.2527C15.5926 39.1257 15.4693 39.0326 15.3243 38.9934C15.1793 38.9543 15.0242 38.9723 14.8928 39.0436L13.814 39.6273V38.523C13.814 38.3766 13.7542 38.2362 13.6477 38.1326C13.5412 38.0291 13.3968 37.9709 13.2462 37.9709C13.0956 37.9709 12.9512 38.0291 12.8447 38.1326C12.7382 38.2362 12.6784 38.3766 12.6784 38.523V39.5366L11.7253 38.9253C11.6649 38.8716 11.5934 38.8312 11.5155 38.8069C11.4376 38.7825 11.3552 38.7748 11.274 38.7843C11.1928 38.7938 11.1146 38.8203 11.0449 38.8619C10.9752 38.9035 10.9155 38.9592 10.87 39.0253C10.8245 39.0914 10.7942 39.1663 10.7812 39.2449C10.7682 39.3234 10.7728 39.4037 10.7947 39.4804C10.8166 39.557 10.8553 39.6282 10.9081 39.6889C10.9609 39.7497 11.0266 39.7986 11.1007 39.8324L12.1552 40.5107L11.0479 41.1102C10.9163 41.1809 10.8189 41.2995 10.777 41.44C10.7352 41.5805 10.7524 41.7313 10.8249 41.8595C10.8749 41.9454 10.9474 42.0169 11.035 42.0667C11.1226 42.1166 11.2222 42.1431 11.3237 42.1435C11.42 42.1442 11.5149 42.1211 11.5995 42.0764L13.2218 41.2009L14.7671 42.1987C14.8591 42.26 14.9679 42.293 15.0794 42.2933C15.202 42.2943 15.3216 42.2566 15.4203 42.186C15.5191 42.1154 15.5917 42.0156 15.6273 41.9016C15.6629 41.7875 15.6596 41.6653 15.6178 41.5532C15.5761 41.4412 15.4982 41.3452 15.3957 41.2798L14.3412 40.6212L15.4444 40.0217C15.5123 39.9867 15.5722 39.9388 15.6205 39.8806C15.6687 39.8225 15.7044 39.7555 15.7252 39.6836C15.7461 39.6117 15.7517 39.5364 15.7418 39.4624C15.7319 39.3883 15.7066 39.3169 15.6675 39.2527Z" fill="white"/>
<path d="M47.6549 35.4942L46.6004 34.8159L47.7076 34.2164C47.8325 34.1424 47.9232 34.0243 47.9608 33.8868C47.9984 33.7494 47.98 33.6031 47.9094 33.4785C47.8388 33.3539 47.7214 33.2606 47.5818 33.2181C47.4422 33.1756 47.2911 33.1871 47.1601 33.2502L45.5377 34.1257L43.9884 33.1279C43.8631 33.0526 43.7126 33.0275 43.5687 33.0581C43.4247 33.0886 43.2986 33.1724 43.217 33.2917C43.1354 33.411 43.1047 33.5564 43.1313 33.6974C43.158 33.8383 43.2399 33.9636 43.3598 34.0468L44.4184 34.7055L43.3111 35.3049C43.1795 35.3756 43.082 35.4942 43.0402 35.6347C42.9984 35.7752 43.0156 35.9261 43.0881 36.0542C43.1381 36.1401 43.2106 36.2116 43.2982 36.2615C43.3858 36.3113 43.4854 36.3378 43.5869 36.3382C43.683 36.337 43.7774 36.3141 43.8627 36.2711L45.485 35.3956L47.0465 36.3973C47.1385 36.4587 47.2473 36.4916 47.3588 36.492C47.4753 36.4845 47.5865 36.4423 47.6775 36.3711C47.7684 36.2999 47.8345 36.2032 47.8669 36.0941C47.8993 35.9851 47.8963 35.869 47.8583 35.7616C47.8204 35.6543 47.7493 35.5609 47.6549 35.4942Z" fill="white"/>
<path d="M30.8561 30.3357L27.3681 32.213C27.3029 32.2482 27.2454 32.2956 27.199 32.3524C27.1526 32.4092 27.1181 32.4744 27.0976 32.5441C27.0562 32.685 27.074 32.8362 27.1471 32.9643C27.2202 33.0924 27.3427 33.187 27.4876 33.2273C27.6325 33.2677 27.788 33.2503 27.9197 33.1792L31.4077 31.302C31.4729 31.2668 31.5304 31.2194 31.5768 31.1626C31.6232 31.1058 31.6577 31.0406 31.6782 30.9708C31.6987 30.9011 31.7049 30.8281 31.6964 30.756C31.688 30.6839 31.6649 30.6141 31.6287 30.5507C31.5925 30.4872 31.5438 30.4313 31.4854 30.3862C31.4269 30.3411 31.3599 30.3076 31.2882 30.2876C31.2164 30.2677 31.1414 30.2616 31.0672 30.2699C30.9931 30.2781 30.9213 30.3005 30.8561 30.3357Z" fill="white"/>
<path d="M35.0092 28.3717L33.172 27.4843C33.105 27.4508 33.0318 27.4305 32.9566 27.4247C32.8815 27.4189 32.8059 27.4277 32.7343 27.4507C32.6627 27.4736 32.5965 27.5101 32.5396 27.5582C32.4826 27.6062 32.4361 27.6648 32.4027 27.7306C32.3693 27.7963 32.3497 27.8678 32.3451 27.941C32.3404 28.0141 32.3508 28.0875 32.3756 28.1567C32.4004 28.2259 32.4391 28.2896 32.4895 28.3442C32.5399 28.3987 32.6009 28.4429 32.6691 28.4742L33.5329 28.8923L32.6893 29.3498C32.6238 29.3844 32.5659 29.4313 32.5191 29.4879C32.4723 29.5444 32.4376 29.6094 32.4168 29.6791C32.3961 29.7488 32.3897 29.8218 32.3982 29.8939C32.4067 29.966 32.4299 30.0358 32.4663 30.0991C32.5157 30.1855 32.588 30.2575 32.6758 30.3074C32.7635 30.3574 32.8635 30.3835 32.9651 30.383C33.0605 30.3823 33.154 30.3578 33.2369 30.3121L35.0295 29.3498C35.1203 29.3012 35.1958 29.2294 35.2476 29.1422C35.2995 29.0549 35.3258 28.9555 35.3237 28.8548C35.3216 28.754 35.2912 28.6557 35.2358 28.5706C35.1804 28.4854 35.102 28.4166 35.0092 28.3717Z" fill="white"/>
<path d="M31.6349 26.7508L27.9158 24.9564C27.7812 24.8945 27.6269 24.8865 27.4863 24.9341C27.3457 24.9817 27.2299 25.0811 27.164 25.211C27.098 25.3408 27.0871 25.4906 27.1337 25.6281C27.1802 25.7657 27.2805 25.8799 27.4129 25.9463L31.132 27.7407C31.2099 27.7792 31.296 27.7995 31.3835 27.7999C31.5123 27.8007 31.6377 27.759 31.7389 27.6814C31.8401 27.6038 31.9112 27.4951 31.9404 27.3731C31.9697 27.251 31.9554 27.1229 31.8998 27.0099C31.8443 26.8968 31.7509 26.8054 31.6349 26.7508Z" fill="white"/>
<path d="M22.7853 24.8696L24.002 24.2859L25.4337 24.98C25.5005 25.0124 25.5733 25.0317 25.6478 25.0367C25.7223 25.0417 25.7971 25.0324 25.8679 25.0094C25.9387 24.9863 26.0041 24.9499 26.0604 24.9022C26.1168 24.8546 26.1629 24.7966 26.1962 24.7316C26.2295 24.6666 26.2493 24.5959 26.2544 24.5234C26.2596 24.451 26.2501 24.3783 26.2263 24.3094C26.2026 24.2406 26.1652 24.1769 26.1162 24.1222C26.0671 24.0674 26.0075 24.0225 25.9407 23.9902L24.2535 23.1777C24.1749 23.1389 24.0881 23.1187 24 23.1187C23.9119 23.1187 23.825 23.1389 23.7465 23.1777L22.2905 23.8797C22.2236 23.9121 22.164 23.9569 22.115 24.0117C22.066 24.0665 22.0285 24.1301 22.0048 24.199C21.9811 24.2678 21.9715 24.3406 21.9767 24.413C21.9819 24.4854 22.0017 24.5562 22.035 24.6212C22.0683 24.6862 22.1144 24.7441 22.1707 24.7918C22.2271 24.8395 22.2925 24.8759 22.3633 24.8989C22.4341 24.922 22.5089 24.9313 22.5834 24.9263C22.6579 24.9212 22.7306 24.902 22.7975 24.8696H22.7853Z" fill="white"/>
<path d="M17.1234 27.6066L20.8385 25.8122C20.9735 25.7468 21.0763 25.632 21.1242 25.4929C21.1721 25.3539 21.1613 25.202 21.094 25.0708C21.0268 24.9395 20.9087 24.8396 20.7657 24.793C20.6227 24.7464 20.4666 24.7569 20.3316 24.8223L16.6286 26.6167C16.5555 26.6444 16.4891 26.6865 16.4336 26.7404C16.3781 26.7943 16.3346 26.8587 16.306 26.9298C16.2774 27.0008 16.2642 27.0768 16.2673 27.153C16.2704 27.2292 16.2897 27.304 16.324 27.3726C16.3583 27.4412 16.4068 27.5022 16.4665 27.5516C16.5263 27.6011 16.5959 27.6379 16.671 27.6599C16.7461 27.6819 16.8251 27.6885 16.903 27.6794C16.9808 27.6702 17.0559 27.6454 17.1234 27.6066Z" fill="white"/>
<path d="M15.6957 29.5785L14.4789 28.912L15.4685 28.3954C15.5367 28.364 15.5977 28.3198 15.6481 28.2653C15.6985 28.2108 15.7372 28.1471 15.762 28.0778C15.7868 28.0086 15.7972 27.9353 15.7925 27.8621C15.7879 27.7889 15.7683 27.7174 15.7349 27.6517C15.7015 27.586 15.655 27.5274 15.598 27.4793C15.5411 27.4313 15.4749 27.3947 15.4033 27.3718C15.3317 27.3489 15.2561 27.3401 15.181 27.3458C15.1058 27.3516 15.0326 27.3719 14.9656 27.4055L12.9783 28.3717C12.8889 28.4139 12.8128 28.4786 12.7579 28.559C12.703 28.6395 12.6713 28.7328 12.666 28.8292C12.6618 28.8712 12.6618 28.9134 12.666 28.9554V31.0298C12.666 31.1763 12.7258 31.3167 12.8323 31.4203C12.9388 31.5238 13.0832 31.582 13.2338 31.582C13.3844 31.582 13.5288 31.5238 13.6353 31.4203C13.7418 31.3167 13.8016 31.1763 13.8016 31.0298V29.7954L15.1441 30.5211C15.2093 30.5568 15.2811 30.5795 15.3554 30.5881C15.4296 30.5967 15.5049 30.591 15.5769 30.5712C15.6489 30.5514 15.7162 30.518 15.7748 30.4728C15.8335 30.4277 15.8824 30.3717 15.9187 30.3081C15.9849 30.1819 15.9987 30.0358 15.9571 29.9C15.9156 29.7642 15.822 29.6491 15.6957 29.5785Z" fill="white"/>
<path d="M20.8994 32.3668L17.3912 30.4738C17.3259 30.4386 17.2542 30.4162 17.18 30.4079C17.1059 30.3997 17.0308 30.4057 16.9591 30.4256C16.8873 30.4456 16.8203 30.4791 16.7619 30.5242C16.7035 30.5694 16.6548 30.6253 16.6185 30.6887C16.5823 30.7522 16.5593 30.8219 16.5508 30.894C16.5423 30.9661 16.5485 31.0391 16.569 31.1089C16.5896 31.1786 16.624 31.2438 16.6704 31.3006C16.7169 31.3574 16.7743 31.4048 16.8396 31.44L20.3478 33.333C20.4322 33.3782 20.5272 33.4014 20.6236 33.4001C20.7489 33.3995 20.8705 33.3586 20.9694 33.2838C21.0683 33.2091 21.139 33.1046 21.1705 32.9867C21.202 32.8687 21.1924 32.744 21.1434 32.6319C21.0944 32.5198 21.0086 32.4266 20.8994 32.3668Z" fill="white"/>
<path d="M25.7337 33.0964L23.9897 34.035L22.4607 33.2108C22.3954 33.175 22.3236 33.1521 22.2492 33.1434C22.1749 33.1347 22.0995 33.1403 22.0274 33.1598C21.9553 33.1794 21.8878 33.2127 21.8289 33.2576C21.77 33.3025 21.7207 33.3583 21.684 33.4218C21.6472 33.4852 21.6237 33.5551 21.6147 33.6274C21.6057 33.6996 21.6115 33.7729 21.6316 33.8431C21.6518 33.9132 21.6859 33.9788 21.7321 34.0361C21.7784 34.0934 21.8357 34.1413 21.901 34.177L23.7058 35.1511C23.7908 35.1949 23.8854 35.2179 23.9816 35.2182C24.0777 35.2175 24.1722 35.1945 24.2574 35.1511L26.2853 34.0587C26.3557 34.0264 26.4186 33.9805 26.4699 33.9236C26.5213 33.8668 26.5601 33.8002 26.584 33.7282C26.6078 33.6561 26.6162 33.5801 26.6085 33.5047C26.6008 33.4294 26.5773 33.3564 26.5394 33.2903C26.5015 33.2242 26.45 33.1664 26.3882 33.1204C26.3263 33.0744 26.2554 33.0413 26.1799 33.0232C26.1043 33.005 26.0257 33.0021 25.9489 33.0147C25.8722 33.0273 25.7989 33.0551 25.7337 33.0964Z" fill="white"/>
<path d="M13.2338 36.9179C13.3844 36.9179 13.5288 36.8598 13.6353 36.7562C13.7418 36.6527 13.8016 36.5122 13.8016 36.3658V32.8913C13.8016 32.7449 13.7418 32.6044 13.6353 32.5009C13.5288 32.3973 13.3844 32.3392 13.2338 32.3392C13.0832 32.3392 12.9388 32.3973 12.8323 32.5009C12.7258 32.6044 12.666 32.7449 12.666 32.8913V36.3658C12.666 36.4383 12.6807 36.5101 12.7092 36.5771C12.7378 36.6441 12.7796 36.7049 12.8323 36.7562C12.885 36.8075 12.9476 36.8482 13.0165 36.8759C13.0854 36.9036 13.1593 36.9179 13.2338 36.9179Z" fill="white"/>
<path d="M31.4363 18.8277L27.9483 20.7089C27.8167 20.7796 27.7192 20.8982 27.6774 21.0387C27.6356 21.1792 27.6528 21.3301 27.7253 21.4582C27.7609 21.5225 27.8093 21.5793 27.8678 21.6251C27.9262 21.6709 27.9935 21.705 28.0657 21.7252C28.1378 21.7454 28.2134 21.7513 28.288 21.7428C28.3626 21.7342 28.4346 21.7112 28.4999 21.6751L31.9879 19.7939C32.1195 19.7232 32.217 19.6046 32.2588 19.4641C32.3006 19.3237 32.2834 19.1728 32.2109 19.0446C32.1374 18.9163 32.0147 18.8215 31.8696 18.7809C31.7245 18.7402 31.5687 18.7571 31.4363 18.8277Z" fill="#D80F22"/>
<path d="M15.6674 15.9172C15.5932 15.7896 15.4702 15.6956 15.3251 15.6557C15.18 15.6158 15.0247 15.6333 14.8927 15.7042L13.2704 16.5798L11.7252 15.582C11.6634 15.5358 11.5924 15.5025 11.5168 15.4841C11.4411 15.4658 11.3624 15.4627 11.2855 15.4753C11.2086 15.4878 11.1352 15.5156 11.0698 15.5569C11.0045 15.5982 10.9486 15.6521 10.9056 15.7154C10.8626 15.7786 10.8334 15.8498 10.82 15.9245C10.8065 15.9991 10.809 16.0757 10.8273 16.1494C10.8456 16.2231 10.8793 16.2923 10.9263 16.3528C10.9733 16.4133 11.0327 16.4637 11.1006 16.5009L12.1673 17.1832L11.06 17.7787C10.9948 17.8139 10.9373 17.8613 10.8909 17.9181C10.8445 17.9749 10.81 18.04 10.7895 18.1098C10.769 18.1796 10.7628 18.2526 10.7713 18.3247C10.7798 18.3968 10.8028 18.4665 10.839 18.53C10.9121 18.6581 11.0346 18.7527 11.1795 18.793C11.2513 18.813 11.3264 18.819 11.4005 18.8108C11.4746 18.8025 11.5464 18.7801 11.6116 18.7449L13.2339 17.8694L14.7792 18.8672C14.8723 18.9256 14.9806 18.9571 15.0915 18.9579C15.2144 18.9597 15.3346 18.9227 15.434 18.8524C15.5335 18.7821 15.6068 18.6823 15.6429 18.568C15.679 18.4538 15.676 18.3312 15.6344 18.2187C15.5927 18.1062 15.5146 18.0099 15.4119 17.9443L14.3533 17.266L15.4605 16.6705C15.5897 16.5964 15.6838 16.4759 15.7225 16.335C15.7611 16.1941 15.7414 16.044 15.6674 15.9172Z" fill="#D80F22"/>
<path d="M27.9197 10.0607L31.4077 8.18341C31.4729 8.14819 31.5304 8.10082 31.5768 8.04401C31.6232 7.98719 31.6577 7.92204 31.6782 7.85228C31.6987 7.78251 31.7049 7.7095 31.6964 7.63741C31.688 7.56532 31.6649 7.49556 31.6287 7.43212C31.5925 7.36867 31.5438 7.31279 31.4854 7.26765C31.4269 7.22251 31.3599 7.18901 31.2882 7.16905C31.2164 7.14909 31.1414 7.14307 31.0672 7.15133C30.9931 7.15958 30.9213 7.18196 30.8561 7.21718L27.3681 9.09443C27.3029 9.12964 27.2454 9.17701 27.199 9.23383C27.1526 9.29065 27.1181 9.3558 27.0976 9.42556C27.0771 9.49532 27.0709 9.56834 27.0794 9.64043C27.0879 9.71252 27.1109 9.78228 27.1471 9.84572C27.1833 9.90917 27.232 9.96505 27.2905 10.0102C27.3489 10.0553 27.4159 10.0888 27.4876 10.1088C27.5594 10.1287 27.6345 10.1348 27.7086 10.1265C27.7827 10.1183 27.8545 10.0959 27.9197 10.0607Z" fill="#D80F22"/>
<path d="M32.669 5.35569L33.5329 5.77373L32.6893 6.23121C32.6237 6.26583 32.5659 6.31277 32.5191 6.36931C32.4723 6.42584 32.4375 6.49085 32.4168 6.56055C32.396 6.63025 32.3897 6.70327 32.3982 6.77536C32.4067 6.84746 32.4298 6.9172 32.4662 6.98053C32.5156 7.06696 32.588 7.13891 32.6757 7.18886C32.7635 7.23881 32.8634 7.26493 32.9651 7.26449C33.0598 7.26331 33.153 7.24033 33.2368 7.19744L34.1737 6.70447V7.83634C34.1737 7.98277 34.2335 8.12321 34.34 8.22675C34.4465 8.3303 34.5909 8.38847 34.7415 8.38847C34.8921 8.38847 35.0365 8.3303 35.143 8.22675C35.2495 8.12321 35.3093 7.98277 35.3093 7.83634V5.86444C35.3133 5.83168 35.3133 5.79859 35.3093 5.76584C35.3071 5.66563 35.2768 5.5679 35.2218 5.48314C35.1668 5.39838 35.0891 5.32978 34.997 5.2847L33.1598 4.39734C33.0928 4.36375 33.0196 4.34348 32.9444 4.33769C32.8693 4.33191 32.7937 4.34073 32.7221 4.36365C32.6505 4.38656 32.5843 4.42312 32.5273 4.47117C32.4704 4.51923 32.4239 4.57783 32.3905 4.64355C32.3571 4.70927 32.3375 4.7808 32.3329 4.85396C32.3282 4.92712 32.3386 5.00045 32.3634 5.06968C32.3882 5.13891 32.4269 5.20264 32.4773 5.25716C32.5277 5.31168 32.5887 5.3559 32.6569 5.38724L32.669 5.35569Z" fill="#D80F22"/>
<path d="M27.4292 2.82771L31.1484 4.62214C31.2263 4.66069 31.3124 4.68095 31.3998 4.6813C31.5273 4.67868 31.6502 4.6344 31.7486 4.5556C31.8471 4.4768 31.9154 4.36807 31.9426 4.24692C31.9697 4.12576 31.9542 3.99924 31.8984 3.88774C31.8426 3.77624 31.7498 3.68624 31.635 3.63225L27.9321 1.83782C27.7975 1.77592 27.6433 1.76791 27.5027 1.81553C27.362 1.86315 27.2463 1.96258 27.1803 2.0924C27.1144 2.22222 27.1035 2.37204 27.15 2.50958C27.1966 2.64711 27.2969 2.76136 27.4292 2.82771Z" fill="#D80F22"/>
<path d="M22.7852 1.75106L24.002 1.16738L25.4337 1.86149C25.5687 1.92686 25.7248 1.93741 25.8678 1.89081C25.9386 1.86774 26.0041 1.83133 26.0604 1.78367C26.1167 1.73601 26.1629 1.67802 26.1961 1.61303C26.2294 1.54803 26.2492 1.47729 26.2544 1.40486C26.2596 1.33242 26.25 1.2597 26.2263 1.19085C26.2026 1.122 26.1651 1.05837 26.1161 1.00359C26.0671 0.948816 26.0075 0.903962 25.9406 0.871592L24.2413 0.0591693C24.1627 0.0203731 24.0759 0.000152588 23.9878 0.000152588C23.8997 0.000152588 23.8128 0.0203731 23.7343 0.0591693L22.2783 0.761166C22.1433 0.826538 22.0405 0.94138 21.9926 1.08043C21.9447 1.21947 21.9555 1.37133 22.0228 1.5026C22.09 1.63387 22.2081 1.73379 22.3511 1.78039C22.4941 1.82698 22.6503 1.81643 22.7852 1.75106Z" fill="#D80F22"/>
<path d="M17.1233 4.48806L20.8384 2.69363C20.9053 2.66126 20.9649 2.6164 21.0139 2.56162C21.0629 2.50685 21.1004 2.44322 21.1241 2.37437C21.1478 2.30552 21.1574 2.2328 21.1522 2.16036C21.147 2.08793 21.1272 2.01719 21.0939 1.95219C21.0606 1.88719 21.0145 1.82921 20.9582 1.78155C20.9019 1.73388 20.8364 1.69748 20.7656 1.67441C20.6226 1.62781 20.4664 1.63836 20.3315 1.70373L16.6285 3.50211C16.5148 3.55788 16.4237 3.64922 16.3698 3.76145C16.3158 3.87368 16.3023 4.00027 16.3313 4.12088C16.3604 4.24148 16.4302 4.3491 16.5297 4.42643C16.6293 4.50375 16.7526 4.54629 16.88 4.54721C16.9646 4.54512 17.0477 4.52492 17.1233 4.48806Z" fill="#D80F22"/>
<path d="M15.6958 6.44022L14.4791 5.77372L15.4849 5.28863C15.5518 5.25549 15.6112 5.20987 15.6599 5.15437C15.7087 5.09887 15.7457 5.03459 15.7688 4.96519C15.792 4.89579 15.8009 4.82264 15.7949 4.74991C15.789 4.67717 15.7684 4.60628 15.7344 4.54128C15.7003 4.47629 15.6533 4.41845 15.5963 4.37109C15.5392 4.32372 15.4731 4.28775 15.4017 4.26523C15.3304 4.24271 15.2551 4.23408 15.1803 4.23983C15.1055 4.24558 15.0326 4.26559 14.9658 4.29874L12.9785 5.25314C12.8854 5.29733 12.8066 5.36561 12.7508 5.45049C12.695 5.53537 12.6643 5.63356 12.6621 5.73428C12.6631 5.83731 12.6932 5.9381 12.7489 6.0257C12.8047 6.1133 12.8841 6.18438 12.9785 6.2312L15.1524 7.41434C15.2318 7.4591 15.3204 7.48604 15.4119 7.49322C15.5134 7.49284 15.613 7.46637 15.7006 7.41651C15.7882 7.36664 15.8607 7.29515 15.9108 7.20927C15.9502 7.14545 15.9759 7.07454 15.9864 7.0008C15.997 6.92706 15.992 6.85201 15.9719 6.78017C15.9519 6.70833 15.9171 6.64119 15.8696 6.58277C15.8222 6.52435 15.763 6.47586 15.6958 6.44022Z" fill="#D80F22"/>
<path d="M20.8994 9.24824L17.3912 7.35521C17.2594 7.28408 17.104 7.26677 16.9591 7.30708C16.8142 7.34739 16.6917 7.44202 16.6185 7.57015C16.5454 7.69828 16.5276 7.84941 16.569 7.99031C16.6105 8.1312 16.7078 8.25032 16.8396 8.32144L20.3478 10.2145C20.4322 10.2597 20.5272 10.2828 20.6236 10.2815C20.7489 10.2809 20.8705 10.2401 20.9694 10.1653C21.0683 10.0905 21.139 9.98602 21.1705 9.86809C21.202 9.75016 21.1924 9.62543 21.1434 9.51331C21.0944 9.40119 21.0086 9.30799 20.8994 9.24824Z" fill="#D80F22"/>
<path d="M45.7976 11.0742C45.7116 11.0268 45.6145 11.002 45.5157 11.002C45.4169 11.002 45.3198 11.0268 45.2339 11.0742L35.3216 16.4141V15.3059C35.3216 15.1595 35.2617 15.019 35.1553 14.9155C35.0488 14.8119 34.9043 14.7538 34.7538 14.7538C34.6032 14.7538 34.4587 14.8119 34.3523 14.9155C34.2458 15.019 34.1859 15.1595 34.1859 15.3059V17.0254L33.1031 17.6091C32.9713 17.6812 32.8744 17.8014 32.8337 17.943C32.793 18.0846 32.8119 18.2362 32.8861 18.3643C32.9603 18.4924 33.0838 18.5867 33.2295 18.6262C33.3751 18.6658 33.531 18.6475 33.6628 18.5753L44.95 12.4861V22.8267L34.4739 28.4703L34.4212 28.5058L34.3847 28.5373L34.3441 28.5807L34.3117 28.6162C34.2985 28.6318 34.2876 28.6491 34.2792 28.6675L34.2549 28.7109C34.2457 28.727 34.2389 28.7442 34.2346 28.7621C34.2329 28.7779 34.2329 28.7937 34.2346 28.8095V28.8607C34.2346 28.8805 34.2346 28.9002 34.2346 28.9199C34.2346 28.9396 34.2346 28.9199 34.2346 28.9436V40.2268L32.7137 41.0471C32.6436 41.0782 32.5808 41.1229 32.5291 41.1784C32.4773 41.2338 32.4377 41.299 32.4127 41.3698C32.3876 41.4406 32.3777 41.5157 32.3834 41.5904C32.3891 41.6651 32.4104 41.7379 32.446 41.8043C32.4961 41.8902 32.5686 41.9617 32.6562 42.0115C32.7438 42.0614 32.8434 42.0879 32.9449 42.0882C33.0412 42.089 33.1361 42.0659 33.2207 42.0212L35.0336 41.0431L35.0823 41.0116L35.1228 40.9761L35.1634 40.9406C35.1755 40.9271 35.1864 40.9126 35.1958 40.8972C35.2076 40.8835 35.2185 40.869 35.2283 40.8538L35.2526 40.8065C35.2526 40.8065 35.2526 40.775 35.2729 40.7552C35.2932 40.7355 35.2729 40.7237 35.2729 40.7079C35.2748 40.6896 35.2748 40.6711 35.2729 40.6527C35.2751 40.6344 35.2751 40.6158 35.2729 40.5975V29.2788L45.7368 23.6352C45.825 23.5875 45.8986 23.5178 45.95 23.4332C46.0013 23.3486 46.0285 23.2523 46.0288 23.1541V11.5475C46.0339 11.4561 46.0155 11.3649 45.9751 11.2822C45.9347 11.1996 45.8737 11.128 45.7976 11.0742Z" fill="#D80F22"/>
<path d="M26.5936 44.9593C26.5209 44.8313 26.3989 44.7366 26.2545 44.6959C26.11 44.6552 25.9548 44.672 25.823 44.7424L24.2007 45.618L22.6514 44.6202C22.5256 44.5396 22.372 44.511 22.2244 44.5406C22.0768 44.5702 21.9474 44.6555 21.8646 44.7779C21.7818 44.9003 21.7523 45.0497 21.7827 45.1931C21.8132 45.3366 21.901 45.4625 22.0268 45.543L23.0813 46.2214L21.9741 46.8169C21.9088 46.8521 21.8514 46.8995 21.805 46.9563C21.7585 47.0131 21.7241 47.0782 21.7036 47.148C21.683 47.2178 21.6768 47.2908 21.6853 47.3629C21.6938 47.435 21.7168 47.5047 21.7531 47.5682C21.7893 47.6316 21.838 47.6875 21.8964 47.7326C21.9548 47.7778 22.0218 47.8113 22.0936 47.8312C22.1653 47.8512 22.2404 47.8572 22.3146 47.849C22.3887 47.8407 22.4604 47.8183 22.5257 47.7831L24.148 46.9076L25.6932 47.9054C25.7858 47.965 25.8945 47.9966 26.0055 47.9961C26.127 47.9957 26.2451 47.9576 26.3426 47.8872C26.44 47.8168 26.5117 47.7178 26.5471 47.6049C26.5825 47.4919 26.5797 47.3709 26.5392 47.2596C26.4987 47.1483 26.4225 47.0526 26.3219 46.9864L25.2674 46.3042L26.3624 45.7126C26.4288 45.6783 26.4876 45.6315 26.5352 45.5749C26.5829 45.5183 26.6185 45.4531 26.64 45.383C26.6615 45.3129 26.6685 45.2394 26.6605 45.1666C26.6526 45.0939 26.6298 45.0234 26.5936 44.9593Z" fill="#D80F22"/>
<path d="M30.8237 42.0488L27.5791 43.8038C27.4699 43.8636 27.3841 43.9568 27.3351 44.0689C27.286 44.181 27.2765 44.3057 27.308 44.4237C27.3395 44.5416 27.4102 44.6461 27.5091 44.7209C27.608 44.7956 27.7296 44.8365 27.8549 44.8371C27.9515 44.8365 28.0464 44.812 28.1307 44.7661L31.3753 43.015C31.4405 42.9798 31.498 42.9325 31.5444 42.8756C31.5908 42.8188 31.6253 42.7537 31.6458 42.6839C31.6663 42.6141 31.6725 42.5411 31.6641 42.469C31.6556 42.397 31.6325 42.3272 31.5963 42.2637C31.5601 42.2003 31.5114 42.1444 31.453 42.0993C31.3945 42.0541 31.3275 42.0206 31.2558 42.0007C31.1841 41.9807 31.109 41.9747 31.0348 41.983C30.9607 41.9912 30.8889 42.0136 30.8237 42.0488Z" fill="#D80F22"/>
<path d="M21.9012 11.0427L23.414 11.859V13.6101C23.414 13.7565 23.4738 13.8969 23.5803 14.0005C23.6868 14.104 23.8312 14.1622 23.9818 14.1622C24.1324 14.1622 24.2768 14.104 24.3833 14.0005C24.4898 13.8969 24.5496 13.7565 24.5496 13.6101V11.8748L26.2774 10.9441C26.3426 10.9088 26.4001 10.8615 26.4465 10.8047C26.4929 10.7478 26.5274 10.6827 26.5479 10.6129C26.5684 10.5432 26.5746 10.4702 26.5661 10.3981C26.5576 10.326 26.5346 10.2562 26.4984 10.1928C26.4622 10.1293 26.4135 10.0734 26.355 10.0283C26.2966 9.98316 26.2296 9.94966 26.1579 9.9297C26.0861 9.90974 26.011 9.90372 25.9369 9.91198C25.8628 9.92023 25.791 9.94261 25.7258 9.97783L23.9818 10.9165L22.4528 10.0922C22.3259 10.0457 22.1861 10.0448 22.0587 10.0898C21.9312 10.1348 21.8245 10.2226 21.7579 10.3375C21.6912 10.4523 21.6691 10.5865 21.6953 10.7158C21.7216 10.8452 21.7946 10.9611 21.9012 11.0427Z" fill="#D80F22"/>
<path d="M23.4787 23.86C23.5267 23.9516 23.5998 24.0285 23.6901 24.0821C23.7803 24.1357 23.884 24.1639 23.9897 24.1637C24.0768 24.1647 24.163 24.1458 24.2412 24.1085L26.2123 23.1541C26.3446 23.0877 26.4449 22.9735 26.4914 22.8359C26.538 22.6984 26.5271 22.5486 26.4612 22.4188C26.3952 22.2889 26.2795 22.1895 26.1388 22.1419C25.9982 22.0943 25.844 22.1023 25.7094 22.1642L24.5697 22.7163V21.1112C24.5697 20.9647 24.5099 20.8243 24.4034 20.7208C24.2969 20.6172 24.1525 20.5591 24.0019 20.5591C23.8513 20.5591 23.7069 20.6172 23.6004 20.7208C23.4939 20.8243 23.4341 20.9647 23.4341 21.1112V23.1541C23.4344 23.2285 23.4495 23.3022 23.4787 23.371C23.4407 23.4472 23.4209 23.5308 23.4209 23.6155C23.4209 23.7002 23.4407 23.7838 23.4787 23.86Z" fill="#D80F22"/>
<path d="M23.9897 19.5139C24.1403 19.5139 24.2847 19.4558 24.3912 19.3522C24.4977 19.2487 24.5575 19.1082 24.5575 18.9618V15.4873C24.5575 15.3409 24.4977 15.2004 24.3912 15.0969C24.2847 14.9934 24.1403 14.9352 23.9897 14.9352C23.8391 14.9352 23.6947 14.9934 23.5882 15.0969C23.4817 15.2004 23.4219 15.3409 23.4219 15.4873V18.9618C23.4219 19.1082 23.4817 19.2487 23.5882 19.3522C23.6947 19.4558 23.8391 19.5139 23.9897 19.5139Z" fill="#D80F22"/>
<path d="M34.7416 9.13386C34.591 9.13386 34.4466 9.19204 34.3401 9.29558C34.2337 9.39913 34.1738 9.53956 34.1738 9.686V13.1605C34.1738 13.233 34.1885 13.3048 34.217 13.3718C34.2456 13.4388 34.2874 13.4996 34.3401 13.5509C34.3929 13.6022 34.4555 13.6428 34.5243 13.6706C34.5932 13.6983 34.6671 13.7126 34.7416 13.7126C34.8162 13.7126 34.89 13.6983 34.9589 13.6706C35.0278 13.6428 35.0904 13.6022 35.1431 13.5509C35.1959 13.4996 35.2377 13.4388 35.2662 13.3718C35.2948 13.3048 35.3094 13.233 35.3094 13.1605V9.686C35.31 9.61334 35.2957 9.54131 35.2673 9.47409C35.239 9.40686 35.1972 9.34579 35.1443 9.29441C35.0915 9.24304 35.0287 9.20239 34.9596 9.17482C34.8904 9.14726 34.8164 9.13334 34.7416 9.13386Z" fill="#D80F22"/>
</g>
<defs>
<clipPath id="clip0_429_3626">
<rect width="48" height="48" fill="white"/>
</clipPath>
</defs>
</svg>
