<svg width="48" height="48" viewBox="0 0 48 48" fill="none" xmlns="http://www.w3.org/2000/svg">
<path d="M0.0289652 29.3698C0.021724 29.3988 0.0181033 29.4278 0.0144827 29.4585C0.00905164 29.493 0.00543098 29.5255 0.00362065 29.5599C0.00362065 29.5689 0 29.578 0 29.5888C0 29.6087 0.00543098 29.6269 0.00543098 29.645C0.00724132 29.6793 0.00905164 29.712 0.016293 29.7463C0.021724 29.7771 0.0289652 29.8061 0.0362065 29.8351C0.0434478 29.8641 0.0524995 29.893 0.0633614 29.9219C0.0742235 29.951 0.0868957 29.9799 0.101378 30.007C0.114051 30.0342 0.128533 30.0596 0.144827 30.0868C0.16112 30.112 0.179223 30.1375 0.197326 30.161C0.215429 30.1863 0.235343 30.2098 0.257067 30.2333C0.27698 30.2551 0.300514 30.2768 0.322238 30.2967C0.345772 30.3166 0.367496 30.3365 0.392841 30.3546C0.419997 30.3745 0.448962 30.3908 0.477927 30.4089C0.49422 30.418 0.508702 30.4307 0.526806 30.4397L23.3116 41.8321C23.3206 41.8358 23.3296 41.8375 23.3369 41.8411C23.3497 41.8466 23.3604 41.8538 23.3732 41.8593C23.384 41.8647 23.3967 41.8665 23.4094 41.8719C23.4274 41.8792 23.4474 41.8846 23.4654 41.8901C23.4836 41.8955 23.5016 41.901 23.5198 41.9045C23.5307 41.9063 23.5397 41.9117 23.5506 41.9136C23.5614 41.9154 23.5722 41.9154 23.5831 41.9172C23.603 41.9209 23.6229 41.9226 23.6447 41.9245C23.6665 41.9263 23.6881 41.928 23.708 41.928C23.7262 41.928 23.7461 41.928 23.7642 41.928C23.7859 41.928 23.8058 41.9263 23.8276 41.9245C23.8475 41.9226 23.8674 41.919 23.8891 41.9172C23.8999 41.9154 23.9108 41.9154 23.9217 41.9136C23.9326 41.9117 23.9416 41.9081 23.9525 41.9045C23.9705 41.901 23.9886 41.8955 24.0068 41.8901C24.0248 41.8846 24.0447 41.8773 24.0629 41.8719C24.0755 41.8683 24.0864 41.8647 24.099 41.8593C24.1118 41.8538 24.1226 41.8466 24.1353 41.8411C24.1444 41.8375 24.1534 41.8358 24.1606 41.8321L46.9454 30.4397C46.9636 30.4307 46.9762 30.418 46.9943 30.4089C47.0233 30.3927 47.0522 30.3745 47.0793 30.3546C47.1047 30.3365 47.1264 30.3166 47.1499 30.2967C47.1735 30.2768 47.1952 30.2551 47.2151 30.2333C47.2369 30.2098 47.2549 30.1863 47.2749 30.161C47.293 30.1375 47.3111 30.112 47.3274 30.0868C47.3437 30.0614 47.3563 30.0342 47.3709 30.007C47.3854 29.9799 47.398 29.951 47.4089 29.9219C47.4197 29.893 47.4288 29.8641 47.4361 29.8351C47.4432 29.8061 47.4505 29.7771 47.456 29.7463C47.4613 29.712 47.4632 29.6793 47.4667 29.645C47.4686 29.6269 47.4722 29.6087 47.4722 29.5888C47.4722 29.5798 47.4704 29.5708 47.4686 29.5599C47.4667 29.5255 47.4632 29.493 47.4577 29.4585C47.4541 29.4295 47.4505 29.3988 47.4432 29.3698C47.4361 29.3426 47.4269 29.3137 47.4179 29.2866C47.407 29.254 47.3961 29.2196 47.3799 29.1888C47.3762 29.1797 47.3745 29.1707 47.3709 29.1634L35.9766 6.37866C35.9712 6.3678 35.9622 6.36056 35.9567 6.35151C35.9241 6.29177 35.8861 6.23565 35.8409 6.18496C35.83 6.17229 35.821 6.15961 35.8101 6.14875C35.7575 6.09444 35.6978 6.04556 35.6326 6.00393C35.6164 5.99306 35.6001 5.98582 35.5838 5.97677C35.5312 5.94781 35.4752 5.92427 35.4172 5.90436C35.3973 5.89712 35.3774 5.89169 35.3575 5.88625C35.285 5.86815 35.2109 5.85548 35.1348 5.85548C35.1312 5.85548 35.1276 5.85367 35.1276 5.85367C35.1186 5.85367 35.1077 5.85729 35.0987 5.85729C35.0388 5.8591 34.981 5.86453 34.9248 5.8772C34.9068 5.88082 34.8886 5.88987 34.8705 5.8935C34.8217 5.90798 34.7746 5.92427 34.7293 5.94418C34.722 5.94781 34.713 5.94962 34.7058 5.95324C34.6877 5.96229 34.675 5.97496 34.6569 5.98401C34.6279 6.0003 34.599 6.01841 34.5718 6.03832C34.5465 6.05642 34.5248 6.07634 34.5012 6.09625C34.4777 6.11617 34.4559 6.13789 34.436 6.15961C34.4144 6.18315 34.3962 6.20668 34.3763 6.23203C34.3582 6.25556 34.3401 6.28091 34.3239 6.30625C34.3075 6.33159 34.2948 6.35875 34.2803 6.3859C34.2659 6.41306 34.2532 6.44202 34.2424 6.47099C34.2315 6.49996 34.2242 6.52892 34.2152 6.55789C34.208 6.58685 34.2007 6.61582 34.1953 6.64659C34.1898 6.68099 34.1881 6.71357 34.1844 6.74797C34.1826 6.76607 34.1789 6.78418 34.1789 6.80409V27.297L24.4087 17.5267C24.3634 17.4814 24.3145 17.4416 24.262 17.4072C24.2402 17.3927 24.2149 17.3818 24.1914 17.3692C24.1606 17.3529 24.1317 17.3348 24.099 17.3203C24.0683 17.3076 24.0357 17.3004 24.0049 17.2913C23.9778 17.2841 23.9506 17.2732 23.9234 17.2678C23.862 17.2551 23.8004 17.2497 23.7371 17.2497C23.6755 17.2497 23.6121 17.2569 23.5506 17.2678C23.5216 17.2732 23.4962 17.2841 23.4673 17.2913C23.4347 17.3004 23.4039 17.3076 23.3732 17.3203C23.3405 17.3329 23.3116 17.3529 23.2808 17.3692C23.2573 17.3818 23.2338 17.3927 23.2102 17.4072C23.1577 17.4416 23.1088 17.4814 23.0635 17.5267L13.2932 27.297V6.80409C13.2932 6.78418 13.2878 6.76607 13.2878 6.74797C13.286 6.71357 13.2842 6.68099 13.2769 6.64659C13.2715 6.61582 13.2643 6.58685 13.257 6.55789C13.2498 6.52892 13.2407 6.49996 13.2299 6.47099C13.219 6.44202 13.2063 6.41306 13.1918 6.3859C13.1792 6.35875 13.1646 6.3334 13.1484 6.30625C13.1321 6.28091 13.1141 6.25556 13.0959 6.23203C13.0778 6.20668 13.0579 6.18315 13.0362 6.15961C13.0163 6.13789 12.9927 6.11617 12.971 6.09625C12.9475 6.07634 12.9257 6.05642 12.9004 6.03832C12.8733 6.01841 12.8443 6.00211 12.8153 5.98401C12.799 5.97496 12.7845 5.96229 12.7665 5.95324C12.7592 5.94962 12.7501 5.94781 12.7429 5.94418C12.6976 5.92246 12.6506 5.90798 12.6035 5.8935C12.5836 5.88806 12.5655 5.87901 12.5456 5.87539C12.4895 5.86272 12.4333 5.85729 12.3736 5.85548C12.3646 5.85729 12.3537 5.85367 12.3447 5.85367C12.341 5.85367 12.3374 5.85548 12.3374 5.85548C12.2596 5.85548 12.1853 5.86815 12.1147 5.88625C12.0948 5.89169 12.0749 5.89893 12.055 5.90436C11.9971 5.92246 11.9409 5.94781 11.8884 5.97677C11.8722 5.98582 11.8559 5.99306 11.8395 6.00393C11.7744 6.04556 11.7146 6.09263 11.6621 6.14875C11.6513 6.15961 11.6422 6.1741 11.6313 6.18496C11.5861 6.23565 11.5481 6.29177 11.5155 6.35151C11.5101 6.36237 11.501 6.36961 11.4956 6.37866L0.101378 29.1634C0.0977577 29.1725 0.0959473 29.1797 0.0923267 29.1888C0.0778441 29.2196 0.0669821 29.254 0.0543098 29.2866C0.0452581 29.3137 0.0362065 29.3409 0.0289652 29.3698ZM11.95 30.5375L18.927 37.5145L4.97296 30.5375H11.95ZM35.5205 30.5375H42.4974L28.5434 37.5145L35.5205 30.5375ZM36.0762 28.6384V10.8248L44.983 28.6384H36.0762ZM24.6838 38.6875V20.4865L33.7843 29.5871L24.6838 38.6875ZM22.7865 38.6875L13.6861 29.5871L22.7865 20.4865V38.6875ZM2.4874 28.6384L11.3942 10.8248V28.6384H2.4874Z" fill="#A3EC26"/>
</svg>
