<svg width="400" height="400" viewBox="0 0 400 400" fill="none" xmlns="http://www.w3.org/2000/svg">
<path d="M307.704 89.108C268.348 52.4 189.344 70.24 129.792 129.792C70.2399 189.344 52.4 268.34 89.1079 307.7C89.6119 308.256 90.1359 308.792 90.6679 309.332C91.1999 309.872 91.7479 310.384 92.2999 310.896" stroke="white" stroke-width="4" stroke-miterlimit="10"/>
<path d="M284.6 118.156C312.3 148.132 298.692 208.048 253.508 253.224C208.324 298.4 148.4 312 118.44 284.312C117.968 283.876 117.5 283.42 117.036 282.96C116.572 282.5 116.128 282.032 115.684 281.56" stroke="white" stroke-width="4" stroke-miterlimit="10"/>
<path d="M92.3 310.896C131.656 347.6 210.656 329.756 270.208 270.204C329.76 210.652 347.6 131.656 310.892 92.296C310.38 91.748 309.864 91.204 309.332 90.672C308.8 90.14 308.26 89.616 307.704 89.108C273.024 57.064 203.704 72.808 151.444 125.08C147.177 129.347 143.153 133.72 139.372 138.2C96.82 188.556 86 249.776 115.684 281.56C88 251.6 101.6 191.672 146.776 146.488C191.952 101.304 251.868 87.688 281.844 115.4C282.32 115.844 282.784 116.292 283.248 116.752C283.712 117.212 284.156 117.68 284.6 118.156C314.116 149.756 303.648 210.404 261.8 260.628C257.749 265.489 253.416 270.239 248.8 274.876C196.444 327.22 127.024 342.992 92.3 310.896Z" stroke="white" stroke-width="4" stroke-miterlimit="10"/>
</svg>
