<svg width="21" height="24" viewBox="0 0 21 24" fill="none" xmlns="http://www.w3.org/2000/svg">
<g clip-path="url(#clip0_527_52)">
<path d="M18.5129 0H2.4564C1.10239 0 0 1.10239 0 2.46838V18.6687C0 20.0347 1.10239 21.137 2.4564 21.137H16.0445L15.4094 18.9203L16.9432 20.3462L18.3931 21.6882L20.9693 23.9649V2.46838C20.9693 1.10239 19.8669 0 18.5129 0ZM13.8877 15.6491C13.8877 15.6491 13.4563 15.1338 13.0968 14.6785C14.6665 14.2351 15.2656 13.2526 15.2656 13.2526C14.7744 13.5761 14.307 13.8038 13.8877 13.9596C13.2885 14.2112 12.7134 14.3789 12.1502 14.4748C10.9999 14.6905 9.94543 14.6306 9.04675 14.4628C8.36375 14.331 7.77661 14.1393 7.28533 13.9476C7.00973 13.8397 6.71017 13.7079 6.41061 13.5402C6.37466 13.5162 6.33872 13.5042 6.30277 13.4803C6.2788 13.4683 6.26682 13.4563 6.25484 13.4443C6.03915 13.3245 5.91933 13.2406 5.91933 13.2406C5.91933 13.2406 6.49449 14.1992 8.01626 14.6545C7.65678 15.1099 7.21343 15.6491 7.21343 15.6491C4.56531 15.5652 3.55879 13.8277 3.55879 13.8277C3.55879 9.9694 5.28426 6.84198 5.28426 6.84198C7.00973 5.54787 8.65133 5.58382 8.65133 5.58382L8.77115 5.72761C6.61431 6.3507 5.61977 7.29731 5.61977 7.29731C5.61977 7.29731 5.88338 7.15352 6.32673 6.94982C7.60885 6.38664 8.62736 6.23087 9.04675 6.19493C9.11864 6.18294 9.17856 6.17096 9.25045 6.17096C9.98138 6.0751 10.8082 6.05114 11.6709 6.147C12.8092 6.2788 14.0314 6.61431 15.2776 7.29731C15.2776 7.29731 14.331 6.39863 12.294 5.77554L12.4617 5.58382C12.4617 5.58382 14.1033 5.54787 15.8288 6.84198C15.8288 6.84198 17.5543 9.9694 17.5543 13.8277C17.5543 13.8277 16.5358 15.5652 13.8877 15.6491ZM8.31582 10.0533C7.63282 10.0533 7.09361 10.6524 7.09361 11.3833C7.09361 12.1143 7.6448 12.7134 8.31582 12.7134C8.99882 12.7134 9.53803 12.1143 9.53803 11.3833C9.55001 10.6524 8.99882 10.0533 8.31582 10.0533ZM12.6894 10.0533C12.0064 10.0533 11.4672 10.6524 11.4672 11.3833C11.4672 12.1143 12.0184 12.7134 12.6894 12.7134C13.3724 12.7134 13.9116 12.1143 13.9116 11.3833C13.9116 10.6524 13.3724 10.0533 12.6894 10.0533Z" fill="#5E5D6A"/>
</g>
<defs>
<clipPath id="clip0_527_52">
<rect width="20.9693" height="24" fill="#5E5D6A"/>
</clipPath>
</defs>
</svg>
