<?xml version="1.0" standalone="no"?>
<!DOCTYPE svg PUBLIC "-//W3C//DTD SVG 20010904//EN"
 "http://www.w3.org/TR/2001/REC-SVG-20010904/DTD/svg10.dtd">
<svg version="1.0" xmlns="http://www.w3.org/2000/svg"
 width="700.000000pt" height="700.000000pt" viewBox="0 0 700.000000 700.000000"
 preserveAspectRatio="xMidYMid meet">
<metadata>
Created by potrace 1.14, written by Peter Selinger 2001-2017
</metadata>
<g transform="translate(0.000000,700.000000) scale(0.100000,-0.100000)"
fill="#000000" stroke="none">
<path d="M1697 5580 c-217 -69 -341 -298 -280 -515 83 -290 439 -398 677 -205
44 35 107 135 126 199 54 182 -15 368 -174 472 -71 47 -117 60 -216 65 -53 2
-92 -3 -133 -16z"/>
<path d="M3369 5577 c-273 -93 -375 -424 -201 -652 136 -180 400 -216 584 -80
102 75 159 189 163 324 3 100 -18 173 -73 252 -104 148 -303 214 -473 156z"/>
<path d="M5057 5580 c-275 -87 -383 -417 -213 -649 74 -101 188 -161 316 -167
235 -11 426 162 436 393 6 131 -36 237 -129 326 -80 77 -154 108 -272 113 -58
2 -96 -2 -138 -16z"/>
<path d="M1689 3897 c-170 -58 -278 -203 -285 -382 -6 -182 98 -341 268 -407
74 -30 202 -32 277 -7 180 62 296 231 287 419 -5 108 -39 187 -113 271 -98
110 -288 156 -434 106z"/>
<path d="M3375 3900 c-119 -38 -221 -134 -267 -250 -41 -104 -31 -249 25 -356
21 -40 94 -116 142 -147 140 -91 335 -85 472 16 114 84 172 205 169 348 -5
176 -106 318 -270 382 -73 28 -195 31 -271 7z"/>
<path d="M5057 3900 c-277 -88 -384 -424 -209 -655 81 -107 203 -164 343 -160
99 2 170 26 244 83 216 164 215 507 -3 667 -105 77 -256 103 -375 65z"/>
<path d="M1697 2220 c-126 -40 -233 -144 -275 -268 -24 -72 -23 -203 2 -272
60 -164 202 -267 376 -276 170 -8 320 79 394 230 36 74 45 118 42 205 -7 170
-108 311 -266 372 -77 30 -197 34 -273 9z"/>
<path d="M3378 2221 c-139 -45 -238 -148 -286 -297 -16 -51 -8 -192 15 -251
63 -161 202 -261 373 -269 250 -12 446 183 436 434 -7 170 -109 313 -270 375
-72 28 -194 31 -268 8z"/>
<path d="M5057 2220 c-126 -40 -233 -144 -275 -268 -26 -78 -23 -204 6 -279
61 -159 206 -263 375 -269 126 -5 231 36 314 123 215 222 133 582 -157 689
-68 25 -193 27 -263 4z"/>
</g>
</svg>
