<?xml version="1.0" standalone="no"?>
<!DOCTYPE svg PUBLIC "-//W3C//DTD SVG 20010904//EN"
 "http://www.w3.org/TR/2001/REC-SVG-20010904/DTD/svg10.dtd">
<svg version="1.0" xmlns="http://www.w3.org/2000/svg"
 width="400.000000pt" height="400.000000pt" viewBox="0 0 400.000000 400.000000"
 preserveAspectRatio="xMidYMid meet">
<metadata>
Created by potrace 1.14, written by Peter Selinger 2001-2017
</metadata>
<g transform="translate(0.000000,400.000000) scale(0.100000,-0.100000)"
fill="#000000" stroke="none">
<path d="M1780 3989 c-346 -39 -701 -179 -980 -388 -92 -69 -273 -242 -350
-336 -377 -459 -528 -1076 -409 -1670 21 -105 106 -375 118 -375 4 0 416 427
915 950 499 522 911 952 916 955 4 3 268 -263 585 -591 l576 -596 -23 -28
c-13 -16 -275 -299 -583 -628 l-559 -600 -88 82 c-48 44 -88 83 -88 86 0 3
225 248 500 544 l500 539 -62 66 c-34 36 -217 227 -407 424 l-346 359 -80 -84
c-658 -685 -1631 -1702 -1633 -1709 -11 -28 143 -233 278 -373 180 -186 347
-307 571 -416 619 -298 1334 -261 1924 100 162 99 367 280 495 435 142 174
275 418 349 640 204 616 93 1302 -298 1825 -69 92 -242 273 -336 350 -234 191
-568 351 -860 409 -199 40 -437 51 -625 30z"/>
</g>
</svg>
