<svg width="40" height="31" viewBox="0 0 40 31" fill="none" xmlns="http://www.w3.org/2000/svg">
<path d="M33.9469 3.16547C31.4329 2.01192 28.7369 1.16203 25.9181 0.67526C25.8668 0.665865 25.8155 0.689342 25.7891 0.736298C25.4424 1.35297 25.0583 2.15747 24.7894 2.7898C21.7576 2.33592 18.7414 2.33592 15.7718 2.7898C15.5028 2.14342 15.1048 1.35297 14.7565 0.736298C14.73 0.690909 14.6788 0.667432 14.6274 0.67526C11.8102 1.16047 9.11426 2.01036 6.59865 3.16547C6.57687 3.17486 6.55821 3.19053 6.54582 3.21086C1.43218 10.8505 0.0313414 18.3024 0.718546 25.6619C0.721656 25.6979 0.741867 25.7324 0.769854 25.7542C4.14369 28.2319 7.41182 29.7361 10.6193 30.7331C10.6706 30.7488 10.725 30.73 10.7577 30.6877C11.5164 29.6516 12.1927 28.5591 12.7726 27.4102C12.8068 27.3429 12.7742 27.2631 12.7042 27.2365C11.6314 26.8295 10.6099 26.3334 9.62732 25.7699C9.5496 25.7245 9.54338 25.6134 9.61487 25.5601C9.82165 25.4052 10.0285 25.244 10.2259 25.0812C10.2617 25.0515 10.3114 25.0452 10.3534 25.064C16.8088 28.0113 23.7974 28.0113 30.1766 25.064C30.2186 25.0436 30.2684 25.0499 30.3057 25.0796C30.5032 25.2424 30.7099 25.4052 30.9183 25.5601C30.9898 25.6134 30.9851 25.7245 30.9074 25.7699C29.9248 26.3443 28.9033 26.8295 27.8289 27.2349C27.759 27.2615 27.7279 27.3429 27.7621 27.4102C28.3544 28.5575 29.0308 29.65 29.7755 30.6861C29.8066 30.73 29.8625 30.7488 29.9139 30.7331C33.1369 29.7361 36.405 28.2319 39.7788 25.7542C39.8084 25.7324 39.827 25.6995 39.8302 25.6635C40.6526 17.1551 38.4526 9.7643 33.9982 3.21242C33.9873 3.19053 33.9687 3.17486 33.9469 3.16547ZM13.7366 21.1807C11.7931 21.1807 10.1917 19.3965 10.1917 17.2052C10.1917 15.0139 11.762 13.2296 13.7366 13.2296C15.7267 13.2296 17.3125 15.0296 17.2814 17.2052C17.2814 19.3965 15.7111 21.1807 13.7366 21.1807ZM26.8432 21.1807C24.8998 21.1807 23.2984 19.3965 23.2984 17.2052C23.2984 15.0139 24.8687 13.2296 26.8432 13.2296C28.8333 13.2296 30.4192 15.0296 30.3881 17.2052C30.3881 19.3965 28.8333 21.1807 26.8432 21.1807Z" fill="white"/>
</svg>

