<svg width="24" height="24" viewBox="0 0 24 24" fill="none" xmlns="http://www.w3.org/2000/svg">
<path d="M4.98796 11.4269C4.98794 11.2928 5.01439 11.1601 5.06579 11.0363C5.11719 10.9126 5.19253 10.8002 5.28749 10.7056C5.38244 10.6111 5.49513 10.5362 5.61909 10.4853C5.74306 10.4345 5.87584 10.4086 6.00982 10.4092L7.70397 10.4148C7.97409 10.4148 8.23315 10.5221 8.42416 10.7132C8.61517 10.9043 8.72248 11.1634 8.72248 11.4336V17.842C8.91332 17.7854 9.15808 17.7251 9.42621 17.6622C9.61238 17.6183 9.7783 17.5129 9.89706 17.3629C10.0158 17.213 10.0805 17.0273 10.0805 16.8359V8.88695C10.0805 8.75313 10.1068 8.62062 10.158 8.49699C10.2092 8.37335 10.2842 8.26101 10.3788 8.16638C10.4734 8.07174 10.5857 7.99667 10.7093 7.94545C10.8329 7.89423 10.9653 7.86786 11.0991 7.86785H12.7966C13.0667 7.8679 13.3258 7.97526 13.5168 8.16632C13.7078 8.35738 13.8151 8.61651 13.8151 8.88671V16.2647C13.8151 16.2647 14.2399 16.0926 14.6541 15.9178C14.8078 15.8527 14.9391 15.7438 15.0313 15.6046C15.1236 15.4654 15.1729 15.3021 15.1731 15.1351V6.33937C15.1731 6.20557 15.1994 6.07309 15.2506 5.94947C15.3018 5.82586 15.3768 5.71354 15.4713 5.61893C15.5659 5.52432 15.6782 5.44927 15.8018 5.39807C15.9253 5.34687 16.0578 5.32051 16.1915 5.32051H17.889C18.1591 5.32051 18.4182 5.42785 18.6092 5.61892C18.8002 5.80999 18.9076 6.06914 18.9076 6.33937V13.5822C20.3793 12.5153 21.8708 11.2319 23.0544 9.68891C23.2262 9.46493 23.3398 9.20191 23.3852 8.92331C23.4306 8.64472 23.4064 8.35921 23.3146 8.09227C22.5138 5.75751 21.0116 3.72718 19.0134 2.27891C17.0152 0.830631 14.6186 0.0350992 12.1513 0.0010879C5.49799 -0.0883183 -0.000596003 5.34462 5.75697e-05 12.001C-0.00647515 14.1073 0.543075 16.1779 1.59314 18.0036C1.73795 18.2533 1.951 18.4565 2.20724 18.5893C2.46349 18.7221 2.7523 18.779 3.03974 18.7533C3.36089 18.725 3.76072 18.685 4.23603 18.6292C4.44291 18.6057 4.63391 18.5068 4.77264 18.3515C4.91138 18.1962 4.98816 17.9952 4.98837 17.787V11.4269" fill="white"/>
<path d="M4.95125 21.7043C6.74057 23.0064 8.85509 23.788 11.0609 23.9626C13.2667 24.1372 15.4778 23.698 17.4495 22.6935C19.4213 21.6891 21.0768 20.1586 22.233 18.2714C23.3892 16.3842 24.001 14.2138 24.0006 12.0003C24.0006 11.724 23.9878 11.4508 23.9693 11.1791C19.587 17.717 11.4954 20.7735 4.95117 21.7046" fill="white"/>
</svg>
