<svg width="38" height="31" viewBox="0 0 38 31" fill="none" xmlns="http://www.w3.org/2000/svg">
<path d="M37.3333 1.00001C35.7373 2.1258 33.9701 2.98685 32.1 3.55001C31.0962 2.39586 29.7622 1.57783 28.2784 1.20655C26.7945 0.835273 25.2325 0.928665 23.8034 1.47409C22.3744 2.01952 21.1474 2.99067 20.2883 4.2562C19.4292 5.52173 18.9795 7.02057 19 8.55001V10.2167C16.071 10.2926 13.1687 9.64303 10.5516 8.32575C7.93453 7.00847 5.68382 5.0644 3.99996 2.66667C3.99996 2.66667 -2.66671 17.6667 12.3333 24.3333C8.90084 26.6633 4.81189 27.8316 0.666626 27.6667C15.6666 36 34 27.6667 34 8.5C33.9984 8.03576 33.9538 7.57266 33.8666 7.11667C35.5676 5.43916 36.768 3.32119 37.3333 1.00001Z" fill="white"/>
</svg>
