<svg width="400" height="400" viewBox="0 0 400 400" fill="none" xmlns="http://www.w3.org/2000/svg">
<path d="M101.504 232.948L104.696 240.984L115.948 214.068L101.504 232.948Z" stroke="white" stroke-width="2" stroke-linecap="round" stroke-linejoin="round"/>
<path d="M112.652 206.852L101.504 232.948L115.948 214.068L112.652 206.852Z" stroke="white" stroke-width="2" stroke-linecap="round" stroke-linejoin="round"/>
<path d="M95.5 217.816L98.44 225.232L109.488 199.912L95.5 217.816Z" stroke="white" stroke-width="2" stroke-linecap="round" stroke-linejoin="round"/>
<path d="M109.488 199.912L98.4399 225.232L112.652 206.852L109.488 199.912Z" stroke="white" stroke-width="2" stroke-linecap="round" stroke-linejoin="round"/>
<path d="M115.948 214.068L104.696 240.984L119.372 221.58L115.948 214.068Z" stroke="white" stroke-width="2" stroke-linecap="round" stroke-linejoin="round"/>
<path d="M192.5 176.284L199.7 154.328L176.568 154.916L192.5 176.284Z" stroke="white" stroke-width="2" stroke-linecap="round" stroke-linejoin="round"/>
<path d="M111.384 258.316L140.24 255.112L122.796 229.7L111.384 258.316Z" stroke="white" stroke-width="2" stroke-linecap="round" stroke-linejoin="round"/>
<path d="M122.796 229.7L140.24 255.112L150.316 227.328L122.796 229.7Z" stroke="white" stroke-width="2" stroke-linecap="round" stroke-linejoin="round"/>
<path d="M140.24 255.112L167.716 251.864L150.316 227.328L140.24 255.112Z" stroke="white" stroke-width="2" stroke-linecap="round" stroke-linejoin="round"/>
<path d="M108.02 249.36L111.384 258.316L122.796 229.7L108.02 249.36Z" stroke="white" stroke-width="2" stroke-linecap="round" stroke-linejoin="round"/>
<path d="M119.372 221.58L108.02 249.36L122.796 229.7L119.372 221.58Z" stroke="white" stroke-width="2" stroke-linecap="round" stroke-linejoin="round"/>
<path d="M104.696 240.984L108.02 249.36L119.372 221.58L104.696 240.984Z" stroke="white" stroke-width="2" stroke-linecap="round" stroke-linejoin="round"/>
<path d="M136.108 165.84L132.676 159.992L123.016 182.596L136.108 165.84Z" stroke="white" stroke-width="2" stroke-linecap="round" stroke-linejoin="round"/>
<path d="M157.296 128.796L145.176 144.152L148.784 149.616L157.296 128.796Z" stroke="white" stroke-width="2" stroke-linecap="round" stroke-linejoin="round"/>
<path d="M184.204 133.852L169.02 113.768L161.012 133.932L184.204 133.852Z" stroke="white" stroke-width="2" stroke-linecap="round" stroke-linejoin="round"/>
<path d="M161.012 133.932L157.296 128.796L148.784 149.616L161.012 133.932Z" stroke="white" stroke-width="2" stroke-linecap="round" stroke-linejoin="round"/>
<path d="M169.02 113.768L157.296 128.796L161.012 133.932L169.02 113.768Z" stroke="white" stroke-width="2" stroke-linecap="round" stroke-linejoin="round"/>
<path d="M106.44 193.232L95.5 217.816L109.488 199.912L106.44 193.232Z" stroke="white" stroke-width="2" stroke-linecap="round" stroke-linejoin="round"/>
<path d="M176.568 154.916L184.204 133.852L161.012 133.932L176.568 154.916Z" stroke="white" stroke-width="2" stroke-linecap="round" stroke-linejoin="round"/>
<path d="M199.7 154.328L184.204 133.852L176.568 154.916L199.7 154.328Z" stroke="white" stroke-width="2" stroke-linecap="round" stroke-linejoin="round"/>
<path d="M148.784 149.616L145.176 144.152L136.108 165.84L148.784 149.616Z" stroke="white" stroke-width="2" stroke-linecap="round" stroke-linejoin="round"/>
<path d="M119.768 176.344L106.44 193.232L109.488 199.912L119.768 176.344Z" stroke="white" stroke-width="2" stroke-linecap="round" stroke-linejoin="round"/>
<path d="M123.016 182.596L119.768 176.344L109.488 199.912L123.016 182.596Z" stroke="white" stroke-width="2" stroke-linecap="round" stroke-linejoin="round"/>
<path d="M132.676 159.992L119.768 176.344L123.016 182.596L132.676 159.992Z" stroke="white" stroke-width="2" stroke-linecap="round" stroke-linejoin="round"/>
<path d="M145.176 144.152L132.676 159.992L136.108 165.84L145.176 144.152Z" stroke="white" stroke-width="2" stroke-linecap="round" stroke-linejoin="round"/>
<path d="M98.4399 225.232L101.504 232.948L112.652 206.852L98.4399 225.232Z" stroke="white" stroke-width="2" stroke-linecap="round" stroke-linejoin="round"/>
<path d="M206.452 133.736L191.372 114.084L184.204 133.852L206.452 133.736Z" stroke="white" stroke-width="2" stroke-linecap="round" stroke-linejoin="round"/>
<path d="M199.7 154.328L206.452 133.736L184.204 133.852L199.7 154.328Z" stroke="white" stroke-width="2" stroke-linecap="round" stroke-linejoin="round"/>
<path d="M184.204 133.852L191.372 114.084L169.02 113.768L184.204 133.852Z" stroke="white" stroke-width="2" stroke-linecap="round" stroke-linejoin="round"/>
<path d="M215.5 175.208L221.816 153.764L199.7 154.328L215.5 175.208Z" stroke="white" stroke-width="2" stroke-linecap="round" stroke-linejoin="round"/>
<path d="M191.372 114.084L176.608 94.796L169.02 113.768L191.372 114.084Z" stroke="white" stroke-width="2" stroke-linecap="round" stroke-linejoin="round"/>
<path d="M237.48 174.176L221.816 153.764L215.5 175.208L237.48 174.176Z" stroke="white" stroke-width="2" stroke-linecap="round" stroke-linejoin="round"/>
<path d="M221.816 153.764L206.452 133.736L199.7 154.328L221.816 153.764Z" stroke="white" stroke-width="2" stroke-linecap="round" stroke-linejoin="round"/>
<path d="M157.296 128.796L153.656 123.868L145.176 144.152L157.296 128.796Z" stroke="white" stroke-width="2" stroke-linecap="round" stroke-linejoin="round"/>
<path d="M153.656 123.868L141.696 138.876L145.176 144.152L153.656 123.868Z" stroke="white" stroke-width="2" stroke-linecap="round" stroke-linejoin="round"/>
<path d="M165.26 109.304L153.656 123.868L157.296 128.796L165.26 109.304Z" stroke="white" stroke-width="2" stroke-linecap="round" stroke-linejoin="round"/>
<path d="M176.608 94.796L165.26 109.304L169.02 113.768L176.608 94.796Z" stroke="white" stroke-width="2" stroke-linecap="round" stroke-linejoin="round"/>
<path d="M169.02 113.768L165.26 109.304L157.296 128.796L169.02 113.768Z" stroke="white" stroke-width="2" stroke-linecap="round" stroke-linejoin="round"/>
<path d="M269.728 216.204L253.448 194.984L248.048 218.22L269.728 216.204Z" stroke="white" stroke-width="2" stroke-linecap="round" stroke-linejoin="round"/>
<path d="M193.812 248.78L218.636 245.844L201.544 222.556L193.812 248.78Z" stroke="white" stroke-width="2" stroke-linecap="round" stroke-linejoin="round"/>
<path d="M201.544 222.556L218.636 245.844L225.344 220.336L201.544 222.556Z" stroke="white" stroke-width="2" stroke-linecap="round" stroke-linejoin="round"/>
<path d="M218.636 245.844L242.276 243.048L225.344 220.336L218.636 245.844Z" stroke="white" stroke-width="2" stroke-linecap="round" stroke-linejoin="round"/>
<path d="M225.344 220.336L242.276 243.048L248.048 218.22L225.344 220.336Z" stroke="white" stroke-width="2" stroke-linecap="round" stroke-linejoin="round"/>
<path d="M176.564 224.88L193.812 248.78L201.544 222.556L176.564 224.88Z" stroke="white" stroke-width="2" stroke-linecap="round" stroke-linejoin="round"/>
<path d="M167.716 251.864L193.812 248.78L176.564 224.88L167.716 251.864Z" stroke="white" stroke-width="2" stroke-linecap="round" stroke-linejoin="round"/>
<path d="M231.612 196.5L237.48 174.176L215.5 175.208L231.612 196.5Z" stroke="white" stroke-width="2" stroke-linecap="round" stroke-linejoin="round"/>
<path d="M242.276 243.048L264.816 240.384L248.048 218.22L242.276 243.048Z" stroke="white" stroke-width="2" stroke-linecap="round" stroke-linejoin="round"/>
<path d="M248.048 218.22L253.448 194.984L231.612 196.5L248.048 218.22Z" stroke="white" stroke-width="2" stroke-linecap="round" stroke-linejoin="round"/>
<path d="M253.448 194.984L237.48 174.176L231.612 196.5L253.448 194.984Z" stroke="white" stroke-width="2" stroke-linecap="round" stroke-linejoin="round"/>
<path d="M150.316 227.328L167.716 251.864L176.564 224.88L150.316 227.328Z" stroke="white" stroke-width="2" stroke-linecap="round" stroke-linejoin="round"/>
<path d="M264.816 240.384L269.728 216.204L248.048 218.22L264.816 240.384Z" stroke="white" stroke-width="2" stroke-linecap="round" stroke-linejoin="round"/>
<path d="M323.64 256.956L306.888 235.408L303.264 259.908L323.64 256.956Z" stroke="white" stroke-width="2" stroke-linecap="round" stroke-linejoin="round"/>
<path d="M126.392 189.088L129.896 195.832L139.676 171.908L126.392 189.088Z" stroke="white" stroke-width="2" stroke-linecap="round" stroke-linejoin="round"/>
<path d="M168.408 177.416L152.448 155.4L143.248 178.432L168.408 177.416Z" stroke="white" stroke-width="2" stroke-linecap="round" stroke-linejoin="round"/>
<path d="M208.756 198.088L192.5 176.284L184.804 199.748L208.756 198.088Z" stroke="white" stroke-width="2" stroke-linecap="round" stroke-linejoin="round"/>
<path d="M152.448 155.4L139.676 171.908L143.248 178.432L152.448 155.4Z" stroke="white" stroke-width="2" stroke-linecap="round" stroke-linejoin="round"/>
<path d="M248.048 218.22L231.612 196.5L225.344 220.336L248.048 218.22Z" stroke="white" stroke-width="2" stroke-linecap="round" stroke-linejoin="round"/>
<path d="M109.488 199.912L112.652 206.852L123.016 182.596L109.488 199.912Z" stroke="white" stroke-width="2" stroke-linecap="round" stroke-linejoin="round"/>
<path d="M92.668 210.684L95.5 217.816L106.44 193.232L92.668 210.684Z" stroke="white" stroke-width="2" stroke-linecap="round" stroke-linejoin="round"/>
<path d="M159.68 201.492L184.804 199.748L168.408 177.416L159.68 201.492Z" stroke="white" stroke-width="2" stroke-linecap="round" stroke-linejoin="round"/>
<path d="M143.248 178.432L159.68 201.492L168.408 177.416L143.248 178.432Z" stroke="white" stroke-width="2" stroke-linecap="round" stroke-linejoin="round"/>
<path d="M139.676 171.908L129.896 195.832L143.248 178.432L139.676 171.908Z" stroke="white" stroke-width="2" stroke-linecap="round" stroke-linejoin="round"/>
<path d="M129.896 195.832L133.428 203.064L143.248 178.432L129.896 195.832Z" stroke="white" stroke-width="2" stroke-linecap="round" stroke-linejoin="round"/>
<path d="M133.428 203.064L159.68 201.492L143.248 178.432L133.428 203.064Z" stroke="white" stroke-width="2" stroke-linecap="round" stroke-linejoin="round"/>
<path d="M340.724 278.932L323.64 256.956L320.54 282.42L340.724 278.932Z" stroke="white" stroke-width="2" stroke-linecap="round" stroke-linejoin="round"/>
<path d="M184.804 199.748L192.5 176.284L168.408 177.416L184.804 199.748Z" stroke="white" stroke-width="2" stroke-linecap="round" stroke-linejoin="round"/>
<path d="M59.2761 232.072L61.4441 239.584L73.5241 214.356L59.2761 232.072Z" stroke="white" stroke-width="2" stroke-linecap="round" stroke-linejoin="round"/>
<path d="M299.396 286.076L320.54 282.42L303.264 259.908L299.396 286.076Z" stroke="white" stroke-width="2" stroke-linecap="round" stroke-linejoin="round"/>
<path d="M75.9319 221.404L78.4279 228.728L89.9439 203.82L75.9319 221.404Z" stroke="white" stroke-width="2" stroke-linecap="round" stroke-linejoin="round"/>
<path d="M71.036 272.784L86.544 252.508L83.728 244.26L71.036 272.784Z" stroke="white" stroke-width="2" stroke-linecap="round" stroke-linejoin="round"/>
<path d="M320.54 282.42L323.64 256.956L303.264 259.908L320.54 282.42Z" stroke="white" stroke-width="2" stroke-linecap="round" stroke-linejoin="round"/>
<path d="M286.332 237.84L269.728 216.204L264.816 240.384L286.332 237.84Z" stroke="white" stroke-width="2" stroke-linecap="round" stroke-linejoin="round"/>
<path d="M145.176 144.152L141.696 138.876L132.676 159.992L145.176 144.152Z" stroke="white" stroke-width="2" stroke-linecap="round" stroke-linejoin="round"/>
<path d="M231.612 196.5L215.5 175.208L208.756 198.088L231.612 196.5Z" stroke="white" stroke-width="2" stroke-linecap="round" stroke-linejoin="round"/>
<path d="M176.564 224.88L201.544 222.556L184.804 199.748L176.564 224.88Z" stroke="white" stroke-width="2" stroke-linecap="round" stroke-linejoin="round"/>
<path d="M150.316 227.328L176.564 224.88L159.68 201.492L150.316 227.328Z" stroke="white" stroke-width="2" stroke-linecap="round" stroke-linejoin="round"/>
<path d="M159.68 201.492L176.564 224.88L184.804 199.748L159.68 201.492Z" stroke="white" stroke-width="2" stroke-linecap="round" stroke-linejoin="round"/>
<path d="M133.428 203.064L150.316 227.328L159.68 201.492L133.428 203.064Z" stroke="white" stroke-width="2" stroke-linecap="round" stroke-linejoin="round"/>
<path d="M122.796 229.7L150.316 227.328L133.428 203.064L122.796 229.7Z" stroke="white" stroke-width="2" stroke-linecap="round" stroke-linejoin="round"/>
<path d="M129.896 195.832L119.372 221.58L133.428 203.064L129.896 195.832Z" stroke="white" stroke-width="2" stroke-linecap="round" stroke-linejoin="round"/>
<path d="M119.372 221.58L122.796 229.7L133.428 203.064L119.372 221.58Z" stroke="white" stroke-width="2" stroke-linecap="round" stroke-linejoin="round"/>
<path d="M184.804 199.748L201.544 222.556L208.756 198.088L184.804 199.748Z" stroke="white" stroke-width="2" stroke-linecap="round" stroke-linejoin="round"/>
<path d="M208.756 198.088L215.5 175.208L192.5 176.284L208.756 198.088Z" stroke="white" stroke-width="2" stroke-linecap="round" stroke-linejoin="round"/>
<path d="M215.5 175.208L199.7 154.328L192.5 176.284L215.5 175.208Z" stroke="white" stroke-width="2" stroke-linecap="round" stroke-linejoin="round"/>
<path d="M192.5 176.284L176.568 154.916L168.408 177.416L192.5 176.284Z" stroke="white" stroke-width="2" stroke-linecap="round" stroke-linejoin="round"/>
<path d="M201.544 222.556L225.344 220.336L208.756 198.088L201.544 222.556Z" stroke="white" stroke-width="2" stroke-linecap="round" stroke-linejoin="round"/>
<path d="M225.344 220.336L231.612 196.5L208.756 198.088L225.344 220.336Z" stroke="white" stroke-width="2" stroke-linecap="round" stroke-linejoin="round"/>
<path d="M161.012 133.932L148.784 149.616L152.448 155.4L161.012 133.932Z" stroke="white" stroke-width="2" stroke-linecap="round" stroke-linejoin="round"/>
<path d="M152.448 155.4L148.784 149.616L139.676 171.908L152.448 155.4Z" stroke="white" stroke-width="2" stroke-linecap="round" stroke-linejoin="round"/>
<path d="M176.568 154.916L161.012 133.932L152.448 155.4L176.568 154.916Z" stroke="white" stroke-width="2" stroke-linecap="round" stroke-linejoin="round"/>
<path d="M148.784 149.616L136.108 165.84L139.676 171.908L148.784 149.616Z" stroke="white" stroke-width="2" stroke-linecap="round" stroke-linejoin="round"/>
<path d="M168.408 177.416L176.568 154.916L152.448 155.4L168.408 177.416Z" stroke="white" stroke-width="2" stroke-linecap="round" stroke-linejoin="round"/>
<path d="M112.652 206.852L115.948 214.068L126.392 189.088L112.652 206.852Z" stroke="white" stroke-width="2" stroke-linecap="round" stroke-linejoin="round"/>
<path d="M126.392 189.088L115.948 214.068L129.896 195.832L126.392 189.088Z" stroke="white" stroke-width="2" stroke-linecap="round" stroke-linejoin="round"/>
<path d="M115.948 214.068L119.372 221.58L129.896 195.832L115.948 214.068Z" stroke="white" stroke-width="2" stroke-linecap="round" stroke-linejoin="round"/>
<path d="M123.016 182.596L112.652 206.852L126.392 189.088L123.016 182.596Z" stroke="white" stroke-width="2" stroke-linecap="round" stroke-linejoin="round"/>
<path d="M139.676 171.908L136.108 165.84L126.392 189.088L139.676 171.908Z" stroke="white" stroke-width="2" stroke-linecap="round" stroke-linejoin="round"/>
<path d="M136.108 165.84L123.016 182.596L126.392 189.088L136.108 165.84Z" stroke="white" stroke-width="2" stroke-linecap="round" stroke-linejoin="round"/>
<path d="M86.544 252.508L73.688 281.972L89.476 261.104L86.544 252.508Z" stroke="white" stroke-width="2" stroke-linecap="round" stroke-linejoin="round"/>
<path d="M89.9439 203.82L87.3199 197.208L75.9319 221.404L89.9439 203.82Z" stroke="white" stroke-width="2" stroke-linecap="round" stroke-linejoin="round"/>
<path d="M87.32 197.208L73.524 214.356L75.932 221.404L87.32 197.208Z" stroke="white" stroke-width="2" stroke-linecap="round" stroke-linejoin="round"/>
<path d="M113.62 164.512L100.676 180.6L103.504 186.8L113.62 164.512Z" stroke="white" stroke-width="2" stroke-linecap="round" stroke-linejoin="round"/>
<path d="M103.504 186.8L100.676 180.6L89.9439 203.82L103.504 186.8Z" stroke="white" stroke-width="2" stroke-linecap="round" stroke-linejoin="round"/>
<path d="M100.676 180.6L87.3199 197.208L89.9439 203.82L100.676 180.6Z" stroke="white" stroke-width="2" stroke-linecap="round" stroke-linejoin="round"/>
<path d="M61.444 239.584L63.7 247.392L75.932 221.404L61.444 239.584Z" stroke="white" stroke-width="2" stroke-linecap="round" stroke-linejoin="round"/>
<path d="M73.524 214.356L61.444 239.584L75.932 221.404L73.524 214.356Z" stroke="white" stroke-width="2" stroke-linecap="round" stroke-linejoin="round"/>
<path d="M66.044 255.512L68.488 263.972L81.028 236.34L66.044 255.512Z" stroke="white" stroke-width="2" stroke-linecap="round" stroke-linejoin="round"/>
<path d="M81.028 236.34L68.488 263.972L83.728 244.26L81.028 236.34Z" stroke="white" stroke-width="2" stroke-linecap="round" stroke-linejoin="round"/>
<path d="M78.428 228.728L66.044 255.512L81.028 236.34L78.428 228.728Z" stroke="white" stroke-width="2" stroke-linecap="round" stroke-linejoin="round"/>
<path d="M63.7 247.392L66.044 255.512L78.428 228.728L63.7 247.392Z" stroke="white" stroke-width="2" stroke-linecap="round" stroke-linejoin="round"/>
<path d="M75.932 221.404L63.7 247.392L78.428 228.728L75.932 221.404Z" stroke="white" stroke-width="2" stroke-linecap="round" stroke-linejoin="round"/>
<path d="M183.684 76.948L172.732 91.024L176.608 94.796L183.684 76.948Z" stroke="white" stroke-width="2" stroke-linecap="round" stroke-linejoin="round"/>
<path d="M165.26 109.304L161.604 104.86L153.656 123.868L165.26 109.304Z" stroke="white" stroke-width="2" stroke-linecap="round" stroke-linejoin="round"/>
<path d="M172.732 91.024L161.604 104.86L165.26 109.304L172.732 91.024Z" stroke="white" stroke-width="2" stroke-linecap="round" stroke-linejoin="round"/>
<path d="M153.656 123.868L150.144 119.108L141.696 138.876L153.656 123.868Z" stroke="white" stroke-width="2" stroke-linecap="round" stroke-linejoin="round"/>
<path d="M116.64 170.32L113.62 164.512L103.504 186.8L116.64 170.32Z" stroke="white" stroke-width="2" stroke-linecap="round" stroke-linejoin="round"/>
<path d="M176.608 94.796L172.732 91.024L165.26 109.304L176.608 94.796Z" stroke="white" stroke-width="2" stroke-linecap="round" stroke-linejoin="round"/>
<path d="M71.036 272.784L83.728 244.26L68.488 263.972L73.688 281.972L86.544 252.508L71.036 272.784Z" stroke="white" stroke-width="2" stroke-linecap="round" stroke-linejoin="round"/>
<path d="M161.604 104.86L150.144 119.108L153.656 123.868L161.604 104.86Z" stroke="white" stroke-width="2" stroke-linecap="round" stroke-linejoin="round"/>
<path d="M129.364 154.356L126.168 148.916L116.64 170.32L129.364 154.356Z" stroke="white" stroke-width="2" stroke-linecap="round" stroke-linejoin="round"/>
<path d="M150.144 119.108L138.336 133.788L141.696 138.876L150.144 119.108Z" stroke="white" stroke-width="2" stroke-linecap="round" stroke-linejoin="round"/>
<path d="M126.168 148.916L113.62 164.512L116.64 170.32L126.168 148.916Z" stroke="white" stroke-width="2" stroke-linecap="round" stroke-linejoin="round"/>
<path d="M141.696 138.876L138.336 133.788L129.364 154.356L141.696 138.876Z" stroke="white" stroke-width="2" stroke-linecap="round" stroke-linejoin="round"/>
<path d="M138.336 133.788L126.168 148.916L129.364 154.356L138.336 133.788Z" stroke="white" stroke-width="2" stroke-linecap="round" stroke-linejoin="round"/>
<path d="M229.464 298.168L253.94 293.936L236.1 269.632L229.464 298.168Z" stroke="white" stroke-width="2" stroke-linecap="round" stroke-linejoin="round"/>
<path d="M211.444 273.2L229.464 298.168L236.1 269.632L211.444 273.2Z" stroke="white" stroke-width="2" stroke-linecap="round" stroke-linejoin="round"/>
<path d="M259.564 266.236L236.1 269.632L253.94 293.936L259.564 266.236Z" stroke="white" stroke-width="2" stroke-linecap="round" stroke-linejoin="round"/>
<path d="M185.508 276.956L203.708 302.624L211.444 273.2L185.508 276.956Z" stroke="white" stroke-width="2" stroke-linecap="round" stroke-linejoin="round"/>
<path d="M253.94 293.936L277.22 289.912L259.564 266.236L253.94 293.936Z" stroke="white" stroke-width="2" stroke-linecap="round" stroke-linejoin="round"/>
<path d="M176.56 307.316L203.708 302.624L185.508 276.956L176.56 307.316Z" stroke="white" stroke-width="2" stroke-linecap="round" stroke-linejoin="round"/>
<path d="M203.708 302.624L229.464 298.168L211.444 273.2L203.708 302.624Z" stroke="white" stroke-width="2" stroke-linecap="round" stroke-linejoin="round"/>
<path d="M198.108 95.5L183.684 76.948L176.608 94.796L198.108 95.5Z" stroke="white" stroke-width="2" stroke-linecap="round" stroke-linejoin="round"/>
<path d="M303.264 259.908L281.928 262.996L299.396 286.076L303.264 259.908Z" stroke="white" stroke-width="2" stroke-linecap="round" stroke-linejoin="round"/>
<path d="M277.22 289.912L299.396 286.076L281.928 262.996L277.22 289.912Z" stroke="white" stroke-width="2" stroke-linecap="round" stroke-linejoin="round"/>
<path d="M259.564 266.236L277.22 289.912L281.928 262.996L259.564 266.236Z" stroke="white" stroke-width="2" stroke-linecap="round" stroke-linejoin="round"/>
<path d="M158.188 280.912L176.56 307.316L185.508 276.956L158.188 280.912Z" stroke="white" stroke-width="2" stroke-linecap="round" stroke-linejoin="round"/>
<path d="M92.5361 270.068L79.3561 301.592L95.7281 279.428L92.5361 270.068Z" stroke="white" stroke-width="2" stroke-linecap="round" stroke-linejoin="round"/>
<path d="M79.3561 301.592L82.3841 312.076L95.7281 279.428L79.3561 301.592Z" stroke="white" stroke-width="2" stroke-linecap="round" stroke-linejoin="round"/>
<path d="M95.728 279.428L82.384 312.076L99 289.348L95.728 279.428Z" stroke="white" stroke-width="2" stroke-linecap="round" stroke-linejoin="round"/>
<path d="M76.4601 291.568L79.3561 301.592L92.5361 270.068L76.4601 291.568Z" stroke="white" stroke-width="2" stroke-linecap="round" stroke-linejoin="round"/>
<path d="M89.4761 261.104L76.4601 291.568L92.5361 270.068L89.4761 261.104Z" stroke="white" stroke-width="2" stroke-linecap="round" stroke-linejoin="round"/>
<path d="M82.384 312.076L85.556 323.052L99 289.348L82.384 312.076Z" stroke="white" stroke-width="2" stroke-linecap="round" stroke-linejoin="round"/>
<path d="M147.904 312.272L176.56 307.316L158.188 280.912L147.904 312.272Z" stroke="white" stroke-width="2" stroke-linecap="round" stroke-linejoin="round"/>
<path d="M73.688 281.972L76.46 291.568L89.476 261.104L73.688 281.972Z" stroke="white" stroke-width="2" stroke-linecap="round" stroke-linejoin="round"/>
<path d="M129.376 285.084L147.904 312.272L158.188 280.912L129.376 285.084Z" stroke="white" stroke-width="2" stroke-linecap="round" stroke-linejoin="round"/>
<path d="M85.5561 323.052L117.62 317.508L99.0001 289.348L85.5561 323.052Z" stroke="white" stroke-width="2" stroke-linecap="round" stroke-linejoin="round"/>
<path d="M99 289.348L117.62 317.508L129.376 285.084L99 289.348Z" stroke="white" stroke-width="2" stroke-linecap="round" stroke-linejoin="round"/>
<path d="M117.62 317.508L147.904 312.272L129.376 285.084L117.62 317.508Z" stroke="white" stroke-width="2" stroke-linecap="round" stroke-linejoin="round"/>
<path d="M141.696 138.876L129.364 154.356L132.676 159.992L141.696 138.876Z" stroke="white" stroke-width="2" stroke-linecap="round" stroke-linejoin="round"/>
<path d="M104.696 240.984L92.5359 270.068L108.02 249.36L104.696 240.984Z" stroke="white" stroke-width="2" stroke-linecap="round" stroke-linejoin="round"/>
<path d="M92.5359 270.068L95.728 279.428L108.02 249.36L92.5359 270.068Z" stroke="white" stroke-width="2" stroke-linecap="round" stroke-linejoin="round"/>
<path d="M89.476 261.104L92.536 270.068L104.696 240.984L89.476 261.104Z" stroke="white" stroke-width="2" stroke-linecap="round" stroke-linejoin="round"/>
<path d="M101.504 232.948L89.476 261.104L104.696 240.984L101.504 232.948Z" stroke="white" stroke-width="2" stroke-linecap="round" stroke-linejoin="round"/>
<path d="M108.02 249.36L95.728 279.428L111.384 258.316L108.02 249.36Z" stroke="white" stroke-width="2" stroke-linecap="round" stroke-linejoin="round"/>
<path d="M191.372 114.084L198.108 95.5L176.608 94.796L191.372 114.084Z" stroke="white" stroke-width="2" stroke-linecap="round" stroke-linejoin="round"/>
<path d="M129.376 285.084L158.188 280.912L140.24 255.112L129.376 285.084Z" stroke="white" stroke-width="2" stroke-linecap="round" stroke-linejoin="round"/>
<path d="M98.4399 225.232L86.5439 252.508L101.504 232.948L98.4399 225.232Z" stroke="white" stroke-width="2" stroke-linecap="round" stroke-linejoin="round"/>
<path d="M140.24 255.112L158.188 280.912L167.716 251.864L140.24 255.112Z" stroke="white" stroke-width="2" stroke-linecap="round" stroke-linejoin="round"/>
<path d="M111.384 258.316L129.376 285.084L140.24 255.112L111.384 258.316Z" stroke="white" stroke-width="2" stroke-linecap="round" stroke-linejoin="round"/>
<path d="M99 289.348L129.376 285.084L111.384 258.316L99 289.348Z" stroke="white" stroke-width="2" stroke-linecap="round" stroke-linejoin="round"/>
<path d="M95.728 279.428L99 289.348L111.384 258.316L95.728 279.428Z" stroke="white" stroke-width="2" stroke-linecap="round" stroke-linejoin="round"/>
<path d="M106.44 193.232L103.504 186.8L92.668 210.684L106.44 193.232Z" stroke="white" stroke-width="2" stroke-linecap="round" stroke-linejoin="round"/>
<path d="M116.64 170.32L103.504 186.8L106.44 193.232L116.64 170.32Z" stroke="white" stroke-width="2" stroke-linecap="round" stroke-linejoin="round"/>
<path d="M119.768 176.344L116.64 170.32L106.44 193.232L119.768 176.344Z" stroke="white" stroke-width="2" stroke-linecap="round" stroke-linejoin="round"/>
<path d="M158.188 280.912L185.508 276.956L167.716 251.864L158.188 280.912Z" stroke="white" stroke-width="2" stroke-linecap="round" stroke-linejoin="round"/>
<path d="M129.364 154.356L116.64 170.32L119.768 176.344L129.364 154.356Z" stroke="white" stroke-width="2" stroke-linecap="round" stroke-linejoin="round"/>
<path d="M132.676 159.992L129.364 154.356L119.768 176.344L132.676 159.992Z" stroke="white" stroke-width="2" stroke-linecap="round" stroke-linejoin="round"/>
<path d="M103.504 186.8L89.9439 203.82L92.6679 210.684L103.504 186.8Z" stroke="white" stroke-width="2" stroke-linecap="round" stroke-linejoin="round"/>
<path d="M92.668 210.684L81.028 236.34L95.5 217.816L92.668 210.684Z" stroke="white" stroke-width="2" stroke-linecap="round" stroke-linejoin="round"/>
<path d="M81.028 236.34L83.728 244.26L95.5 217.816L81.028 236.34Z" stroke="white" stroke-width="2" stroke-linecap="round" stroke-linejoin="round"/>
<path d="M95.5 217.816L83.728 244.26L98.44 225.232L95.5 217.816Z" stroke="white" stroke-width="2" stroke-linecap="round" stroke-linejoin="round"/>
<path d="M83.728 244.26L86.544 252.508L98.44 225.232L83.728 244.26Z" stroke="white" stroke-width="2" stroke-linecap="round" stroke-linejoin="round"/>
<path d="M89.944 203.82L78.428 228.728L92.668 210.684L89.944 203.82Z" stroke="white" stroke-width="2" stroke-linecap="round" stroke-linejoin="round"/>
<path d="M78.428 228.728L81.028 236.34L92.668 210.684L78.428 228.728Z" stroke="white" stroke-width="2" stroke-linecap="round" stroke-linejoin="round"/>
<path d="M86.5439 252.508L89.4759 261.104L101.504 232.948L86.5439 252.508Z" stroke="white" stroke-width="2" stroke-linecap="round" stroke-linejoin="round"/>
<path d="M237.48 174.176L242.992 153.224L221.816 153.764L237.48 174.176Z" stroke="white" stroke-width="2" stroke-linecap="round" stroke-linejoin="round"/>
<path d="M253.448 194.984L258.512 173.192L237.48 174.176L253.448 194.984Z" stroke="white" stroke-width="2" stroke-linecap="round" stroke-linejoin="round"/>
<path d="M258.512 173.192L242.992 153.224L237.48 174.176L258.512 173.192Z" stroke="white" stroke-width="2" stroke-linecap="round" stroke-linejoin="round"/>
<path d="M274.332 193.536L258.512 173.192L253.448 194.984L274.332 193.536Z" stroke="white" stroke-width="2" stroke-linecap="round" stroke-linejoin="round"/>
<path d="M269.728 216.204L274.332 193.536L253.448 194.984L269.728 216.204Z" stroke="white" stroke-width="2" stroke-linecap="round" stroke-linejoin="round"/>
<path d="M290.452 214.272L274.332 193.536L269.728 216.204L290.452 214.272Z" stroke="white" stroke-width="2" stroke-linecap="round" stroke-linejoin="round"/>
<path d="M221.816 153.764L227.752 133.628L206.452 133.736L221.816 153.764Z" stroke="white" stroke-width="2" stroke-linecap="round" stroke-linejoin="round"/>
<path d="M212.796 114.388L198.108 95.5L191.372 114.084L212.796 114.388Z" stroke="white" stroke-width="2" stroke-linecap="round" stroke-linejoin="round"/>
<path d="M206.452 133.736L212.796 114.388L191.372 114.084L206.452 133.736Z" stroke="white" stroke-width="2" stroke-linecap="round" stroke-linejoin="round"/>
<path d="M242.992 153.224L227.752 133.628L221.816 153.764L242.992 153.224Z" stroke="white" stroke-width="2" stroke-linecap="round" stroke-linejoin="round"/>
<path d="M227.752 133.628L212.796 114.388L206.452 133.736L227.752 133.628Z" stroke="white" stroke-width="2" stroke-linecap="round" stroke-linejoin="round"/>
<path d="M286.332 237.84L290.452 214.272L269.728 216.204L286.332 237.84Z" stroke="white" stroke-width="2" stroke-linecap="round" stroke-linejoin="round"/>
<path d="M264.816 240.384L281.928 262.996L286.332 237.84L264.816 240.384Z" stroke="white" stroke-width="2" stroke-linecap="round" stroke-linejoin="round"/>
<path d="M218.636 245.844L236.1 269.632L242.276 243.048L218.636 245.844Z" stroke="white" stroke-width="2" stroke-linecap="round" stroke-linejoin="round"/>
<path d="M236.1 269.632L259.564 266.236L242.276 243.048L236.1 269.632Z" stroke="white" stroke-width="2" stroke-linecap="round" stroke-linejoin="round"/>
<path d="M211.444 273.2L236.1 269.632L218.636 245.844L211.444 273.2Z" stroke="white" stroke-width="2" stroke-linecap="round" stroke-linejoin="round"/>
<path d="M193.812 248.78L211.444 273.2L218.636 245.844L193.812 248.78Z" stroke="white" stroke-width="2" stroke-linecap="round" stroke-linejoin="round"/>
<path d="M185.508 276.956L211.444 273.2L193.812 248.78L185.508 276.956Z" stroke="white" stroke-width="2" stroke-linecap="round" stroke-linejoin="round"/>
<path d="M242.276 243.048L259.564 266.236L264.816 240.384L242.276 243.048Z" stroke="white" stroke-width="2" stroke-linecap="round" stroke-linejoin="round"/>
<path d="M303.264 259.908L306.888 235.408L286.332 237.84L303.264 259.908Z" stroke="white" stroke-width="2" stroke-linecap="round" stroke-linejoin="round"/>
<path d="M281.928 262.996L303.264 259.908L286.332 237.84L281.928 262.996Z" stroke="white" stroke-width="2" stroke-linecap="round" stroke-linejoin="round"/>
<path d="M167.716 251.864L185.508 276.956L193.812 248.78L167.716 251.864Z" stroke="white" stroke-width="2" stroke-linecap="round" stroke-linejoin="round"/>
<path d="M259.564 266.236L281.928 262.996L264.816 240.384L259.564 266.236Z" stroke="white" stroke-width="2" stroke-linecap="round" stroke-linejoin="round"/>
<path d="M306.888 235.408L290.452 214.272L286.332 237.84L306.888 235.408Z" stroke="white" stroke-width="2" stroke-linecap="round" stroke-linejoin="round"/>
</svg>
