<svg width="400" height="400" viewBox="0 0 400 400" fill="none" xmlns="http://www.w3.org/2000/svg">
<path d="M227.476 178.848L218.32 173.56H218.316H218.32L227.476 178.848Z" stroke="white" stroke-width="4" stroke-linecap="round" stroke-linejoin="round"/>
<path d="M181.68 99.528L172.52 94.24L172.524 200L181.68 194.712V99.528Z" stroke="white" stroke-width="4" stroke-linecap="round" stroke-linejoin="round"/>
<path d="M181.68 99.524V99.528V99.524Z" stroke="white" stroke-width="4" stroke-linecap="round" stroke-linejoin="round"/>
<path d="M163.372 215.856L163.376 215.868L172.524 221.152L236.636 184.136L227.48 178.848L163.372 215.856Z" stroke="white" stroke-width="4" stroke-linecap="round" stroke-linejoin="round"/>
<path d="M236.636 184.136L227.476 178.848H227.48L236.636 184.136Z" stroke="white" stroke-width="4" stroke-linecap="round" stroke-linejoin="round"/>
<path d="M227.476 178.848H227.48" stroke="white" stroke-width="4" stroke-linecap="round" stroke-linejoin="round"/>
<path d="M190.84 104.816L181.68 99.528V194.712L190.84 189.424V104.816Z" stroke="white" stroke-width="4" stroke-linecap="round" stroke-linejoin="round"/>
<path d="M227.476 178.848H227.48H227.476Z" stroke="white" stroke-width="4" stroke-linecap="round" stroke-linejoin="round"/>
<path d="M209.16 115.392V104.816L200 110.1V110.104V120.68L209.16 115.392Z" stroke="white" stroke-width="4" stroke-linecap="round" stroke-linejoin="round"/>
<path d="M200 141.832L209.16 136.544V125.968L200 131.256V141.832Z" stroke="white" stroke-width="4" stroke-linecap="round" stroke-linejoin="round"/>
<path d="M200 131.256L209.16 125.968V115.392L200 120.68V131.256Z" stroke="white" stroke-width="4" stroke-linecap="round" stroke-linejoin="round"/>
<path d="M209.16 168.272V178.848L218.316 173.56L218.32 162.98L209.16 168.272Z" stroke="white" stroke-width="4" stroke-linecap="round" stroke-linejoin="round"/>
<path d="M200 131.256L209.16 125.968L200 131.256Z" stroke="white" stroke-width="4" stroke-linecap="round" stroke-linejoin="round"/>
<path d="M245.796 189.424L236.636 184.136L245.796 189.424Z" stroke="white" stroke-width="4" stroke-linecap="round" stroke-linejoin="round"/>
<path d="M200 110.1L209.16 104.816L200 110.1Z" stroke="white" stroke-width="4" stroke-linecap="round" stroke-linejoin="round"/>
<path d="M200 173.556V162.976V173.556ZM200 173.556L209.16 168.272V157.692L200 162.98V162.984V162.98V152.376V141.832V131.256V120.68V110.104L190.84 104.816V189.424L200 184.136V173.56V173.556Z" stroke="white" stroke-width="4" stroke-linecap="round" stroke-linejoin="round"/>
<path d="M200 173.56V184.136L209.16 178.848V168.272L200 173.56Z" stroke="white" stroke-width="4" stroke-linecap="round" stroke-linejoin="round"/>
<path d="M200 173.556V173.56L209.16 168.272L200 173.556Z" stroke="white" stroke-width="4" stroke-linecap="round" stroke-linejoin="round"/>
<path d="M200 162.98L209.16 157.692V147.104L200 152.376V162.98Z" stroke="white" stroke-width="4" stroke-linecap="round" stroke-linejoin="round"/>
<path d="M200 152.376L209.16 147.104V136.544L200 141.832V152.376Z" stroke="white" stroke-width="4" stroke-linecap="round" stroke-linejoin="round"/>
<path d="M200 162.98V152.376V162.98Z" stroke="white" stroke-width="4" stroke-linecap="round" stroke-linejoin="round"/>
<path d="M154.204 200L145.044 205.288L150.8 208.6L151.008 208.724L151.56 209.04L154.22 210.576L154.204 200Z" stroke="white" stroke-width="4" stroke-linecap="round" stroke-linejoin="round"/>
<path d="M145.044 205.288L150.8 208.6L145.06 205.288H145.044Z" stroke="white" stroke-width="4" stroke-linecap="round" stroke-linejoin="round"/>
<path d="M200 226.444V226.44L190.884 231.704L200 226.444Z" stroke="white" stroke-width="4" stroke-linecap="round" stroke-linejoin="round"/>
<path d="M200 289.9V289.896L190.84 295.188L200 289.9Z" stroke="white" stroke-width="4" stroke-linecap="round" stroke-linejoin="round"/>
<path d="M200 226.44V215.864L190.84 221.152V231.732L190.884 231.704L200 226.44Z" stroke="white" stroke-width="4" stroke-linecap="round" stroke-linejoin="round"/>
<path d="M154.204 210.576L151.544 209.04L154.204 210.576Z" stroke="white" stroke-width="4" stroke-linecap="round" stroke-linejoin="round"/>
<path d="M181.68 226.44H181.684H181.68Z" stroke="white" stroke-width="4" stroke-linecap="round" stroke-linejoin="round"/>
<path d="M151.544 209.04L150.992 208.724L151.544 209.04Z" stroke="white" stroke-width="4" stroke-linecap="round" stroke-linejoin="round"/>
<path d="M154.204 200V189.424L135.884 200L145.044 205.288L154.204 200Z" stroke="white" stroke-width="4" stroke-linecap="round" stroke-linejoin="round"/>
<path d="M150.992 208.724L150.784 208.6L150.992 208.724Z" stroke="white" stroke-width="4" stroke-linecap="round" stroke-linejoin="round"/>
<path d="M218.32 300.472L227.472 305.756L227.48 305.76V200L218.32 205.288V300.472Z" stroke="white" stroke-width="4" stroke-linecap="round" stroke-linejoin="round"/>
<path d="M209.16 210.576V295.184L218.32 300.472V205.288L209.16 210.576Z" stroke="white" stroke-width="4" stroke-linecap="round" stroke-linejoin="round"/>
<path d="M190.84 231.732L190.884 231.704L190.84 231.732Z" stroke="white" stroke-width="4" stroke-linecap="round" stroke-linejoin="round"/>
<path d="M200 215.864V226.44V226.444V237.092V247.624V258.168V268.744V279.32V289.896L209.16 295.184L209.152 295.18L209.16 295.184V210.576L200 215.864Z" stroke="white" stroke-width="4" stroke-linecap="round" stroke-linejoin="round"/>
<path d="M200 247.624L190.84 252.896V263.456L200 258.168V247.624Z" stroke="white" stroke-width="4" stroke-linecap="round" stroke-linejoin="round"/>
<path d="M200 237.092V226.444L190.884 231.704L190.84 231.732V242.308L200 237.02L190.84 242.308V252.896L200 247.624V237.092Z" stroke="white" stroke-width="4" stroke-linecap="round" stroke-linejoin="round"/>
<path d="M200 268.744V258.168V268.744Z" stroke="white" stroke-width="4" stroke-linecap="round" stroke-linejoin="round"/>
<path d="M200 268.744L190.84 274.032V284.608L200 279.32V268.744Z" stroke="white" stroke-width="4" stroke-linecap="round" stroke-linejoin="round"/>
<path d="M200 258.168L190.84 263.456V274.032L200 268.744V258.168Z" stroke="white" stroke-width="4" stroke-linecap="round" stroke-linejoin="round"/>
<path d="M190.84 284.608V295.188L200 289.896V279.32L190.84 284.608Z" stroke="white" stroke-width="4" stroke-linecap="round" stroke-linejoin="round"/>
<path d="M154.204 210.576L151.544 209.04L150.992 208.724L150.784 208.6L145.044 205.288V332.204L154.204 337.492V210.576Z" stroke="white" stroke-width="4" stroke-linecap="round" stroke-linejoin="round"/>
<path d="M264.116 200L254.956 194.712L245.796 200V210.576L264.116 200Z" stroke="white" stroke-width="4" stroke-linecap="round" stroke-linejoin="round"/>
<path d="M245.796 189.424L254.956 194.712V67.796V194.712L264.116 200V73.084L245.796 62.508V189.424Z" stroke="white" stroke-width="4" stroke-linecap="round" stroke-linejoin="round"/>
<path d="M264.116 200L245.796 210.576V221.152L273.276 205.288L264.116 200Z" stroke="white" stroke-width="4" stroke-linecap="round" stroke-linejoin="round"/>
<path d="M264.116 200L273.276 205.288V78.372L264.116 73.084V200Z" stroke="white" stroke-width="4" stroke-linecap="round" stroke-linejoin="round"/>
<path d="M273.276 205.288L245.796 221.152V231.728L282.432 210.576L273.276 205.288Z" stroke="white" stroke-width="4" stroke-linecap="round" stroke-linejoin="round"/>
<path d="M273.276 205.288L282.432 210.576V83.66L264.116 73.084L273.276 78.372V205.288Z" stroke="white" stroke-width="4" stroke-linecap="round" stroke-linejoin="round"/>
<path d="M254.956 194.712L245.796 189.424V200L254.956 194.712Z" stroke="white" stroke-width="4" stroke-linecap="round" stroke-linejoin="round"/>
<path d="M227.48 305.76L227.472 305.756L218.32 300.472L181.68 321.628V332.204L227.48 305.76Z" stroke="white" stroke-width="4" stroke-linecap="round" stroke-linejoin="round"/>
<path d="M227.48 305.76L181.68 332.204V342.78L236.64 311.048L227.48 305.76Z" stroke="white" stroke-width="4" stroke-linecap="round" stroke-linejoin="round"/>
<path d="M218.32 300.472L209.16 295.184L181.68 311.052V321.628L218.32 300.472Z" stroke="white" stroke-width="4" stroke-linecap="round" stroke-linejoin="round"/>
<path d="M227.48 305.76L236.64 311.048L236.636 194.712L227.48 200V305.76Z" stroke="white" stroke-width="4" stroke-linecap="round" stroke-linejoin="round"/>
<path d="M236.636 194.712L245.796 189.424L236.636 194.712Z" stroke="white" stroke-width="4" stroke-linecap="round" stroke-linejoin="round"/>
<path d="M227.48 200L236.636 194.712L227.48 200Z" stroke="white" stroke-width="4" stroke-linecap="round" stroke-linejoin="round"/>
<path d="M245.796 221.152V210.576V200V189.424L236.636 194.712L236.64 311.048L245.8 316.336L245.796 231.728V221.152Z" stroke="white" stroke-width="4" stroke-linecap="round" stroke-linejoin="round"/>
<path d="M181.684 332.204V226.44L172.528 221.152V348.068L181.688 353.356V332.204H181.684Z" stroke="white" stroke-width="4" stroke-linecap="round" stroke-linejoin="round"/>
<path d="M172.524 221.152L163.36 215.864C163.36 216.444 163.36 342.78 163.36 342.78L172.52 348.068V221.152H172.524Z" stroke="white" stroke-width="4" stroke-linecap="round" stroke-linejoin="round"/>
<path d="M155.804 211.5L154.204 210.576V337.492L163.364 342.8C163.364 342.8 163.364 216.464 163.364 215.884L155.804 211.5Z" stroke="white" stroke-width="4" stroke-linecap="round" stroke-linejoin="round"/>
<path d="M181.68 342.78V353.356L245.796 316.34L245.8 316.336L236.64 311.048L181.68 342.78Z" stroke="white" stroke-width="4" stroke-linecap="round" stroke-linejoin="round"/>
<path d="M145.044 205.288L135.884 200L154.204 189.424V178.848L126.728 194.712L135.884 200V326.916L154.204 337.492L145.044 332.204V205.288Z" stroke="white" stroke-width="4" stroke-linecap="round" stroke-linejoin="round"/>
<path d="M200 289.896V289.9L190.84 295.188L181.68 300.472V311.052L209.16 295.184L200 289.896Z" stroke="white" stroke-width="4" stroke-linecap="round" stroke-linejoin="round"/>
<path d="M154.204 189.424V200V210.576L163.364 205.288L163.36 88.952L154.2 83.664L154.204 168.272V178.848V189.424Z" stroke="white" stroke-width="4" stroke-linecap="round" stroke-linejoin="round"/>
<path d="M126.728 194.712V321.628V194.712ZM126.728 194.712L117.568 189.424V316.34L135.884 326.916V200L126.728 194.712Z" stroke="white" stroke-width="4" stroke-linecap="round" stroke-linejoin="round"/>
<path d="M218.32 57.22V46.644L154.204 83.66L154.2 83.664L163.36 88.952L218.32 57.22Z" stroke="white" stroke-width="4" stroke-linecap="round" stroke-linejoin="round"/>
<path d="M227.476 178.848L236.636 184.136V57.22L227.476 51.932V178.848Z" stroke="white" stroke-width="4" stroke-linecap="round" stroke-linejoin="round"/>
<path d="M218.32 67.796V78.372V88.948V99.524V110.104V120.676V131.256V141.828V152.408V162.98L218.316 173.56H218.32L227.476 178.848V51.932L218.32 46.644V57.22V67.796Z" stroke="white" stroke-width="4" stroke-linecap="round" stroke-linejoin="round"/>
<path d="M245.796 189.424V62.508L236.636 57.22V184.136L245.796 189.424Z" stroke="white" stroke-width="4" stroke-linecap="round" stroke-linejoin="round"/>
<path d="M154.204 178.848V168.272L117.568 189.424L126.728 194.712L154.204 178.848Z" stroke="white" stroke-width="4" stroke-linecap="round" stroke-linejoin="round"/>
<path d="M236.636 184.136L172.524 221.152L163.376 215.868L163.372 215.856H163.36V215.86L163.364 215.864L172.524 221.152L236.636 184.136Z" stroke="white" stroke-width="4" stroke-linecap="round" stroke-linejoin="round"/>
<path d="M172.52 94.24L163.36 88.952L163.364 205.288L172.524 200L172.52 94.24Z" stroke="white" stroke-width="4" stroke-linecap="round" stroke-linejoin="round"/>
<path d="M218.32 67.796V57.22L163.36 88.952L172.52 94.24L218.32 67.796Z" stroke="white" stroke-width="4" stroke-linecap="round" stroke-linejoin="round"/>
<path d="M181.68 99.528V99.524L218.32 78.372V67.796L172.52 94.24L181.68 99.528Z" stroke="white" stroke-width="4" stroke-linecap="round" stroke-linejoin="round"/>
<path d="M154.204 210.576L155.804 211.5L154.204 210.576Z" stroke="white" stroke-width="4" stroke-linecap="round" stroke-linejoin="round"/>
<path d="M163.36 215.856L227.476 178.848L218.32 173.56L154.204 210.576L155.804 211.5L163.36 215.86V215.856Z" stroke="white" stroke-width="4" stroke-linecap="round" stroke-linejoin="round"/>
<path d="M181.68 99.528L190.84 104.816L218.32 88.948V78.372L181.68 99.524V99.528Z" stroke="white" stroke-width="4" stroke-linecap="round" stroke-linejoin="round"/>
<path d="M218.32 173.56H218.316L209.16 178.848L200 184.136L190.84 189.424L181.68 194.712L172.524 200L163.364 205.288L154.204 210.576L218.32 173.56Z" stroke="white" stroke-width="4" stroke-linecap="round" stroke-linejoin="round"/>
<path d="M209.16 147.104L218.32 141.828V131.256L209.16 136.544V147.104Z" stroke="white" stroke-width="4" stroke-linecap="round" stroke-linejoin="round"/>
<path d="M190.84 104.816L200 110.104V110.1L209.16 104.816L218.32 99.524V88.948L190.84 104.816Z" stroke="white" stroke-width="4" stroke-linecap="round" stroke-linejoin="round"/>
<path d="M209.16 157.692L218.32 152.408V141.828L209.16 147.104V157.692Z" stroke="white" stroke-width="4" stroke-linecap="round" stroke-linejoin="round"/>
<path d="M209.16 136.544L218.32 131.256V120.676L209.16 125.968V136.544Z" stroke="white" stroke-width="4" stroke-linecap="round" stroke-linejoin="round"/>
<path d="M209.16 115.392L218.32 110.104V99.524L209.16 104.816V115.392Z" stroke="white" stroke-width="4" stroke-linecap="round" stroke-linejoin="round"/>
<path d="M209.16 125.968L218.32 120.676V110.104L209.16 115.392V125.968Z" stroke="white" stroke-width="4" stroke-linecap="round" stroke-linejoin="round"/>
<path d="M190.84 263.456L181.68 268.744V279.324L190.84 274.032V263.456Z" stroke="white" stroke-width="4" stroke-linecap="round" stroke-linejoin="round"/>
<path d="M190.84 231.732L181.68 237.02V247.592L190.84 242.308V231.732Z" stroke="white" stroke-width="4" stroke-linecap="round" stroke-linejoin="round"/>
<path d="M190.84 231.732L181.68 237.02L190.84 231.732Z" stroke="white" stroke-width="4" stroke-linecap="round" stroke-linejoin="round"/>
<path d="M190.84 242.308L181.68 247.592V258.168L190.84 252.896V242.308Z" stroke="white" stroke-width="4" stroke-linecap="round" stroke-linejoin="round"/>
<path d="M190.84 221.152L181.684 226.44L181.68 237.02L190.84 231.732V221.152Z" stroke="white" stroke-width="4" stroke-linecap="round" stroke-linejoin="round"/>
<path d="M190.84 274.032L181.68 279.324V289.896L190.84 284.608V274.032Z" stroke="white" stroke-width="4" stroke-linecap="round" stroke-linejoin="round"/>
<path d="M190.84 252.896L181.68 258.168V268.744L190.84 263.456V252.896Z" stroke="white" stroke-width="4" stroke-linecap="round" stroke-linejoin="round"/>
<path d="M190.84 284.608L181.68 289.896V300.472L190.84 295.188V284.608Z" stroke="white" stroke-width="4" stroke-linecap="round" stroke-linejoin="round"/>
<path d="M209.16 168.272L218.32 162.98V152.408L209.16 157.692V168.272Z" stroke="white" stroke-width="4" stroke-linecap="round" stroke-linejoin="round"/>
<path d="M155.804 211.5L163.36 215.864V215.86L155.804 211.5Z" stroke="white" stroke-width="4" stroke-linecap="round" stroke-linejoin="round"/>
<path d="M163.36 215.86V215.864L172.524 221.152L163.364 215.864L163.36 215.86Z" stroke="white" stroke-width="4" stroke-linecap="round" stroke-linejoin="round"/>
<path d="M227.48 200L245.796 189.424L236.64 184.136L172.524 221.152L181.684 226.44L227.48 200Z" stroke="white" stroke-width="4" stroke-linecap="round" stroke-linejoin="round"/>
<path d="M172.524 221.152C171.8 220.752 181.68 226.44 181.68 226.44L172.524 221.152Z" stroke="white" stroke-width="4" stroke-linecap="round" stroke-linejoin="round"/>
<path d="M181.688 226.436L190.84 221.152L200 215.864L209.16 210.576L218.32 205.288L227.48 200" stroke="white" stroke-width="4" stroke-linecap="round" stroke-linejoin="round"/>
</svg>
