<svg width="264" height="264" viewBox="0 0 264 264" fill="none" xmlns="http://www.w3.org/2000/svg">
<path d="M239.704 21.108C200.348 -15.6 121.344 2.24001 61.7919 61.792C2.23992 121.344 -15.6001 200.34 21.1079 239.7C21.6119 240.256 22.1359 240.792 22.6679 241.332C23.1999 241.872 23.7479 242.384 24.2999 242.896" stroke="#FF385C" stroke-width="4" stroke-miterlimit="10"/>
<path d="M216.6 50.156C244.3 80.132 230.692 140.048 185.508 185.224C140.324 230.4 80.4 244 50.44 216.312C49.968 215.876 49.5 215.42 49.036 214.96C48.572 214.5 48.128 214.032 47.684 213.56" stroke="#FF385C" stroke-width="4" stroke-miterlimit="10"/>
<path d="M24.3 242.896C63.656 279.6 142.656 261.756 202.208 202.204C261.76 142.652 279.6 63.656 242.892 24.296C242.38 23.748 241.864 23.204 241.332 22.672C240.8 22.14 240.26 21.616 239.704 21.108C205.024 -10.936 135.704 4.80801 83.444 57.08C79.1773 61.3467 75.1533 65.72 71.372 70.2C28.82 120.556 18 181.776 47.684 213.56C20 183.6 33.6 123.672 78.776 78.488C123.952 33.304 183.868 19.688 213.844 47.4C214.32 47.844 214.784 48.292 215.248 48.752C215.712 49.212 216.156 49.68 216.6 50.156C246.116 81.756 235.648 142.404 193.8 192.628C189.749 197.489 185.416 202.239 180.8 206.876C128.444 259.22 59.024 274.992 24.3 242.896Z" stroke="#FF385C" stroke-width="4" stroke-miterlimit="10"/>
</svg>
