<svg width="128" height="32" viewBox="0 0 128 32" fill="none" xmlns="http://www.w3.org/2000/svg">
<path d="M14.0799 0.166397C13.8879 0.185596 13.6703 0.223997 13.5999 0.255997C13.5295 0.287996 13.3439 0.326397 13.1839 0.345596C12.7935 0.383997 12.1599 0.505596 11.9999 0.575996C11.7887 0.659197 11.1935 0.831997 11.0975 0.831997C11.0463 0.831997 10.9567 0.857597 10.8927 0.889597C10.8351 0.921597 10.6559 0.998396 10.4959 1.056C9.7087 1.3568 9.5167 1.44 8.8319 1.7856C8.1023 2.1568 7.7887 2.3232 7.7439 2.368C7.7247 2.3872 7.5135 2.5344 7.2639 2.688C7.0207 2.848 6.7775 3.008 6.7327 3.0528C6.6815 3.0976 6.5855 3.168 6.5151 3.2064C6.3807 3.2768 6.1951 3.4176 6.0223 3.584C5.9647 3.6416 5.8047 3.7696 5.6639 3.872C5.4143 4.0576 3.9039 5.5488 3.9039 5.6064C3.9039 5.6448 3.8079 5.7664 3.5647 6.0224C3.4687 6.1248 3.3919 6.2272 3.3919 6.2464C3.3919 6.2656 3.3215 6.3552 3.2319 6.4512C3.1423 6.5472 3.0719 6.656 3.0719 6.7008C3.0719 6.7456 3.0463 6.784 3.0207 6.784C2.9887 6.784 2.9119 6.8864 2.8415 7.008C2.7775 7.1296 2.7071 7.232 2.6815 7.232C2.6559 7.232 2.6239 7.2832 2.5983 7.3408C2.5599 7.4752 2.4383 7.6672 2.3167 7.7952C2.2783 7.84 2.2399 7.9232 2.2399 7.9744C2.2399 8.0256 2.2143 8.064 2.1759 8.064C2.1439 8.064 2.1119 8.1088 2.1119 8.16C2.1119 8.2112 2.0863 8.256 2.0479 8.256C2.0159 8.256 1.9839 8.288 1.9839 8.3264C1.9839 8.4096 1.7855 8.8512 1.7279 8.896C1.7023 8.9152 1.6319 9.0624 1.5615 9.2288C1.4975 9.4016 1.4207 9.536 1.3951 9.536C1.3631 9.536 1.3439 9.5808 1.3439 9.6384C1.3439 9.696 1.2991 9.8368 1.2479 9.9584C1.1967 10.08 1.1071 10.272 1.0559 10.3936C1.0047 10.5152 0.959901 10.656 0.959901 10.7072C0.959901 10.7648 0.927901 10.8288 0.895901 10.848C0.857501 10.8672 0.831901 10.9504 0.831901 11.0336C0.831901 11.1104 0.806301 11.2 0.774301 11.232C0.742301 11.2704 0.684701 11.424 0.652701 11.584C0.614301 11.744 0.550301 11.9872 0.511901 12.128C0.262301 12.9792 -0.025699 15.5328 0.025501 16.352C0.095901 17.504 0.204701 18.5984 0.249501 18.688C0.281501 18.7456 0.326301 18.9952 0.351901 19.2512C0.377501 19.5072 0.422301 19.712 0.454301 19.712C0.486301 19.712 0.511901 19.808 0.511901 19.9296C0.511901 20.0512 0.537501 20.1664 0.569501 20.1856C0.601501 20.2048 0.646301 20.352 0.665501 20.512C0.691101 20.6656 0.735901 20.8128 0.774301 20.832C0.806301 20.8576 0.831901 20.928 0.831901 20.9984C0.831901 21.0624 0.857501 21.1712 0.889501 21.2352C0.921501 21.2928 0.998301 21.4848 1.0559 21.664C1.1135 21.8368 1.2351 22.1376 1.3183 22.3232C1.4015 22.5088 1.4719 22.688 1.4719 22.72C1.4719 22.7584 1.5039 22.784 1.5359 22.784C1.5743 22.784 1.5999 22.8224 1.5999 22.8608C1.5999 22.9952 2.1375 24.0128 2.4831 24.544C2.5279 24.6144 2.5791 24.7232 2.5983 24.7808C2.6239 24.8448 2.6559 24.896 2.6815 24.896C2.7071 24.896 2.7775 24.992 2.8479 25.1072C2.9119 25.216 2.9823 25.3248 3.0079 25.344C3.0271 25.3632 3.1743 25.5488 3.3343 25.76C3.9679 26.6112 5.2351 27.8976 6.1439 28.608C6.3039 28.7296 6.4447 28.8512 6.4511 28.8768C6.4639 28.9024 6.5151 28.928 6.5663 28.928C6.6175 28.928 6.6559 28.9536 6.6559 28.992C6.6559 29.024 6.7263 29.0688 6.8159 29.0944C6.9055 29.1136 6.9759 29.152 6.9759 29.184C6.9759 29.2096 7.0783 29.28 7.1999 29.3504C7.3215 29.4144 7.4239 29.4912 7.4239 29.5168C7.4239 29.5488 7.4687 29.568 7.5199 29.568C7.5711 29.568 7.6159 29.5936 7.6159 29.6256C7.6159 29.6576 7.6799 29.7088 7.7631 29.7344C7.8399 29.76 7.9167 29.792 7.9359 29.8176C7.9871 29.8816 8.9983 30.4 9.5039 30.624C9.6127 30.6688 9.8623 30.784 10.0671 30.8736C10.2719 30.9632 10.4895 31.04 10.5599 31.04C10.6303 31.04 10.6879 31.0656 10.6879 31.0976C10.6879 31.1296 10.8159 31.1744 10.9759 31.1936C11.1295 31.2192 11.2767 31.264 11.2959 31.3024C11.3215 31.3344 11.4047 31.36 11.4879 31.36C11.5711 31.36 11.6543 31.3856 11.6735 31.4176C11.6927 31.4496 11.8847 31.4944 12.0959 31.52C12.3071 31.5456 12.4991 31.5904 12.5183 31.6224C12.5375 31.6544 12.6527 31.68 12.7743 31.68C12.8959 31.68 13.0431 31.7056 13.1071 31.7376C13.6191 32.0192 18.3999 32.0256 18.8927 31.744C18.9567 31.7056 19.1039 31.68 19.2255 31.68C19.3471 31.68 19.4623 31.6544 19.4815 31.6224C19.5007 31.5968 19.6543 31.552 19.8207 31.5264C20.1215 31.488 20.4863 31.3856 20.6719 31.296C20.7295 31.2704 20.8703 31.2256 20.9919 31.2C21.1135 31.1744 21.2543 31.1296 21.3119 31.104C21.3631 31.0784 21.5359 31.0016 21.6959 30.944C21.8559 30.88 22.1375 30.7648 22.3231 30.6816C22.5087 30.5984 22.7007 30.528 22.7519 30.528C22.8031 30.528 22.8479 30.5088 22.8479 30.4768C22.8479 30.4256 23.3151 30.208 23.4239 30.208C23.4623 30.208 23.4879 30.1824 23.4879 30.1568C23.4879 30.1248 23.6671 30.0096 23.8911 29.8944C24.3135 29.6768 24.5247 29.5552 24.5759 29.504C24.6207 29.4528 25.3695 28.9664 25.4335 28.9344C25.4655 28.9216 25.5551 28.8448 25.6319 28.7616C25.7087 28.6784 25.7919 28.608 25.8175 28.608C25.8431 28.608 25.9071 28.5696 25.9519 28.5312C26.0031 28.4864 26.1631 28.3456 26.3103 28.224C26.6495 27.936 27.9679 26.6432 27.9679 26.592C27.9679 26.5728 28.0831 26.432 28.2239 26.2912C28.3647 26.144 28.4799 26.0032 28.4799 25.9776C28.4799 25.9456 28.5823 25.8176 28.7039 25.6832C28.8255 25.5488 28.9471 25.3888 28.9663 25.3248C28.9855 25.2672 29.0303 25.216 29.0623 25.216C29.0943 25.216 29.1199 25.1776 29.1199 25.1264C29.1199 25.0752 29.1391 25.024 29.1711 25.0112C29.1967 25.0048 29.3183 24.832 29.4399 24.64C29.5615 24.448 29.6767 24.2752 29.6959 24.256C29.7151 24.2368 29.8111 24.0512 29.9199 23.84C30.0223 23.6288 30.1759 23.3472 30.2527 23.2192C30.3359 23.0848 30.3999 22.9376 30.3999 22.88C30.3999 22.8288 30.4319 22.784 30.4639 22.784C30.5023 22.784 30.5279 22.752 30.5279 22.7136C30.5279 22.6496 30.5599 22.5664 30.8095 22.0032C30.8671 21.8752 30.9119 21.7408 30.9119 21.7024C30.9119 21.664 30.9375 21.5808 30.9695 21.5168C31.0975 21.2736 31.3663 20.3904 31.5647 19.552C31.7631 18.7136 31.9615 16.9408 31.9615 16.064C31.9615 15.1616 31.7375 13.0496 31.6159 12.768C31.5839 12.6976 31.5455 12.5504 31.5263 12.448C31.4751 12.128 31.3535 11.6224 31.3023 11.488C31.2703 11.4176 31.1935 11.1872 31.1295 10.976C31.0655 10.7648 30.9887 10.5664 30.9631 10.528C30.9375 10.496 30.9119 10.432 30.9119 10.3808C30.9119 10.24 30.1631 8.672 29.8239 8.096C29.7151 7.9168 29.6127 7.7248 29.5935 7.6608C29.5679 7.6032 29.5295 7.552 29.4975 7.552C29.4655 7.552 29.4399 7.52 29.4399 7.488C29.4399 7.4496 29.3247 7.264 29.1839 7.072C29.0431 6.88 28.9279 6.7072 28.9279 6.688C28.9279 6.6688 28.8575 6.5728 28.7679 6.4768C28.6783 6.3808 28.6079 6.2848 28.6079 6.2528C28.6079 6.2272 28.5311 6.1248 28.4351 6.0224C28.3327 5.9264 28.1663 5.7344 28.0575 5.5936C27.7055 5.1584 26.7135 4.1856 26.1695 3.744C26.0863 3.6736 25.8879 3.5136 25.7279 3.392C25.5679 3.2704 25.4335 3.1488 25.4207 3.1232C25.4079 3.0912 25.3567 3.072 25.3055 3.072C25.2543 3.072 25.2159 3.0464 25.2159 3.008C25.2159 2.976 25.1455 2.9312 25.0559 2.9056C24.9663 2.8864 24.8959 2.848 24.8959 2.8224C24.8959 2.7968 24.7999 2.7264 24.6911 2.656C24.5759 2.592 24.4671 2.5216 24.4479 2.5024C24.4287 2.4768 24.3071 2.4064 24.1791 2.336C24.0447 2.2656 23.9359 2.1888 23.9359 2.1632C23.9359 2.1312 23.8975 2.112 23.8463 2.112C23.7567 2.112 23.3599 1.9264 23.2959 1.8496C23.2767 1.8304 23.1295 1.76 22.9631 1.6896C22.7903 1.6256 22.6559 1.5488 22.6559 1.5168C22.6559 1.4912 22.6111 1.472 22.5599 1.472C22.5087 1.472 22.3039 1.3952 22.0991 1.3056C21.4079 0.998396 21.3055 0.959997 21.1839 0.959997C21.1199 0.959997 21.0495 0.934397 21.0303 0.902397C21.0047 0.870398 20.8703 0.825596 20.7231 0.799997C20.5759 0.774397 20.4095 0.729597 20.3519 0.703997C20.1215 0.582397 19.3599 0.409597 18.7519 0.339197C18.5919 0.319996 18.4255 0.275196 18.3807 0.236797C18.2975 0.166397 14.8415 0.115196 14.0799 0.166397ZM16.1855 6.3808C16.1919 6.4896 16.2239 6.6048 16.2559 6.624C16.2943 6.6432 16.3199 6.7136 16.3199 6.7776C16.3199 6.8864 16.4607 7.4048 16.5759 7.712C16.7039 8.064 16.8319 8.5056 16.8319 8.6016C16.8319 8.6592 16.8639 8.704 16.8959 8.704C16.9343 8.704 16.9599 8.7616 16.9599 8.8256C16.9599 8.9408 17.3631 10.0544 17.5743 10.5408C17.6255 10.6496 17.6639 10.784 17.6639 10.8416C17.6639 10.8992 17.6959 10.944 17.7279 10.944C17.7663 10.944 17.7919 10.9824 17.7919 11.0272C17.7919 11.1104 17.9135 11.4048 18.0543 11.6608C18.0863 11.7248 18.1119 11.8208 18.1119 11.872C18.1119 11.9232 18.1439 11.968 18.1759 11.968C18.2143 11.968 18.2399 12 18.2399 12.0384C18.2399 12.2112 19.3343 14.3936 19.7311 15.0208C19.8271 15.1744 19.9039 15.3344 19.9039 15.392C19.9039 15.4432 19.9231 15.488 19.9551 15.488C19.9807 15.488 20.0575 15.5968 20.1279 15.7248C20.1983 15.8592 20.2687 15.9808 20.2943 16C20.3135 16.0192 20.3839 16.1344 20.4543 16.256C20.5183 16.3776 20.6143 16.5184 20.6591 16.5632C20.6975 16.608 20.7359 16.6912 20.7359 16.7424C20.7359 16.7936 20.7615 16.832 20.7871 16.832C20.8191 16.832 20.8959 16.9344 20.9663 17.056C21.0303 17.1776 21.1071 17.28 21.1327 17.28C21.1647 17.28 21.1839 17.3248 21.1839 17.376C21.1839 17.4272 21.2095 17.472 21.2415 17.472C21.2735 17.472 21.3247 17.536 21.3503 17.6128C21.3695 17.6896 21.4463 17.8112 21.5167 17.8816C21.5807 17.9584 21.7279 18.1504 21.8367 18.3168C21.9391 18.4896 22.0543 18.624 22.0799 18.624C22.1119 18.624 22.1503 18.6752 22.1695 18.7392C22.1951 18.8032 22.2591 18.912 22.3231 18.9824C22.3807 19.0528 22.5343 19.2384 22.6559 19.392C22.7775 19.552 22.8991 19.6864 22.9247 19.6992C22.9503 19.712 22.9759 19.7632 22.9759 19.808C22.9759 19.8528 22.9951 19.904 23.0271 19.9168C23.0527 19.9296 23.2063 20.096 23.3599 20.2816C23.5199 20.4736 23.7375 20.736 23.8527 20.8576C23.9615 20.9856 24.1471 21.1904 24.2559 21.312C24.6463 21.7536 25.3887 22.5472 25.9647 23.1552C26.2847 23.5008 26.5279 23.7824 26.5023 23.7952C26.4767 23.8016 26.2271 23.7248 25.9455 23.616C25.6703 23.5136 25.3887 23.424 25.3311 23.424C25.2671 23.424 25.2159 23.3984 25.2159 23.3664C25.2159 23.3344 25.1007 23.296 24.9599 23.2704C24.8127 23.2512 24.6463 23.2064 24.5887 23.1744C24.4159 23.0848 24.0575 22.9824 23.7567 22.9376C23.6095 22.912 23.4687 22.8672 23.4495 22.8416C23.4303 22.8096 23.3151 22.784 23.1935 22.784C23.0719 22.784 22.9759 22.7584 22.9759 22.7328C22.9759 22.7008 22.7839 22.6432 22.5471 22.5984C22.3039 22.56 21.9839 22.496 21.8239 22.464C20.8063 22.2656 20.3135 22.1888 18.8159 22.016C17.9391 21.9136 13.9455 21.9136 13.1199 22.016C12.7871 22.0608 12.3263 22.1056 12.0959 22.1248C11.8655 22.144 11.6543 22.1824 11.6159 22.2144C11.5839 22.2464 11.4687 22.272 11.3599 22.272C11.1231 22.272 10.0607 22.4576 9.8879 22.528C9.8175 22.56 9.5999 22.6048 9.4079 22.6304C9.2159 22.6496 9.0303 22.6944 8.9919 22.72C8.9599 22.7456 8.8447 22.784 8.7359 22.8032C8.2495 22.8992 7.8143 23.0144 7.7695 23.0592C7.7439 23.0848 7.6543 23.104 7.5775 23.104C7.4943 23.104 7.4175 23.1296 7.3919 23.1616C7.3727 23.2 7.2255 23.2448 7.0719 23.2704C6.9119 23.2896 6.7839 23.3344 6.7839 23.3664C6.7839 23.3984 6.7327 23.424 6.6751 23.424C6.5727 23.424 6.2079 23.5392 5.8559 23.68C5.5935 23.7824 5.5039 23.8016 5.5039 23.744C5.5039 23.712 5.7855 23.4048 6.1311 23.0528C6.4703 22.7072 6.9439 22.208 7.1743 21.9456C7.4111 21.6832 7.7503 21.3184 7.9295 21.1328C8.1087 20.9472 8.2559 20.7808 8.2559 20.7616C8.2559 20.7424 8.3967 20.5824 8.5759 20.3968C8.7487 20.2112 8.8959 20.0384 8.8959 20.0128C8.8959 19.9872 8.9599 19.8976 9.0431 19.8208C9.1263 19.744 9.2863 19.5456 9.4079 19.3728C9.5231 19.2064 9.6447 19.072 9.6767 19.072C9.7023 19.072 9.7279 19.04 9.7279 19.008C9.7279 18.944 9.7791 18.8672 9.9711 18.656C10.0095 18.6112 10.0479 18.5536 10.0479 18.528C10.0479 18.5088 10.1055 18.4256 10.1823 18.3488C10.2527 18.272 10.4447 18.0032 10.6111 17.76C10.7711 17.5104 10.9183 17.2992 10.9439 17.28C11.0015 17.2224 11.1359 16.992 11.1743 16.8768C11.1999 16.8192 11.2319 16.768 11.2575 16.768C11.2831 16.768 11.3535 16.672 11.4239 16.5568C11.4879 16.448 11.5583 16.3392 11.5775 16.32C11.5967 16.3008 11.6479 16.2304 11.6863 16.16C12.0255 15.5392 12.1855 15.2576 12.2175 15.232C12.2687 15.1872 12.5247 14.7456 12.6847 14.4C12.7615 14.24 12.8383 14.0992 12.8575 14.08C12.9279 14.016 13.1199 13.6192 13.1199 13.536C13.1199 13.4912 13.1391 13.44 13.1711 13.4272C13.2351 13.4016 13.4399 12.9984 13.4399 12.8896C13.4399 12.8384 13.4719 12.8 13.5039 12.8C13.5423 12.8 13.5679 12.768 13.5679 12.7296C13.5679 12.6912 13.6575 12.4672 13.7663 12.2304C13.8751 12 13.9839 11.7504 14.0095 11.68C14.0607 11.552 14.1055 11.4496 14.3231 10.944C14.5919 10.336 14.9119 9.4528 14.9119 9.3376C14.9119 9.2736 14.9439 9.216 14.9759 9.216C15.0143 9.216 15.0399 9.1584 15.0399 9.088C15.0399 8.9792 15.0975 8.8064 15.2959 8.288C15.3215 8.2176 15.3919 7.9872 15.4559 7.776C15.5135 7.5648 15.5839 7.3472 15.6031 7.296C15.6351 7.2 15.7695 6.688 15.8655 6.272C15.8911 6.1504 15.9423 5.9776 15.9679 5.888C16.0191 5.7344 16.0255 5.7344 16.1023 5.952C16.1471 6.0736 16.1855 6.2656 16.1855 6.3808Z" fill="white"/>
<path d="M110.368 12.2688C110.157 12.2816 109.958 12.32 109.926 12.3584C109.888 12.3904 109.779 12.416 109.683 12.416C109.485 12.416 109.126 12.5376 108.64 12.7744C108.461 12.8576 108.281 12.928 108.237 12.928C108.198 12.928 108.16 12.9472 108.16 12.9792C108.16 13.0048 108.051 13.0816 107.923 13.152C107.641 13.2992 106.368 14.5152 106.368 14.6368C106.368 14.6816 106.342 14.72 106.31 14.72C106.278 14.72 106.227 14.784 106.201 14.8608C106.176 14.944 106.144 15.0208 106.118 15.04C106.041 15.104 105.856 15.4816 105.856 15.5776C105.856 15.6352 105.837 15.68 105.805 15.68C105.753 15.68 105.606 16.064 105.555 16.352C105.536 16.4544 105.491 16.576 105.459 16.6208C105.369 16.7296 105.325 18.7776 105.395 19.232C105.427 19.4432 105.504 19.776 105.561 19.968C105.625 20.16 105.689 20.3904 105.709 20.48C105.728 20.5696 105.766 20.6528 105.785 20.672C105.805 20.6912 105.92 20.896 106.041 21.1328C106.163 21.3632 106.349 21.6704 106.457 21.7984C106.784 22.208 107.507 22.8992 107.648 22.944C107.718 22.9632 107.776 23.008 107.776 23.0336C107.776 23.0592 107.885 23.136 108.019 23.2064C108.147 23.2704 108.269 23.3408 108.288 23.36C108.358 23.4304 108.755 23.616 108.838 23.616C108.889 23.616 108.928 23.6352 108.928 23.6672C108.928 23.712 109.184 23.7888 109.888 23.9552C110.259 24.0384 112.326 24.0448 112.704 23.9552C113.35 23.8016 114.425 23.3344 114.688 23.0912C114.752 23.0272 114.841 22.976 114.873 22.976C114.969 22.976 116.096 21.824 116.096 21.7216C116.096 21.6192 115.865 21.3888 115.699 21.3376C115.635 21.3184 115.584 21.2736 115.584 21.2416C115.584 21.2096 115.552 21.184 115.513 21.184C115.475 21.184 115.405 21.1456 115.36 21.1008C115.193 20.96 114.925 20.7744 114.765 20.6976C114.72 20.672 114.483 20.864 114.182 21.1776C113.901 21.4592 113.632 21.696 113.574 21.696C113.517 21.696 113.472 21.7152 113.472 21.7472C113.472 21.7984 113.005 22.016 112.896 22.016C112.857 22.016 112.832 22.0416 112.832 22.08C112.832 22.112 112.749 22.144 112.653 22.144C112.557 22.144 112.435 22.1824 112.397 22.2208C112.339 22.2784 112.025 22.304 111.296 22.304C110.566 22.304 110.253 22.2784 110.201 22.2208C110.157 22.1824 110.035 22.144 109.939 22.144C109.843 22.144 109.76 22.1184 109.76 22.08C109.76 22.048 109.657 22.0032 109.536 21.9776C109.414 21.9584 109.312 21.9136 109.312 21.8816C109.312 21.8496 109.267 21.824 109.216 21.824C109.165 21.824 109.12 21.792 109.12 21.76C109.12 21.7216 109.075 21.696 109.024 21.696C108.851 21.696 107.872 20.6528 107.737 20.3264C107.673 20.1664 107.597 20.032 107.571 20.032C107.552 20.032 107.513 19.9168 107.488 19.776C107.462 19.6352 107.417 19.5072 107.385 19.4816C107.353 19.4624 107.328 19.3216 107.328 19.1616C107.328 19.008 107.296 18.88 107.257 18.88C107.136 18.88 107.264 16.9472 107.398 16.8C107.43 16.768 107.456 16.6976 107.456 16.64C107.456 16.5888 107.501 16.4608 107.552 16.3584C107.603 16.2624 107.648 16.1344 107.648 16.0896C107.648 16.0384 107.673 16 107.705 16C107.737 16 107.789 15.9424 107.808 15.8656C107.917 15.5328 108.947 14.528 109.177 14.528C109.216 14.528 109.248 14.5024 109.248 14.4704C109.248 14.4384 109.299 14.4 109.363 14.3808C109.421 14.3616 109.6 14.2976 109.76 14.24C110.285 14.0416 110.745 13.9584 111.296 13.9584C111.846 13.9584 112.307 14.0416 112.832 14.24C112.992 14.2976 113.171 14.3616 113.235 14.3808C113.293 14.4 113.344 14.432 113.344 14.4576C113.344 14.4832 113.446 14.5536 113.568 14.6176C113.689 14.688 113.792 14.7648 113.792 14.7968C113.792 14.8224 113.824 14.848 113.862 14.848C113.939 14.848 114.169 15.0784 114.509 15.4752L114.675 15.68L114.893 15.5712C115.008 15.5072 115.117 15.4432 115.136 15.424C115.161 15.392 115.481 15.1936 116.013 14.8672C116.243 14.7328 116.134 14.528 115.411 13.7856C115.232 13.5936 115.059 13.44 115.021 13.44C114.989 13.44 114.912 13.3888 114.854 13.3184C114.765 13.2224 114.214 12.928 113.408 12.544C113.35 12.5184 113.177 12.4736 113.024 12.448C112.864 12.4224 112.704 12.3776 112.665 12.3456C112.589 12.2816 110.931 12.224 110.368 12.2688Z" fill="white"/>
<path d="M46.1567 12.4928C46.1119 12.5376 46.0799 12.6208 46.0799 12.6784C46.0799 12.7424 46.0543 12.8064 46.0223 12.832C45.9903 12.8512 45.9455 12.9536 45.9199 13.056C45.8943 13.1648 45.8495 13.248 45.8175 13.248C45.7855 13.248 45.7599 13.3184 45.7599 13.408C45.7599 13.4976 45.7343 13.568 45.6959 13.568C45.6639 13.568 45.6191 13.6704 45.5935 13.792C45.5743 13.9136 45.5295 14.016 45.4975 14.016C45.4655 14.016 45.4399 14.0544 45.4399 14.0992C45.4399 14.1824 45.3183 14.4768 45.1775 14.7328C45.1455 14.7968 45.1199 14.8928 45.1199 14.944C45.1199 14.9952 45.0943 15.04 45.0623 15.04C45.0303 15.04 44.9855 15.1424 44.9663 15.264C44.9407 15.3856 44.8959 15.488 44.8639 15.488C44.8255 15.488 44.7999 15.5456 44.7999 15.6096C44.7999 15.68 44.7615 15.8144 44.7103 15.9168C44.6207 16.0832 44.4735 16.4224 44.2431 16.96C44.1535 17.1776 44.1023 17.2864 43.8783 17.8048C43.8207 17.9328 43.7759 18.08 43.7759 18.1376C43.7759 18.1952 43.7503 18.24 43.7119 18.24C43.6799 18.24 43.6479 18.2784 43.6479 18.3232C43.6479 18.4064 43.5263 18.7008 43.3855 18.9568C43.3535 19.0208 43.3279 19.1168 43.3279 19.168C43.3279 19.2192 43.3023 19.264 43.2703 19.264C43.2383 19.264 43.1935 19.3664 43.1743 19.488C43.1487 19.6096 43.1039 19.712 43.0719 19.712C43.0335 19.712 43.0079 19.7824 43.0079 19.872C43.0079 19.9616 42.9823 20.032 42.9439 20.032C42.9119 20.032 42.8799 20.064 42.8799 20.1024C42.8799 20.1408 42.8351 20.2688 42.7839 20.3904C42.7327 20.512 42.6431 20.704 42.5919 20.8256C42.5407 20.9472 42.4959 21.0752 42.4959 21.1136C42.4959 21.152 42.4703 21.184 42.4319 21.184C42.3999 21.184 42.3679 21.2544 42.3679 21.344C42.3679 21.4336 42.3423 21.504 42.3103 21.504C42.2783 21.504 42.2335 21.6064 42.2143 21.728C42.1887 21.8496 42.1439 21.952 42.1119 21.952C42.0735 21.952 42.0479 22.0224 42.0479 22.112C42.0479 22.2016 42.0223 22.272 41.9903 22.272C41.9583 22.272 41.9135 22.3552 41.8879 22.464C41.8623 22.5664 41.8175 22.6688 41.7855 22.688C41.7535 22.7136 41.7279 22.7712 41.7279 22.8224C41.7279 22.8736 41.6575 23.0592 41.5743 23.232C41.4847 23.4112 41.3951 23.6416 41.3759 23.744L41.3311 23.936H42.2335H43.1295L43.3279 23.5136C43.4303 23.2832 43.5199 23.0528 43.5199 23.0016C43.5199 22.9504 43.5519 22.912 43.5839 22.912C43.6223 22.912 43.6479 22.8736 43.6479 22.8224C43.6479 22.7776 43.6927 22.6496 43.7439 22.5536C43.7951 22.4512 43.8399 22.3168 43.8399 22.2528C43.8399 22.1952 43.8655 22.144 43.8975 22.144C43.9295 22.144 43.9679 22.08 43.9871 21.9968C44.0319 21.8048 44.1855 21.4144 44.2303 21.376C44.2495 21.3568 44.2879 21.2672 44.3135 21.1648L44.3519 20.992H47.2255C50.3167 20.992 50.1887 20.9792 50.2719 21.3312C50.2975 21.4336 50.3871 21.6576 50.4703 21.8304C50.5535 22.0032 50.6239 22.1888 50.6239 22.24C50.6239 22.2912 50.6559 22.336 50.6879 22.336C50.7263 22.336 50.7519 22.3808 50.7519 22.432C50.7519 22.4832 50.7967 22.6304 50.8607 22.7648C50.9183 22.8992 51.0335 23.168 51.1167 23.36C51.1999 23.552 51.2959 23.7568 51.3215 23.808C51.3663 23.8848 51.5519 23.9104 52.2815 23.9232L53.1839 23.9424V23.7888C53.1839 23.648 53.0879 23.392 52.9215 23.0912C52.8895 23.0272 52.8639 22.9312 52.8639 22.88C52.8639 22.8288 52.8383 22.784 52.7999 22.784C52.7679 22.784 52.7359 22.7328 52.7359 22.6688C52.7359 22.6112 52.6911 22.4768 52.6399 22.3744C52.5887 22.2784 52.5439 22.1504 52.5439 22.1056C52.5439 22.0544 52.5183 22.016 52.4863 22.016C52.4543 22.016 52.4095 21.9456 52.3903 21.856C52.3647 21.7664 52.2751 21.536 52.1919 21.344C52.1023 21.1584 52.0319 20.9536 52.0319 20.9024C52.0319 20.8448 52.0063 20.8 51.9679 20.8C51.9359 20.8 51.9039 20.7424 51.9039 20.672C51.9039 20.6016 51.8783 20.544 51.8463 20.544C51.8143 20.544 51.7695 20.4288 51.7439 20.288C51.7183 20.1472 51.6799 20.032 51.6543 20.032C51.6159 20.032 51.3919 19.5584 51.3919 19.4688C51.3919 19.4368 51.3215 19.264 51.2319 19.0848C51.1423 18.8992 51.0719 18.7072 51.0719 18.656C51.0719 18.6048 51.0463 18.56 51.0079 18.56C50.9759 18.56 50.9439 18.5088 50.9439 18.4448C50.9439 18.3808 50.8991 18.272 50.8479 18.2016C50.7967 18.1376 50.7519 18.016 50.7519 17.9328C50.7519 17.856 50.7327 17.792 50.7071 17.792C50.6751 17.792 50.6047 17.6576 50.5343 17.4848C50.3487 17.0048 50.2399 16.7424 50.1759 16.6272C50.1375 16.5632 50.1119 16.4672 50.1119 16.416C50.1119 16.3648 50.0863 16.32 50.0543 16.32C50.0223 16.32 49.9839 16.256 49.9647 16.1728C49.9199 15.9808 49.7663 15.5904 49.7215 15.552C49.6959 15.5328 49.6575 15.4496 49.6319 15.36C49.5743 15.1808 49.3055 14.5536 49.2159 14.3872C49.1775 14.3232 49.1519 14.2272 49.1519 14.176C49.1519 14.1248 49.1263 14.08 49.0943 14.08C49.0623 14.08 49.0175 13.9648 48.9919 13.824C48.9663 13.6832 48.9279 13.568 48.9023 13.568C48.8639 13.568 48.6399 13.0944 48.6399 13.0048C48.6399 12.9088 48.4799 12.608 48.4351 12.608C48.4031 12.608 48.3839 12.5632 48.3839 12.512C48.3839 12.4288 48.2239 12.416 47.3087 12.416C46.5599 12.416 46.2079 12.4416 46.1567 12.4928ZM47.3599 14.368C47.3599 14.4128 47.3983 14.5344 47.4495 14.6368C47.6095 14.944 47.8719 15.552 47.8719 15.6032C47.8719 15.6352 47.9423 15.808 48.0319 15.9872C48.1215 16.1728 48.1919 16.3648 48.1919 16.416C48.1919 16.4672 48.2239 16.512 48.2559 16.512C48.2943 16.512 48.3199 16.5632 48.3199 16.6208C48.3199 16.6848 48.3647 16.8192 48.4159 16.9216C48.4671 17.0176 48.5119 17.1456 48.5119 17.1904C48.5119 17.2416 48.5439 17.28 48.5759 17.28C48.6143 17.28 48.6399 17.3248 48.6399 17.3824C48.6399 17.4848 48.6655 17.5552 48.9535 18.2016C49.1583 18.6496 49.3439 19.1296 49.3439 19.2C49.3439 19.2384 48.5439 19.264 47.2319 19.264C45.3951 19.264 45.1199 19.2512 45.1199 19.168C45.1199 19.1168 45.1519 19.072 45.1839 19.072C45.2223 19.072 45.2479 19.0208 45.2479 18.9568C45.2479 18.8992 45.2927 18.7648 45.3439 18.6624C45.3951 18.5664 45.4399 18.4384 45.4399 18.3936C45.4399 18.3424 45.4655 18.304 45.4975 18.304C45.5295 18.304 45.5807 18.2144 45.5999 18.0992C45.6255 17.984 45.6703 17.8496 45.7023 17.792C45.7279 17.7408 45.8303 17.5232 45.9199 17.312C46.0159 17.1008 46.1119 16.8832 46.1375 16.832C46.1695 16.7744 46.2143 16.64 46.2399 16.5248C46.2591 16.4096 46.3103 16.32 46.3423 16.32C46.3743 16.32 46.3999 16.2496 46.3999 16.16C46.3999 16.0704 46.4255 16 46.4639 16C46.4959 16 46.5407 15.8976 46.5663 15.776C46.5855 15.6544 46.6303 15.552 46.6623 15.552C46.6943 15.552 46.7199 15.5072 46.7199 15.456C46.7199 15.4048 46.7455 15.3088 46.7839 15.2448C46.8735 15.0784 47.0207 14.7072 47.0719 14.528C47.1551 14.2336 47.3599 14.1184 47.3599 14.368Z" fill="white"/>
<path d="M54.8481 18.0736C54.8481 21.184 54.8673 23.776 54.8865 23.8336C54.9249 23.9232 55.3601 23.936 59.1745 23.936H63.4241V23.072V22.208L60.0513 22.1952L56.6721 22.176L56.6529 17.2928L56.6401 12.416H55.7441H54.8481V18.0736Z" fill="white"/>
<path d="M65.1519 18.176V23.936L69.4271 23.9232L73.6959 23.904L73.7151 23.0592L73.7343 22.208L70.3551 22.1952L66.9759 22.176L66.9567 17.2928L66.9439 12.416H66.0479H65.1519V18.176Z" fill="white"/>
<path d="M75.4561 18.176V23.9424L76.3393 23.9232L77.216 23.904L77.2352 18.1568L77.248 12.416H76.3521H75.4561V18.176Z" fill="white"/>
<path d="M83.7116 12.512C83.7116 12.5632 83.686 12.608 83.6476 12.608C83.6156 12.608 83.5836 12.6528 83.5836 12.704C83.5836 12.7552 83.558 12.8512 83.5196 12.9152C83.4364 13.0624 83.1996 13.6192 83.1996 13.6576C83.1996 13.7024 82.8988 14.3872 82.8156 14.5408C82.7772 14.6048 82.7516 14.7008 82.7516 14.752C82.7516 14.8032 82.726 14.848 82.6876 14.848C82.6556 14.848 82.6236 14.8864 82.6236 14.9312C82.6236 15.0016 82.4572 15.4176 82.0732 16.32C82.0156 16.4416 81.9388 16.6272 81.894 16.736C81.8492 16.8384 81.7788 16.9984 81.7404 17.088C81.702 17.1776 81.606 17.3888 81.5356 17.568C81.4076 17.8688 81.318 18.0608 81.062 18.6368C81.0044 18.7648 80.9596 18.912 80.9596 18.9696C80.9596 19.0272 80.934 19.072 80.8956 19.072C80.8636 19.072 80.8316 19.1168 80.8316 19.168C80.8316 19.2192 80.806 19.3152 80.7676 19.3792C80.6844 19.5328 80.3836 20.2176 80.3836 20.2624C80.3836 20.3008 80.1468 20.8576 80.0636 21.0048C80.0252 21.0688 79.9996 21.1648 79.9996 21.216C79.9996 21.2672 79.974 21.312 79.942 21.312C79.91 21.312 79.8652 21.3824 79.846 21.472C79.8204 21.5616 79.7308 21.792 79.6476 21.984C79.558 22.1696 79.4876 22.3424 79.4876 22.3616C79.4876 22.3872 79.43 22.5408 79.3532 22.7072C79.2764 22.8736 79.174 23.1104 79.1164 23.232C79.0652 23.3536 78.9948 23.5072 78.9692 23.5648C78.9372 23.6288 78.9116 23.7376 78.9116 23.808C78.9116 23.9296 78.95 23.936 79.7948 23.936C80.6524 23.936 80.6844 23.9296 80.7484 23.7888C80.8124 23.6672 80.8828 23.488 81.0876 23.008C81.1132 22.9376 81.1836 22.7648 81.2476 22.624C81.3052 22.4832 81.3756 22.3104 81.4076 22.24C81.4332 22.1696 81.5036 22.0096 81.5612 21.8752C81.6188 21.7472 81.6636 21.6128 81.6636 21.5744C81.6636 21.536 81.6956 21.504 81.7276 21.504C81.766 21.504 81.7916 21.4336 81.7916 21.344C81.7916 21.2544 81.8236 21.184 81.8556 21.184C81.894 21.184 81.9196 21.1392 81.9196 21.088C81.9196 21.0048 82.278 20.992 84.7868 20.992H87.6605L87.7309 21.152C87.7757 21.2416 87.8077 21.3568 87.8077 21.408C87.8077 21.4592 87.8397 21.504 87.8717 21.504C87.9101 21.504 87.9357 21.5616 87.9357 21.6256C87.9357 21.696 87.9613 21.7664 87.9933 21.7856C88.0253 21.8048 88.0701 21.8944 88.0893 21.984C88.1341 22.1504 88.3965 22.784 88.5117 22.9888C88.5501 23.0528 88.5757 23.1296 88.5757 23.168C88.5757 23.2 88.6525 23.3856 88.7421 23.584L88.9085 23.936H89.8237C90.5789 23.936 90.7453 23.9168 90.7773 23.84C90.7965 23.7888 90.7837 23.744 90.7517 23.744C90.7133 23.744 90.6877 23.6736 90.6877 23.584C90.6877 23.4944 90.6621 23.424 90.6237 23.424C90.5917 23.424 90.5469 23.3216 90.5213 23.2C90.5021 23.0784 90.4573 22.976 90.4253 22.976C90.3933 22.976 90.3677 22.9056 90.3677 22.816C90.3677 22.7264 90.3421 22.656 90.3101 22.656C90.2781 22.656 90.2333 22.5856 90.2141 22.496C90.1885 22.4064 90.0989 22.1696 90.0093 21.9648C89.7981 21.4912 89.7149 21.2992 89.4333 20.64C89.3757 20.4992 89.2733 20.2688 89.2093 20.1344C89.1389 19.9936 89.0877 19.8592 89.0877 19.8272C89.0877 19.8016 89.0109 19.616 88.9213 19.4112C88.7421 19.0208 88.6333 18.7584 88.5245 18.496C88.4861 18.4064 88.3837 18.176 88.2941 17.984C88.2045 17.792 88.1149 17.5552 88.0893 17.4528C88.0701 17.3568 88.0253 17.28 87.9933 17.28C87.9613 17.28 87.9357 17.2096 87.9357 17.12C87.9357 17.0304 87.9101 16.96 87.8717 16.96C87.8397 16.96 87.7949 16.8576 87.7693 16.736C87.7501 16.6144 87.7053 16.512 87.6733 16.512C87.6413 16.512 87.6157 16.4672 87.6157 16.416C87.6157 16.3648 87.5901 16.2688 87.5517 16.2048C87.5005 16.1024 87.4045 15.8848 87.1869 15.36C87.1357 15.2384 87.0717 15.0848 87.0397 15.0272C87.0013 14.9632 86.9757 14.8672 86.9757 14.816C86.9757 14.7648 86.9501 14.72 86.9181 14.72C86.8861 14.72 86.8413 14.6368 86.8157 14.528C86.7773 14.3552 86.5469 13.824 86.3997 13.5552C86.3613 13.4912 86.3357 13.4144 86.3357 13.376C86.3357 13.344 86.2653 13.1648 86.1821 12.9792C86.0989 12.7936 86.0157 12.5888 85.9901 12.5248C85.9581 12.4288 85.8429 12.416 84.8317 12.416C83.878 12.416 83.7116 12.4288 83.7116 12.512ZM84.8637 14.304C84.8637 14.3552 84.8893 14.4 84.9213 14.4C84.9533 14.4 84.9981 14.5152 85.0237 14.656C85.0493 14.7968 85.0941 14.912 85.1261 14.912C85.1581 14.912 85.1837 14.9504 85.1837 15.0016C85.1837 15.0464 85.2285 15.1744 85.2797 15.2704C85.3309 15.3728 85.3757 15.5072 85.3757 15.5648C85.3757 15.6288 85.4077 15.68 85.4397 15.68C85.4781 15.68 85.5037 15.7248 85.5037 15.776C85.5037 15.8272 85.5293 15.9232 85.5677 15.9872C85.6509 16.1408 85.9517 16.832 85.9517 16.8704C85.9517 16.8896 85.9965 17.0112 86.0541 17.1392C86.2141 17.5168 86.3101 17.7472 86.3997 17.952C86.4445 18.0544 86.5213 18.2208 86.5661 18.3168C86.6173 18.4064 86.6557 18.5472 86.6557 18.6176C86.6557 18.6944 86.6877 18.752 86.7197 18.752C86.7581 18.752 86.7837 18.7904 86.7837 18.8288C86.7837 18.8736 86.8285 18.9888 86.8733 19.0848L86.9693 19.264H84.7868C83.0524 19.264 82.6236 19.2448 82.6748 19.1808C82.7068 19.1424 82.758 19.0336 82.7836 18.944C82.8092 18.8544 82.886 18.656 82.9564 18.496C83.1164 18.144 83.2316 17.8752 83.3148 17.664C83.3532 17.5744 83.43 17.3888 83.4876 17.248C83.5516 17.1072 83.622 16.9344 83.6476 16.864C83.6796 16.7936 83.75 16.6272 83.8012 16.4928C83.8588 16.3648 83.9484 16.1472 83.9996 16.0128C84.0572 15.8848 84.1276 15.7248 84.1596 15.6672C84.198 15.6032 84.2236 15.5072 84.2236 15.456C84.2236 15.4048 84.2556 15.36 84.2876 15.36C84.326 15.36 84.3516 15.3152 84.3516 15.2576C84.3516 15.2 84.3964 15.0528 84.454 14.9248C84.5116 14.7904 84.6076 14.5792 84.6652 14.4512C84.774 14.2016 84.8637 14.1376 84.8637 14.304Z" fill="white"/>
<path d="M92.4288 18.1568L92.448 23.904H93.312H94.176L94.208 19.68L94.24 15.456L94.4192 15.648C94.5152 15.7504 94.592 15.8656 94.592 15.8912C94.592 15.9232 94.6944 16.0384 94.816 16.1536C94.9376 16.2752 95.04 16.384 95.04 16.4096C95.04 16.448 95.2704 16.7232 95.4752 16.9344C95.5136 16.9792 95.552 17.0432 95.552 17.0752C95.552 17.1136 95.5712 17.152 95.6032 17.1648C95.648 17.184 95.8784 17.4464 96.2432 17.9072C96.3648 18.048 96.5056 18.2272 96.5632 18.2976C96.6272 18.368 96.7296 18.5024 96.8 18.5984C96.8704 18.7008 96.9728 18.8224 97.024 18.88C97.0816 18.9376 97.2096 19.0912 97.312 19.232C97.4208 19.3728 97.568 19.5456 97.6512 19.6224C97.728 19.6992 97.792 19.7824 97.792 19.8144C97.7984 19.8464 97.9136 19.9872 98.048 20.128C98.1888 20.2688 98.304 20.4096 98.304 20.4416C98.304 20.4736 98.3552 20.544 98.4192 20.6016C98.4832 20.6592 98.6304 20.832 98.752 20.992C98.8736 21.152 99.0272 21.3376 99.0848 21.408C99.296 21.6576 99.424 21.8176 99.584 22.0224C99.6736 22.1376 99.8016 22.2912 99.872 22.368C99.9424 22.4384 100.102 22.6304 100.224 22.784C100.55 23.2 100.621 23.296 100.794 23.4816C100.877 23.5712 100.986 23.712 101.037 23.7888C101.133 23.9296 101.178 23.936 101.958 23.936H102.784V18.176V12.416H101.888H100.992V16.576C100.992 18.9312 100.966 20.736 100.934 20.736C100.902 20.736 100.8 20.6272 100.698 20.4928C100.602 20.3648 100.454 20.192 100.371 20.1152C100.288 20.0384 100.224 19.9552 100.224 19.936C100.224 19.9104 100.186 19.8592 100.147 19.808C100.102 19.7632 99.9936 19.6288 99.904 19.5136C99.8144 19.3984 99.6864 19.2448 99.616 19.168C99.5456 19.0976 99.3856 18.9056 99.264 18.752C98.9632 18.368 98.8736 18.2528 98.72 18.0736C98.6496 17.9968 98.5344 17.8496 98.464 17.7536C98.3936 17.6512 98.2912 17.5296 98.24 17.472C98.1824 17.4144 98.0544 17.2608 97.952 17.12C97.8432 16.9792 97.696 16.8064 97.6192 16.7296C97.536 16.6528 97.472 16.576 97.472 16.5504C97.472 16.512 97.2736 16.2624 97.0752 16.0512C97.0112 15.9872 96.96 15.9168 96.96 15.8976C96.96 15.872 96.9088 15.808 96.8448 15.7504C96.7808 15.6928 96.6336 15.52 96.512 15.36C96.3904 15.2 96.2624 15.04 96.224 15.0016C96.192 14.9632 96.0576 14.8096 95.936 14.656C95.8144 14.5024 95.6736 14.3424 95.6352 14.2976C95.5904 14.2528 95.552 14.2016 95.552 14.1824C95.552 14.1696 95.4496 14.048 95.328 13.9136C95.2064 13.7856 95.104 13.6576 95.104 13.6256C95.104 13.6 95.0272 13.4976 94.9248 13.3952C94.8288 13.2992 94.6688 13.1072 94.5728 12.9728C94.1376 12.3904 94.1952 12.416 93.2544 12.416H92.416L92.4288 18.1568Z" fill="white"/>
<path d="M118.477 18.1568L118.496 23.904H122.848H127.2L127.219 23.0848L127.238 22.272H123.827C121.952 22.272 120.377 22.2464 120.333 22.2208C120.275 22.176 120.256 21.8048 120.269 20.5696L120.288 18.976L123.763 18.9568L127.232 18.944V18.112V17.28L123.763 17.2672L120.288 17.248V15.68V14.112L123.763 14.0928L127.232 14.08V13.248V12.416H122.848H118.464L118.477 18.1568Z" fill="white"/>
</svg>
