<svg width="160" height="24" viewBox="0 0 160 24" fill="none" xmlns="http://www.w3.org/2000/svg">
<path fill-rule="evenodd" clip-rule="evenodd" d="M8.13584 15.7164C8.4381 16.3777 8.8281 16.9749 9.29367 17.4984C8.26715 18.0507 7.19136 18.297 6.01861 18.297C2.53098 18.297 0 15.9988 0 12.3308C0 8.63672 2.66013 6.33853 6.01861 6.33853C7.21373 6.33853 8.15625 6.598 9.10583 7.10557C8.66303 7.64926 8.29776 8.26615 8.02023 8.94527C7.4473 8.71582 6.85769 8.6114 6.25041 8.6114C4.18401 8.6114 2.5824 9.92881 2.5824 12.3308C2.5824 14.6037 4.13259 16.0503 6.35424 16.0503C6.99076 16.0503 7.57841 15.935 8.13584 15.7164ZM15.1499 6.33853C18.585 6.33853 21.0647 8.76666 21.0647 12.3308C21.0647 15.8697 18.585 18.297 15.1499 18.297C11.741 18.297 9.26146 15.8697 9.26146 12.3308C9.26146 8.76666 11.741 6.33853 15.1499 6.33853ZM15.1499 8.53387C13.2388 8.53387 11.8439 10.0065 11.8439 12.3308C11.8439 14.63 13.2388 16.1017 15.1499 16.1017C17.1135 16.1017 18.4823 14.63 18.4823 12.3308C18.4823 10.0065 17.1135 8.53387 15.1499 8.53387ZM22.6923 18.0389V6.59655H25.2486V18.0389H22.6923ZM22.3559 3.0838C22.3559 2.20586 23.1057 1.50849 23.9575 1.50849C24.8102 1.50849 25.5591 2.20586 25.5591 3.0838C25.5591 3.98804 24.8102 4.71171 23.9575 4.71171C23.1057 4.71171 22.3559 3.98804 22.3559 3.0838ZM27.4794 7.32028C29.081 6.70044 31.0445 6.33851 32.7227 6.33851C35.6417 6.33851 37.5014 7.44923 37.5014 10.6778V18.0389H34.9704V10.9106C34.9704 9.25752 33.9372 8.66281 32.5162 8.66281C31.612 8.66281 30.7089 8.79196 30.0366 8.99863V18.0389H27.4794V7.32028ZM39.6427 0.47525H42.199V6.90702C42.7413 6.62281 43.8006 6.3386 44.8075 6.3386C48.1137 6.3386 50.5933 8.45623 50.5933 12.1242C50.5933 15.8174 48.1399 18.2969 43.9044 18.2969C42.2514 18.2969 40.805 17.9613 39.6427 17.5481V0.47525ZM42.199 15.8698C42.6899 16.024 43.336 16.1016 43.981 16.1016C46.3316 16.1016 48.0109 14.8105 48.0109 12.1757C48.0109 9.95401 46.4354 8.6368 44.4981 8.6368C43.4911 8.6368 42.716 8.89569 42.199 9.17989V15.8698ZM57.9796 10.3674C57.9796 9.12755 57.0492 8.56011 55.7842 8.56011C54.4668 8.56011 53.4336 8.94717 52.4782 9.48948V7.26783C53.4851 6.7004 54.7764 6.33847 56.1976 6.33847C58.7023 6.33847 60.4845 7.37166 60.4845 10.2383V17.8061C59.3998 18.0903 57.8506 18.2717 56.5593 18.2717C53.5889 18.2717 51.4189 17.3676 51.4189 14.7842C51.4189 12.4599 53.4075 11.3239 56.7136 11.3239H57.9796V10.3674ZM57.9796 13.0283H56.895C55.112 13.0283 53.9498 13.5443 53.9498 14.7067C53.9498 15.8949 55.0352 16.3597 56.5846 16.3597C56.9727 16.3597 57.515 16.3083 57.9796 16.2306V13.0283ZM62.3441 14.9394C63.4034 15.7399 64.6684 16.2307 65.8306 16.2307C66.9676 16.2307 67.7166 15.8435 67.7166 14.9394C67.7166 14.0091 67.0451 13.6735 65.5727 13.2864C63.1968 12.7441 62.1889 11.7886 62.1889 9.79975C62.1889 7.47447 63.9457 6.33862 66.27 6.33862C67.5613 6.33862 68.5945 6.62283 69.55 7.21657V9.56697C68.5431 8.84428 67.5613 8.40482 66.3478 8.40482C65.237 8.40482 64.6433 8.94713 64.6433 9.69612C64.6433 10.4449 65.1332 10.833 66.4506 11.1939C69.0601 11.7623 70.1961 12.7441 70.1961 14.8105C70.1961 17.2123 68.3625 18.2969 65.883 18.2969C64.5395 18.2969 63.1968 17.936 62.3441 17.3676V14.9394ZM73.6958 12.8993V12.9507C73.8511 14.9908 75.607 16.1015 77.389 16.1015C78.9645 16.1015 80.1013 15.7398 81.2373 14.9908V17.2386C80.2041 17.9613 78.6803 18.2969 77.2086 18.2969C73.6444 18.2969 71.2163 16.024 71.2163 12.4084C71.2163 8.76671 73.592 6.33858 76.7438 6.33858C80.0752 6.33858 81.6507 8.48251 81.6507 11.6072V12.8993H73.6958ZM79.2487 11.2463C79.1973 9.4633 78.3193 8.48251 76.6663 8.48251C75.1936 8.48251 74.1092 9.5157 73.7734 11.2463H79.2487Z" fill="white"/>
<path d="M91.6041 0.415842C91.6041 0.186179 91.418 0 91.1883 0C90.9586 0 90.7725 0.186179 90.7725 0.415842V23.5842C90.7725 23.8138 90.9586 24 91.1883 24C91.418 24 91.6041 23.8138 91.6041 23.5842V0.415842Z" fill="white"/>
<path d="M105.945 18.0594H104.521L100.113 6.6264H101.403L105.252 16.8661L109.102 6.6264H110.353L105.945 18.0594ZM117.356 13.9212H111.004V13.9597C111.004 16.0192 112.486 17.2318 114.122 17.2318C115.316 17.2318 116.143 16.9238 116.99 16.2887V17.4435C116.24 18.0017 115.162 18.2519 114.122 18.2519C111.697 18.2519 109.849 16.5966 109.849 13.8635C109.849 11.342 111.582 9.47504 113.834 9.47504C115.951 9.47504 117.356 10.7454 117.356 13.1321V13.9212ZM111.081 12.9588H116.201C116.124 11.2073 115.181 10.4952 113.776 10.4952C112.467 10.4952 111.408 11.3805 111.081 12.9588ZM118.642 18.0594V10.1102C119.759 9.70601 121.029 9.47504 122.165 9.47504C124.282 9.47504 125.571 10.3027 125.571 12.4007V18.0594H124.417V12.6316C124.417 10.9186 123.204 10.5529 122.068 10.5529C121.183 10.5529 120.394 10.7069 119.797 10.8609V18.0594H118.642ZM126.28 10.6491V9.66751H127.57V7.62727H128.725V9.66751H131.092V10.6491H128.725V15.769C128.725 16.8468 129.148 17.2703 129.937 17.2703C130.476 17.2703 130.919 17.0971 131.496 16.8083V17.8285C130.996 18.0787 130.419 18.2519 129.687 18.2519C128.475 18.2519 127.57 17.6167 127.57 15.8845V10.6491H126.28ZM139.135 9.66751V17.9632C138.114 18.1557 137.075 18.2519 136.209 18.2519C133.784 18.2519 132.398 17.4243 132.398 15.3263V9.66751H133.553V15.2685C133.553 16.8468 134.804 17.251 136.132 17.251C136.709 17.251 137.364 17.2125 137.98 17.1356V9.66751H139.135ZM142.249 11.0533V18.0594H141.095V10.4374C141.98 9.87924 143.058 9.53278 144.213 9.53278C144.675 9.53278 145.137 9.59052 145.618 9.70601V10.8416C145.117 10.6684 144.521 10.6299 144.136 10.6299C143.308 10.6299 142.692 10.8031 142.249 11.0533ZM153.102 13.9212H146.75V13.9597C146.75 16.0192 148.232 17.2318 149.868 17.2318C151.062 17.2318 151.889 16.9238 152.736 16.2887V17.4435C151.986 18.0017 150.908 18.2519 149.868 18.2519C147.443 18.2519 145.595 16.5966 145.595 13.8635C145.595 11.342 147.328 9.47504 149.58 9.47504C151.697 9.47504 153.102 10.7454 153.102 13.1321V13.9212ZM146.827 12.9588H151.947C151.87 11.2073 150.927 10.4952 149.522 10.4952C148.213 10.4952 147.154 11.3805 146.827 12.9588ZM153.984 17.5782V16.2694C154.696 16.9046 155.428 17.2703 156.352 17.2703C157.41 17.2703 158.084 16.8661 158.084 15.923C158.084 14.9221 157.352 14.6526 156.024 14.2099C154.542 13.7095 153.907 13.0936 153.907 11.7462C153.907 10.2642 155.023 9.47504 156.544 9.47504C157.372 9.47504 158.18 9.64826 158.834 10.1102V11.3613C158.18 10.8224 157.506 10.4567 156.544 10.4567C155.62 10.4567 155.023 10.9571 155.023 11.7462C155.023 12.5161 155.485 12.9203 156.775 13.3245C158.238 13.7672 159.219 14.3254 159.219 15.846C159.219 17.5013 157.93 18.2519 156.352 18.2519C155.408 18.2519 154.504 17.9824 153.984 17.5782Z" fill="#202A36"/>
<path d="M105.945 18.0594H104.521L100.113 6.6264H101.403L105.252 16.8661L109.102 6.6264H110.353L105.945 18.0594ZM117.356 13.9212H111.004V13.9597C111.004 16.0192 112.486 17.2318 114.122 17.2318C115.316 17.2318 116.143 16.9238 116.99 16.2887V17.4435C116.24 18.0017 115.162 18.2519 114.122 18.2519C111.697 18.2519 109.849 16.5966 109.849 13.8635C109.849 11.342 111.582 9.47504 113.834 9.47504C115.951 9.47504 117.356 10.7454 117.356 13.1321V13.9212ZM111.081 12.9588H116.201C116.124 11.2073 115.181 10.4952 113.776 10.4952C112.467 10.4952 111.408 11.3805 111.081 12.9588ZM118.642 18.0594V10.1102C119.759 9.70601 121.029 9.47504 122.165 9.47504C124.282 9.47504 125.571 10.3027 125.571 12.4007V18.0594H124.417V12.6316C124.417 10.9186 123.204 10.5529 122.068 10.5529C121.183 10.5529 120.394 10.7069 119.797 10.8609V18.0594H118.642ZM126.28 10.6491V9.66751H127.57V7.62727H128.725V9.66751H131.092V10.6491H128.725V15.769C128.725 16.8468 129.148 17.2703 129.937 17.2703C130.476 17.2703 130.919 17.0971 131.496 16.8083V17.8285C130.996 18.0787 130.419 18.2519 129.687 18.2519C128.475 18.2519 127.57 17.6167 127.57 15.8845V10.6491H126.28ZM139.135 9.66751V17.9632C138.114 18.1557 137.075 18.2519 136.209 18.2519C133.784 18.2519 132.398 17.4243 132.398 15.3263V9.66751H133.553V15.2685C133.553 16.8468 134.804 17.251 136.132 17.251C136.709 17.251 137.364 17.2125 137.98 17.1356V9.66751H139.135ZM142.249 11.0533V18.0594H141.095V10.4374C141.98 9.87924 143.058 9.53278 144.213 9.53278C144.675 9.53278 145.137 9.59052 145.618 9.70601V10.8416C145.117 10.6684 144.521 10.6299 144.136 10.6299C143.308 10.6299 142.692 10.8031 142.249 11.0533ZM153.102 13.9212H146.75V13.9597C146.75 16.0192 148.232 17.2318 149.868 17.2318C151.062 17.2318 151.889 16.9238 152.736 16.2887V17.4435C151.986 18.0017 150.908 18.2519 149.868 18.2519C147.443 18.2519 145.595 16.5966 145.595 13.8635C145.595 11.342 147.328 9.47504 149.58 9.47504C151.697 9.47504 153.102 10.7454 153.102 13.1321V13.9212ZM146.827 12.9588H151.947C151.87 11.2073 150.927 10.4952 149.522 10.4952C148.213 10.4952 147.154 11.3805 146.827 12.9588ZM153.984 17.5782V16.2694C154.696 16.9046 155.428 17.2703 156.352 17.2703C157.41 17.2703 158.084 16.8661 158.084 15.923C158.084 14.9221 157.352 14.6526 156.024 14.2099C154.542 13.7095 153.907 13.0936 153.907 11.7462C153.907 10.2642 155.023 9.47504 156.544 9.47504C157.372 9.47504 158.18 9.64826 158.834 10.1102V11.3613C158.18 10.8224 157.506 10.4567 156.544 10.4567C155.62 10.4567 155.023 10.9571 155.023 11.7462C155.023 12.5161 155.485 12.9203 156.775 13.3245C158.238 13.7672 159.219 14.3254 159.219 15.846C159.219 17.5013 157.93 18.2519 156.352 18.2519C155.408 18.2519 154.504 17.9824 153.984 17.5782Z" fill="white"/>
</svg>
