<svg width="16" height="16" viewBox="0 0 16 16" fill="none" xmlns="http://www.w3.org/2000/svg">
<path fill-rule="evenodd" clip-rule="evenodd" d="M8.53033 2.47132C8.23744 2.17842 7.76256 2.17842 7.46967 2.47132C7.17678 2.76421 7.17678 3.23908 7.46967 3.53198L11.1877 7.25001H3.00195C2.58774 7.25001 2.25195 7.5858 2.25195 8.00001C2.25195 8.41422 2.58774 8.75001 3.00195 8.75001H11.1877L7.46967 12.468C7.17678 12.7609 7.17678 13.2358 7.46967 13.5287C7.76256 13.8216 8.23744 13.8216 8.53033 13.5287L13.5159 8.54315C13.6593 8.40654 13.7486 8.21371 13.7486 8.00001C13.7486 7.78661 13.6595 7.59403 13.5165 7.45745L8.53033 2.47132Z" fill="#FC0A54"/>
</svg>
