<svg width="524" height="400" viewBox="0 0 524 400" fill="none" xmlns="http://www.w3.org/2000/svg">
<path d="M477.408 -83.784C398.696 -157.2 240.688 -121.52 121.584 -2.41599C2.48008 116.688 -33.1999 274.68 40.2161 353.4C41.2241 354.512 42.2721 355.584 43.3361 356.664C44.4001 357.744 45.4961 358.768 46.6001 359.792" stroke="#FC0A54" stroke-width="4" stroke-miterlimit="10"/>
<path d="M431.2 -25.688C486.6 34.264 459.384 154.096 369.016 244.448C278.648 334.8 158.8 362 98.8802 306.624C97.9362 305.752 97.0002 304.84 96.0722 303.92C95.1442 303 94.2562 302.064 93.3682 301.12" stroke="#FC0A54" stroke-width="4" stroke-miterlimit="10"/>
<path d="M46.6003 359.792C125.312 433.2 283.312 397.512 402.416 278.408C521.52 159.304 557.2 1.31201 483.784 -77.408C482.76 -78.504 481.728 -79.592 480.664 -80.656C479.6 -81.72 478.52 -82.768 477.408 -83.784C408.048 -147.872 269.408 -116.384 164.888 -11.84C156.355 -3.30665 148.307 5.44 140.744 14.4C55.6403 115.112 34.0003 237.552 93.3683 301.12C38.0003 241.2 65.2003 121.344 155.552 30.976C245.904 -59.392 365.736 -86.624 425.688 -31.2C426.64 -30.312 427.568 -29.416 428.496 -28.496C429.424 -27.576 430.312 -26.64 431.2 -25.688C490.232 37.512 469.296 158.808 385.6 259.256C377.499 268.979 368.832 278.477 359.6 287.752C254.888 392.44 116.048 423.984 46.6003 359.792Z" stroke="#FC0A54" stroke-width="4" stroke-miterlimit="10"/>
</svg>
